<?xml version="1.0" encoding="utf-8" standalone="no"?>
<!DOCTYPE svg PUBLIC "-//W3C//DTD SVG 1.1//EN"
  "http://www.w3.org/Graphics/SVG/1.1/DTD/svg11.dtd">
<svg xmlns:xlink="http://www.w3.org/1999/xlink" width="416.480937pt" height="310.86825pt" viewBox="0 0 416.480937 310.86825" xmlns="http://www.w3.org/2000/svg" version="1.1">
 <metadata>
  <rdf:RDF xmlns:dc="http://purl.org/dc/elements/1.1/" xmlns:cc="http://creativecommons.org/ns#" xmlns:rdf="http://www.w3.org/1999/02/22-rdf-syntax-ns#">
   <cc:Work>
    <dc:type rdf:resource="http://purl.org/dc/dcmitype/StillImage"/>
    <dc:date>2023-10-10T18:10:53.413325</dc:date>
    <dc:format>image/svg+xml</dc:format>
    <dc:creator>
     <cc:Agent>
      <dc:title>Matplotlib v3.7.1, https://matplotlib.org/</dc:title>
     </cc:Agent>
    </dc:creator>
   </cc:Work>
  </rdf:RDF>
 </metadata>
 <defs>
  <style type="text/css">*{stroke-linejoin: round; stroke-linecap: butt}</style>
 </defs>
 <g id="figure_1">
  <g id="patch_1">
   <path d="M 0 310.86825 
L 416.480937 310.86825 
L 416.480937 0 
L 0 0 
z
" style="fill: #ffffff"/>
  </g>
  <g id="axes_1">
   <g id="patch_2">
    <path d="M 52.160938 273.312 
L 409.280938 273.312 
L 409.280938 7.2 
L 52.160938 7.2 
z
" style="fill: #ffffff"/>
   </g>
   <g id="matplotlib.axis_1">
    <g id="xtick_1">
     <g id="line2d_1">
      <defs>
       <path id="m8058698de6" d="M 0 0 
L 0 3.5 
" style="stroke: #000000; stroke-width: 0.8"/>
      </defs>
      <g>
       <use xlink:href="#m8058698de6" x="68.393665" y="273.312" style="stroke: #000000; stroke-width: 0.8"/>
      </g>
     </g>
     <g id="text_1">
      <!-- 1.00 -->
      <g transform="translate(57.260852 287.910437) scale(0.1 -0.1)">
       <defs>
        <path id="DejaVuSans-31" d="M 794 531 
L 1825 531 
L 1825 4091 
L 703 3866 
L 703 4441 
L 1819 4666 
L 2450 4666 
L 2450 531 
L 3481 531 
L 3481 0 
L 794 0 
L 794 531 
z
" transform="scale(0.015625)"/>
        <path id="DejaVuSans-2e" d="M 684 794 
L 1344 794 
L 1344 0 
L 684 0 
L 684 794 
z
" transform="scale(0.015625)"/>
        <path id="DejaVuSans-30" d="M 2034 4250 
Q 1547 4250 1301 3770 
Q 1056 3291 1056 2328 
Q 1056 1369 1301 889 
Q 1547 409 2034 409 
Q 2525 409 2770 889 
Q 3016 1369 3016 2328 
Q 3016 3291 2770 3770 
Q 2525 4250 2034 4250 
z
M 2034 4750 
Q 2819 4750 3233 4129 
Q 3647 3509 3647 2328 
Q 3647 1150 3233 529 
Q 2819 -91 2034 -91 
Q 1250 -91 836 529 
Q 422 1150 422 2328 
Q 422 3509 836 4129 
Q 1250 4750 2034 4750 
z
" transform="scale(0.015625)"/>
       </defs>
       <use xlink:href="#DejaVuSans-31"/>
       <use xlink:href="#DejaVuSans-2e" x="63.623047"/>
       <use xlink:href="#DejaVuSans-30" x="95.410156"/>
       <use xlink:href="#DejaVuSans-30" x="159.033203"/>
      </g>
     </g>
    </g>
    <g id="xtick_2">
     <g id="line2d_2">
      <g>
       <use xlink:href="#m8058698de6" x="133.339301" y="273.312" style="stroke: #000000; stroke-width: 0.8"/>
      </g>
     </g>
     <g id="text_2">
      <!-- 1.02 -->
      <g transform="translate(122.206488 287.910437) scale(0.1 -0.1)">
       <defs>
        <path id="DejaVuSans-32" d="M 1228 531 
L 3431 531 
L 3431 0 
L 469 0 
L 469 531 
Q 828 903 1448 1529 
Q 2069 2156 2228 2338 
Q 2531 2678 2651 2914 
Q 2772 3150 2772 3378 
Q 2772 3750 2511 3984 
Q 2250 4219 1831 4219 
Q 1534 4219 1204 4116 
Q 875 4013 500 3803 
L 500 4441 
Q 881 4594 1212 4672 
Q 1544 4750 1819 4750 
Q 2544 4750 2975 4387 
Q 3406 4025 3406 3419 
Q 3406 3131 3298 2873 
Q 3191 2616 2906 2266 
Q 2828 2175 2409 1742 
Q 1991 1309 1228 531 
z
" transform="scale(0.015625)"/>
       </defs>
       <use xlink:href="#DejaVuSans-31"/>
       <use xlink:href="#DejaVuSans-2e" x="63.623047"/>
       <use xlink:href="#DejaVuSans-30" x="95.410156"/>
       <use xlink:href="#DejaVuSans-32" x="159.033203"/>
      </g>
     </g>
    </g>
    <g id="xtick_3">
     <g id="line2d_3">
      <g>
       <use xlink:href="#m8058698de6" x="198.284937" y="273.312" style="stroke: #000000; stroke-width: 0.8"/>
      </g>
     </g>
     <g id="text_3">
      <!-- 1.04 -->
      <g transform="translate(187.152124 287.910437) scale(0.1 -0.1)">
       <defs>
        <path id="DejaVuSans-34" d="M 2419 4116 
L 825 1625 
L 2419 1625 
L 2419 4116 
z
M 2253 4666 
L 3047 4666 
L 3047 1625 
L 3713 1625 
L 3713 1100 
L 3047 1100 
L 3047 0 
L 2419 0 
L 2419 1100 
L 313 1100 
L 313 1709 
L 2253 4666 
z
" transform="scale(0.015625)"/>
       </defs>
       <use xlink:href="#DejaVuSans-31"/>
       <use xlink:href="#DejaVuSans-2e" x="63.623047"/>
       <use xlink:href="#DejaVuSans-30" x="95.410156"/>
       <use xlink:href="#DejaVuSans-34" x="159.033203"/>
      </g>
     </g>
    </g>
    <g id="xtick_4">
     <g id="line2d_4">
      <g>
       <use xlink:href="#m8058698de6" x="263.230573" y="273.312" style="stroke: #000000; stroke-width: 0.8"/>
      </g>
     </g>
     <g id="text_4">
      <!-- 1.06 -->
      <g transform="translate(252.09776 287.910437) scale(0.1 -0.1)">
       <defs>
        <path id="DejaVuSans-36" d="M 2113 2584 
Q 1688 2584 1439 2293 
Q 1191 2003 1191 1497 
Q 1191 994 1439 701 
Q 1688 409 2113 409 
Q 2538 409 2786 701 
Q 3034 994 3034 1497 
Q 3034 2003 2786 2293 
Q 2538 2584 2113 2584 
z
M 3366 4563 
L 3366 3988 
Q 3128 4100 2886 4159 
Q 2644 4219 2406 4219 
Q 1781 4219 1451 3797 
Q 1122 3375 1075 2522 
Q 1259 2794 1537 2939 
Q 1816 3084 2150 3084 
Q 2853 3084 3261 2657 
Q 3669 2231 3669 1497 
Q 3669 778 3244 343 
Q 2819 -91 2113 -91 
Q 1303 -91 875 529 
Q 447 1150 447 2328 
Q 447 3434 972 4092 
Q 1497 4750 2381 4750 
Q 2619 4750 2861 4703 
Q 3103 4656 3366 4563 
z
" transform="scale(0.015625)"/>
       </defs>
       <use xlink:href="#DejaVuSans-31"/>
       <use xlink:href="#DejaVuSans-2e" x="63.623047"/>
       <use xlink:href="#DejaVuSans-30" x="95.410156"/>
       <use xlink:href="#DejaVuSans-36" x="159.033203"/>
      </g>
     </g>
    </g>
    <g id="xtick_5">
     <g id="line2d_5">
      <g>
       <use xlink:href="#m8058698de6" x="328.176209" y="273.312" style="stroke: #000000; stroke-width: 0.8"/>
      </g>
     </g>
     <g id="text_5">
      <!-- 1.08 -->
      <g transform="translate(317.043396 287.910437) scale(0.1 -0.1)">
       <defs>
        <path id="DejaVuSans-38" d="M 2034 2216 
Q 1584 2216 1326 1975 
Q 1069 1734 1069 1313 
Q 1069 891 1326 650 
Q 1584 409 2034 409 
Q 2484 409 2743 651 
Q 3003 894 3003 1313 
Q 3003 1734 2745 1975 
Q 2488 2216 2034 2216 
z
M 1403 2484 
Q 997 2584 770 2862 
Q 544 3141 544 3541 
Q 544 4100 942 4425 
Q 1341 4750 2034 4750 
Q 2731 4750 3128 4425 
Q 3525 4100 3525 3541 
Q 3525 3141 3298 2862 
Q 3072 2584 2669 2484 
Q 3125 2378 3379 2068 
Q 3634 1759 3634 1313 
Q 3634 634 3220 271 
Q 2806 -91 2034 -91 
Q 1263 -91 848 271 
Q 434 634 434 1313 
Q 434 1759 690 2068 
Q 947 2378 1403 2484 
z
M 1172 3481 
Q 1172 3119 1398 2916 
Q 1625 2713 2034 2713 
Q 2441 2713 2670 2916 
Q 2900 3119 2900 3481 
Q 2900 3844 2670 4047 
Q 2441 4250 2034 4250 
Q 1625 4250 1398 4047 
Q 1172 3844 1172 3481 
z
" transform="scale(0.015625)"/>
       </defs>
       <use xlink:href="#DejaVuSans-31"/>
       <use xlink:href="#DejaVuSans-2e" x="63.623047"/>
       <use xlink:href="#DejaVuSans-30" x="95.410156"/>
       <use xlink:href="#DejaVuSans-38" x="159.033203"/>
      </g>
     </g>
    </g>
    <g id="xtick_6">
     <g id="line2d_6">
      <g>
       <use xlink:href="#m8058698de6" x="393.121845" y="273.312" style="stroke: #000000; stroke-width: 0.8"/>
      </g>
     </g>
     <g id="text_6">
      <!-- 1.10 -->
      <g transform="translate(381.989032 287.910437) scale(0.1 -0.1)">
       <use xlink:href="#DejaVuSans-31"/>
       <use xlink:href="#DejaVuSans-2e" x="63.623047"/>
       <use xlink:href="#DejaVuSans-31" x="95.410156"/>
       <use xlink:href="#DejaVuSans-30" x="159.033203"/>
      </g>
     </g>
    </g>
    <g id="text_7">
     <!-- Time (Sec) -->
     <g transform="translate(203.996719 301.588562) scale(0.1 -0.1)">
      <defs>
       <path id="DejaVuSans-54" d="M -19 4666 
L 3928 4666 
L 3928 4134 
L 2272 4134 
L 2272 0 
L 1638 0 
L 1638 4134 
L -19 4134 
L -19 4666 
z
" transform="scale(0.015625)"/>
       <path id="DejaVuSans-69" d="M 603 3500 
L 1178 3500 
L 1178 0 
L 603 0 
L 603 3500 
z
M 603 4863 
L 1178 4863 
L 1178 4134 
L 603 4134 
L 603 4863 
z
" transform="scale(0.015625)"/>
       <path id="DejaVuSans-6d" d="M 3328 2828 
Q 3544 3216 3844 3400 
Q 4144 3584 4550 3584 
Q 5097 3584 5394 3201 
Q 5691 2819 5691 2113 
L 5691 0 
L 5113 0 
L 5113 2094 
Q 5113 2597 4934 2840 
Q 4756 3084 4391 3084 
Q 3944 3084 3684 2787 
Q 3425 2491 3425 1978 
L 3425 0 
L 2847 0 
L 2847 2094 
Q 2847 2600 2669 2842 
Q 2491 3084 2119 3084 
Q 1678 3084 1418 2786 
Q 1159 2488 1159 1978 
L 1159 0 
L 581 0 
L 581 3500 
L 1159 3500 
L 1159 2956 
Q 1356 3278 1631 3431 
Q 1906 3584 2284 3584 
Q 2666 3584 2933 3390 
Q 3200 3197 3328 2828 
z
" transform="scale(0.015625)"/>
       <path id="DejaVuSans-65" d="M 3597 1894 
L 3597 1613 
L 953 1613 
Q 991 1019 1311 708 
Q 1631 397 2203 397 
Q 2534 397 2845 478 
Q 3156 559 3463 722 
L 3463 178 
Q 3153 47 2828 -22 
Q 2503 -91 2169 -91 
Q 1331 -91 842 396 
Q 353 884 353 1716 
Q 353 2575 817 3079 
Q 1281 3584 2069 3584 
Q 2775 3584 3186 3129 
Q 3597 2675 3597 1894 
z
M 3022 2063 
Q 3016 2534 2758 2815 
Q 2500 3097 2075 3097 
Q 1594 3097 1305 2825 
Q 1016 2553 972 2059 
L 3022 2063 
z
" transform="scale(0.015625)"/>
       <path id="DejaVuSans-20" transform="scale(0.015625)"/>
       <path id="DejaVuSans-28" d="M 1984 4856 
Q 1566 4138 1362 3434 
Q 1159 2731 1159 2009 
Q 1159 1288 1364 580 
Q 1569 -128 1984 -844 
L 1484 -844 
Q 1016 -109 783 600 
Q 550 1309 550 2009 
Q 550 2706 781 3412 
Q 1013 4119 1484 4856 
L 1984 4856 
z
" transform="scale(0.015625)"/>
       <path id="DejaVuSans-53" d="M 3425 4513 
L 3425 3897 
Q 3066 4069 2747 4153 
Q 2428 4238 2131 4238 
Q 1616 4238 1336 4038 
Q 1056 3838 1056 3469 
Q 1056 3159 1242 3001 
Q 1428 2844 1947 2747 
L 2328 2669 
Q 3034 2534 3370 2195 
Q 3706 1856 3706 1288 
Q 3706 609 3251 259 
Q 2797 -91 1919 -91 
Q 1588 -91 1214 -16 
Q 841 59 441 206 
L 441 856 
Q 825 641 1194 531 
Q 1563 422 1919 422 
Q 2459 422 2753 634 
Q 3047 847 3047 1241 
Q 3047 1584 2836 1778 
Q 2625 1972 2144 2069 
L 1759 2144 
Q 1053 2284 737 2584 
Q 422 2884 422 3419 
Q 422 4038 858 4394 
Q 1294 4750 2059 4750 
Q 2388 4750 2728 4690 
Q 3069 4631 3425 4513 
z
" transform="scale(0.015625)"/>
       <path id="DejaVuSans-63" d="M 3122 3366 
L 3122 2828 
Q 2878 2963 2633 3030 
Q 2388 3097 2138 3097 
Q 1578 3097 1268 2742 
Q 959 2388 959 1747 
Q 959 1106 1268 751 
Q 1578 397 2138 397 
Q 2388 397 2633 464 
Q 2878 531 3122 666 
L 3122 134 
Q 2881 22 2623 -34 
Q 2366 -91 2075 -91 
Q 1284 -91 818 406 
Q 353 903 353 1747 
Q 353 2603 823 3093 
Q 1294 3584 2113 3584 
Q 2378 3584 2631 3529 
Q 2884 3475 3122 3366 
z
" transform="scale(0.015625)"/>
       <path id="DejaVuSans-29" d="M 513 4856 
L 1013 4856 
Q 1481 4119 1714 3412 
Q 1947 2706 1947 2009 
Q 1947 1309 1714 600 
Q 1481 -109 1013 -844 
L 513 -844 
Q 928 -128 1133 580 
Q 1338 1288 1338 2009 
Q 1338 2731 1133 3434 
Q 928 4138 513 4856 
z
" transform="scale(0.015625)"/>
      </defs>
      <use xlink:href="#DejaVuSans-54"/>
      <use xlink:href="#DejaVuSans-69" x="57.958984"/>
      <use xlink:href="#DejaVuSans-6d" x="85.742188"/>
      <use xlink:href="#DejaVuSans-65" x="183.154297"/>
      <use xlink:href="#DejaVuSans-20" x="244.677734"/>
      <use xlink:href="#DejaVuSans-28" x="276.464844"/>
      <use xlink:href="#DejaVuSans-53" x="315.478516"/>
      <use xlink:href="#DejaVuSans-65" x="378.955078"/>
      <use xlink:href="#DejaVuSans-63" x="440.478516"/>
      <use xlink:href="#DejaVuSans-29" x="495.458984"/>
     </g>
    </g>
   </g>
   <g id="matplotlib.axis_2">
    <g id="ytick_1">
     <g id="line2d_7">
      <defs>
       <path id="ma439967fe0" d="M 0 0 
L -3.5 0 
" style="stroke: #000000; stroke-width: 0.8"/>
      </defs>
      <g>
       <use xlink:href="#ma439967fe0" x="52.160938" y="268.139599" style="stroke: #000000; stroke-width: 0.8"/>
      </g>
     </g>
     <g id="text_8">
      <!-- −0.6 -->
      <g transform="translate(20.878125 271.938818) scale(0.1 -0.1)">
       <defs>
        <path id="DejaVuSans-2212" d="M 678 2272 
L 4684 2272 
L 4684 1741 
L 678 1741 
L 678 2272 
z
" transform="scale(0.015625)"/>
       </defs>
       <use xlink:href="#DejaVuSans-2212"/>
       <use xlink:href="#DejaVuSans-30" x="83.789062"/>
       <use xlink:href="#DejaVuSans-2e" x="147.412109"/>
       <use xlink:href="#DejaVuSans-36" x="179.199219"/>
      </g>
     </g>
    </g>
    <g id="ytick_2">
     <g id="line2d_8">
      <g>
       <use xlink:href="#ma439967fe0" x="52.160938" y="217.349316" style="stroke: #000000; stroke-width: 0.8"/>
      </g>
     </g>
     <g id="text_9">
      <!-- −0.4 -->
      <g transform="translate(20.878125 221.148535) scale(0.1 -0.1)">
       <use xlink:href="#DejaVuSans-2212"/>
       <use xlink:href="#DejaVuSans-30" x="83.789062"/>
       <use xlink:href="#DejaVuSans-2e" x="147.412109"/>
       <use xlink:href="#DejaVuSans-34" x="179.199219"/>
      </g>
     </g>
    </g>
    <g id="ytick_3">
     <g id="line2d_9">
      <g>
       <use xlink:href="#ma439967fe0" x="52.160938" y="166.559033" style="stroke: #000000; stroke-width: 0.8"/>
      </g>
     </g>
     <g id="text_10">
      <!-- −0.2 -->
      <g transform="translate(20.878125 170.358252) scale(0.1 -0.1)">
       <use xlink:href="#DejaVuSans-2212"/>
       <use xlink:href="#DejaVuSans-30" x="83.789062"/>
       <use xlink:href="#DejaVuSans-2e" x="147.412109"/>
       <use xlink:href="#DejaVuSans-32" x="179.199219"/>
      </g>
     </g>
    </g>
    <g id="ytick_4">
     <g id="line2d_10">
      <g>
       <use xlink:href="#ma439967fe0" x="52.160938" y="115.768751" style="stroke: #000000; stroke-width: 0.8"/>
      </g>
     </g>
     <g id="text_11">
      <!-- 0.0 -->
      <g transform="translate(29.257813 119.567969) scale(0.1 -0.1)">
       <use xlink:href="#DejaVuSans-30"/>
       <use xlink:href="#DejaVuSans-2e" x="63.623047"/>
       <use xlink:href="#DejaVuSans-30" x="95.410156"/>
      </g>
     </g>
    </g>
    <g id="ytick_5">
     <g id="line2d_11">
      <g>
       <use xlink:href="#ma439967fe0" x="52.160938" y="64.978468" style="stroke: #000000; stroke-width: 0.8"/>
      </g>
     </g>
     <g id="text_12">
      <!-- 0.2 -->
      <g transform="translate(29.257813 68.777686) scale(0.1 -0.1)">
       <use xlink:href="#DejaVuSans-30"/>
       <use xlink:href="#DejaVuSans-2e" x="63.623047"/>
       <use xlink:href="#DejaVuSans-32" x="95.410156"/>
      </g>
     </g>
    </g>
    <g id="ytick_6">
     <g id="line2d_12">
      <g>
       <use xlink:href="#ma439967fe0" x="52.160938" y="14.188185" style="stroke: #000000; stroke-width: 0.8"/>
      </g>
     </g>
     <g id="text_13">
      <!-- 0.4 -->
      <g transform="translate(29.257813 17.987404) scale(0.1 -0.1)">
       <use xlink:href="#DejaVuSans-30"/>
       <use xlink:href="#DejaVuSans-2e" x="63.623047"/>
       <use xlink:href="#DejaVuSans-34" x="95.410156"/>
      </g>
     </g>
    </g>
    <g id="text_14">
     <!-- Normalized Pressure -->
     <g transform="translate(14.798438 191.545062) rotate(-90) scale(0.1 -0.1)">
      <defs>
       <path id="DejaVuSans-4e" d="M 628 4666 
L 1478 4666 
L 3547 763 
L 3547 4666 
L 4159 4666 
L 4159 0 
L 3309 0 
L 1241 3903 
L 1241 0 
L 628 0 
L 628 4666 
z
" transform="scale(0.015625)"/>
       <path id="DejaVuSans-6f" d="M 1959 3097 
Q 1497 3097 1228 2736 
Q 959 2375 959 1747 
Q 959 1119 1226 758 
Q 1494 397 1959 397 
Q 2419 397 2687 759 
Q 2956 1122 2956 1747 
Q 2956 2369 2687 2733 
Q 2419 3097 1959 3097 
z
M 1959 3584 
Q 2709 3584 3137 3096 
Q 3566 2609 3566 1747 
Q 3566 888 3137 398 
Q 2709 -91 1959 -91 
Q 1206 -91 779 398 
Q 353 888 353 1747 
Q 353 2609 779 3096 
Q 1206 3584 1959 3584 
z
" transform="scale(0.015625)"/>
       <path id="DejaVuSans-72" d="M 2631 2963 
Q 2534 3019 2420 3045 
Q 2306 3072 2169 3072 
Q 1681 3072 1420 2755 
Q 1159 2438 1159 1844 
L 1159 0 
L 581 0 
L 581 3500 
L 1159 3500 
L 1159 2956 
Q 1341 3275 1631 3429 
Q 1922 3584 2338 3584 
Q 2397 3584 2469 3576 
Q 2541 3569 2628 3553 
L 2631 2963 
z
" transform="scale(0.015625)"/>
       <path id="DejaVuSans-61" d="M 2194 1759 
Q 1497 1759 1228 1600 
Q 959 1441 959 1056 
Q 959 750 1161 570 
Q 1363 391 1709 391 
Q 2188 391 2477 730 
Q 2766 1069 2766 1631 
L 2766 1759 
L 2194 1759 
z
M 3341 1997 
L 3341 0 
L 2766 0 
L 2766 531 
Q 2569 213 2275 61 
Q 1981 -91 1556 -91 
Q 1019 -91 701 211 
Q 384 513 384 1019 
Q 384 1609 779 1909 
Q 1175 2209 1959 2209 
L 2766 2209 
L 2766 2266 
Q 2766 2663 2505 2880 
Q 2244 3097 1772 3097 
Q 1472 3097 1187 3025 
Q 903 2953 641 2809 
L 641 3341 
Q 956 3463 1253 3523 
Q 1550 3584 1831 3584 
Q 2591 3584 2966 3190 
Q 3341 2797 3341 1997 
z
" transform="scale(0.015625)"/>
       <path id="DejaVuSans-6c" d="M 603 4863 
L 1178 4863 
L 1178 0 
L 603 0 
L 603 4863 
z
" transform="scale(0.015625)"/>
       <path id="DejaVuSans-7a" d="M 353 3500 
L 3084 3500 
L 3084 2975 
L 922 459 
L 3084 459 
L 3084 0 
L 275 0 
L 275 525 
L 2438 3041 
L 353 3041 
L 353 3500 
z
" transform="scale(0.015625)"/>
       <path id="DejaVuSans-64" d="M 2906 2969 
L 2906 4863 
L 3481 4863 
L 3481 0 
L 2906 0 
L 2906 525 
Q 2725 213 2448 61 
Q 2172 -91 1784 -91 
Q 1150 -91 751 415 
Q 353 922 353 1747 
Q 353 2572 751 3078 
Q 1150 3584 1784 3584 
Q 2172 3584 2448 3432 
Q 2725 3281 2906 2969 
z
M 947 1747 
Q 947 1113 1208 752 
Q 1469 391 1925 391 
Q 2381 391 2643 752 
Q 2906 1113 2906 1747 
Q 2906 2381 2643 2742 
Q 2381 3103 1925 3103 
Q 1469 3103 1208 2742 
Q 947 2381 947 1747 
z
" transform="scale(0.015625)"/>
       <path id="DejaVuSans-50" d="M 1259 4147 
L 1259 2394 
L 2053 2394 
Q 2494 2394 2734 2622 
Q 2975 2850 2975 3272 
Q 2975 3691 2734 3919 
Q 2494 4147 2053 4147 
L 1259 4147 
z
M 628 4666 
L 2053 4666 
Q 2838 4666 3239 4311 
Q 3641 3956 3641 3272 
Q 3641 2581 3239 2228 
Q 2838 1875 2053 1875 
L 1259 1875 
L 1259 0 
L 628 0 
L 628 4666 
z
" transform="scale(0.015625)"/>
       <path id="DejaVuSans-73" d="M 2834 3397 
L 2834 2853 
Q 2591 2978 2328 3040 
Q 2066 3103 1784 3103 
Q 1356 3103 1142 2972 
Q 928 2841 928 2578 
Q 928 2378 1081 2264 
Q 1234 2150 1697 2047 
L 1894 2003 
Q 2506 1872 2764 1633 
Q 3022 1394 3022 966 
Q 3022 478 2636 193 
Q 2250 -91 1575 -91 
Q 1294 -91 989 -36 
Q 684 19 347 128 
L 347 722 
Q 666 556 975 473 
Q 1284 391 1588 391 
Q 1994 391 2212 530 
Q 2431 669 2431 922 
Q 2431 1156 2273 1281 
Q 2116 1406 1581 1522 
L 1381 1569 
Q 847 1681 609 1914 
Q 372 2147 372 2553 
Q 372 3047 722 3315 
Q 1072 3584 1716 3584 
Q 2034 3584 2315 3537 
Q 2597 3491 2834 3397 
z
" transform="scale(0.015625)"/>
       <path id="DejaVuSans-75" d="M 544 1381 
L 544 3500 
L 1119 3500 
L 1119 1403 
Q 1119 906 1312 657 
Q 1506 409 1894 409 
Q 2359 409 2629 706 
Q 2900 1003 2900 1516 
L 2900 3500 
L 3475 3500 
L 3475 0 
L 2900 0 
L 2900 538 
Q 2691 219 2414 64 
Q 2138 -91 1772 -91 
Q 1169 -91 856 284 
Q 544 659 544 1381 
z
M 1991 3584 
L 1991 3584 
z
" transform="scale(0.015625)"/>
      </defs>
      <use xlink:href="#DejaVuSans-4e"/>
      <use xlink:href="#DejaVuSans-6f" x="74.804688"/>
      <use xlink:href="#DejaVuSans-72" x="135.986328"/>
      <use xlink:href="#DejaVuSans-6d" x="175.349609"/>
      <use xlink:href="#DejaVuSans-61" x="272.761719"/>
      <use xlink:href="#DejaVuSans-6c" x="334.041016"/>
      <use xlink:href="#DejaVuSans-69" x="361.824219"/>
      <use xlink:href="#DejaVuSans-7a" x="389.607422"/>
      <use xlink:href="#DejaVuSans-65" x="442.097656"/>
      <use xlink:href="#DejaVuSans-64" x="503.621094"/>
      <use xlink:href="#DejaVuSans-20" x="567.097656"/>
      <use xlink:href="#DejaVuSans-50" x="598.884766"/>
      <use xlink:href="#DejaVuSans-72" x="657.4375"/>
      <use xlink:href="#DejaVuSans-65" x="696.300781"/>
      <use xlink:href="#DejaVuSans-73" x="757.824219"/>
      <use xlink:href="#DejaVuSans-73" x="809.923828"/>
      <use xlink:href="#DejaVuSans-75" x="862.023438"/>
      <use xlink:href="#DejaVuSans-72" x="925.402344"/>
      <use xlink:href="#DejaVuSans-65" x="964.265625"/>
     </g>
    </g>
   </g>
   <g id="line2d_13">
    <path d="M 68.393665 49.226911 
L 68.835472 78.825666 
L 69.13001 109.716137 
L 69.350913 100.674124 
L 69.424548 101.633684 
L 69.571817 110.934041 
L 69.719086 119.754618 
L 69.79272 119.090307 
L 69.939989 109.01492 
L 70.160893 95.285822 
L 70.308162 101.153904 
L 70.381796 100.895561 
L 70.749969 67.68 
L 70.823604 68.233593 
L 70.970873 70.226526 
L 71.265411 62.623854 
L 71.339045 64.948943 
L 71.707218 86.428339 
L 71.854487 87.129556 
L 72.149025 95.802508 
L 72.369928 107.206517 
L 72.517197 104.992146 
L 72.590832 105.508833 
L 72.811735 110.417355 
L 73.179908 138.908924 
L 73.695349 207.406792 
L 73.916253 234.459021 
L 73.989887 234.569739 
L 74.137156 231.026746 
L 74.35806 218.14649 
L 74.505329 220.693016 
L 74.578963 216.522618 
L 75.609847 62.697666 
L 75.757116 66.941876 
L 75.83075 65.022755 
L 75.978019 51.515094 
L 76.198923 36.088311 
L 76.272557 37.675277 
L 76.861633 85.874746 
L 77.082537 109.78995 
L 77.156171 110.860229 
L 77.377075 104.217117 
L 77.450709 106.689831 
L 77.671613 117.503341 
L 77.745247 116.54378 
L 78.11342 96.208476 
L 78.187054 94.510792 
L 78.334323 96.835881 
L 78.481592 85.505684 
L 78.702496 57.641519 
L 78.77613 58.859423 
L 78.923399 65.576348 
L 78.997034 64.506069 
L 79.070668 64.838224 
L 79.144303 65.723973 
L 79.217937 64.87513 
L 79.291572 65.17038 
L 79.659744 87.720055 
L 79.733379 86.686682 
L 79.807014 84.841373 
L 79.880648 86.760494 
L 80.248821 106.025519 
L 80.322455 106.431487 
L 80.39609 107.538673 
L 80.469724 107.427954 
L 80.616993 102.9254 
L 80.837897 110.712604 
L 81.132435 130.235973 
L 81.574242 198.844558 
L 81.721511 208.993757 
L 81.942414 238.112732 
L 82.016049 237.485327 
L 82.089683 235.492394 
L 82.310587 220.914453 
L 82.457856 226.782535 
L 82.53149 225.232476 
L 82.826028 187.071487 
L 83.562373 63.103634 
L 83.709642 63.731039 
L 83.930546 55.31643 
L 84.151449 27.858233 
L 84.225084 30.367854 
L 84.372353 42.030206 
L 84.519622 58.416549 
L 84.593257 58.379643 
L 84.740526 71.665867 
L 85.182333 113.738911 
L 85.255967 111.967414 
L 85.403236 105.287396 
L 85.771409 123.11308 
L 85.918678 113.628192 
L 86.213216 95.248915 
L 86.360485 99.308595 
L 86.728657 59.302297 
L 86.802292 60.040421 
L 86.949561 65.94541 
L 87.023195 65.834691 
L 87.09683 66.388284 
L 87.244099 60.815451 
L 87.317733 61.738105 
L 87.612271 83.32822 
L 88.127713 103.294462 
L 88.348616 113.702005 
L 88.643154 107.870828 
L 89.158596 140.754233 
L 89.674038 200.874398 
L 89.894941 231.986307 
L 89.968576 231.580339 
L 90.189479 223.830041 
L 90.336748 216.744055 
L 90.410383 220.877547 
L 90.484017 220.693016 
L 91.146728 142.119762 
L 91.588535 65.354911 
L 91.662169 66.093034 
L 91.735804 68.860998 
L 91.956707 57.383176 
L 92.177611 34.390627 
L 92.398514 48.378069 
L 92.619418 62.328604 
L 92.693052 65.244192 
L 93.134859 112.631725 
L 93.282128 107.649391 
L 93.503032 113.185318 
L 93.723935 121.784458 
L 93.79757 122.6333 
L 93.871205 120.455835 
L 94.165743 102.556339 
L 94.386646 96.466819 
L 94.754819 62.070261 
L 94.902088 65.908503 
L 94.975722 65.17038 
L 95.196626 61.295231 
L 95.27026 61.073794 
L 95.785702 85.948558 
L 96.006605 96.466819 
L 96.301143 111.04476 
L 96.522047 107.46486 
L 96.669316 110.823323 
L 96.963854 125.954856 
L 97.111123 136.842178 
L 97.847468 230.067185 
L 97.921102 232.207744 
L 97.994737 232.133931 
L 98.142006 219.622737 
L 98.21564 213.237968 
L 98.289275 213.422499 
L 98.436544 217.814334 
L 98.510179 217.039304 
L 98.583813 213.016531 
L 99.541062 66.831158 
L 99.614696 70.041995 
L 99.688331 72.108741 
L 99.8356 68.45503 
L 99.982869 47.861382 
L 100.130138 34.353721 
L 100.277407 39.336055 
L 100.49831 61.516668 
L 100.571945 60.372577 
L 100.792848 75.910078 
L 101.013752 105.176677 
L 101.087386 104.438554 
L 101.30829 100.41578 
L 101.381924 101.744403 
L 101.750097 123.666673 
L 102.191904 102.261089 
L 102.265538 104.881428 
L 102.339173 103.22065 
L 102.707345 70.374151 
L 102.854614 72.69924 
L 103.001883 74.618362 
L 103.075518 72.957584 
L 103.222787 63.103634 
L 103.296422 63.251259 
L 103.664594 81.630535 
L 103.738229 80.486444 
L 103.811863 80.929318 
L 104.25367 100.231249 
L 104.400939 105.287396 
L 104.474574 105.176677 
L 104.621843 103.073025 
L 104.769112 109.78995 
L 105.210919 149.464092 
L 105.72636 209.879506 
L 105.947264 237.153172 
L 106.020898 232.613712 
L 106.315436 211.909346 
L 106.462705 222.316888 
L 106.757243 182.753465 
L 107.640857 67.126407 
L 107.788127 69.894371 
L 108.156299 33.431066 
L 108.229934 39.668211 
L 108.450837 62.291698 
L 108.524472 66.499002 
L 108.598106 66.240659 
L 108.671741 65.244192 
L 109.113548 110.011387 
L 109.187182 106.874362 
L 109.260817 102.9254 
L 109.334451 104.217117 
L 109.628989 120.086773 
L 109.702624 118.57362 
L 110.144431 96.319195 
L 110.218065 97.278755 
L 110.2917 99.124064 
L 110.365334 98.791908 
L 110.807141 64.063195 
L 111.101679 68.15978 
L 111.175314 68.45503 
L 111.322583 66.388284 
L 111.690755 88.937959 
L 111.911659 93.477419 
L 112.279831 112.373382 
L 112.353466 111.598352 
L 112.500735 108.867295 
L 112.721639 112.926975 
L 112.868908 119.754618 
L 113.457984 187.219112 
L 113.899791 233.167304 
L 114.04706 222.575231 
L 114.267963 213.016531 
L 114.415232 216.670243 
L 114.488867 214.012998 
L 115.151577 128.279945 
L 115.51975 69.377684 
L 115.593384 70.226526 
L 115.814288 63.804851 
L 116.108826 35.202563 
L 116.18246 36.752622 
L 117.066075 110.122105 
L 117.139709 110.786416 
L 117.286978 106.431487 
L 117.434247 110.564979 
L 117.655151 125.290545 
L 117.728785 124.589327 
L 117.949689 112.742444 
L 118.096958 103.109931 
L 118.244227 107.538673 
L 118.391496 96.65135 
L 118.686034 65.502535 
L 118.906937 70.300339 
L 118.980572 71.075368 
L 119.054206 69.746746 
L 119.27511 62.254792 
L 119.569648 86.428339 
L 119.643282 84.472311 
L 119.716917 83.844906 
L 120.232358 112.594819 
L 120.305993 111.266197 
L 120.453262 105.619551 
L 120.526896 106.099332 
L 120.674165 114.477034 
L 121.263241 166.219497 
L 121.484145 200.357712 
L 121.631414 208.329446 
L 121.852318 230.583872 
L 122.073221 219.142957 
L 122.22049 212.241501 
L 122.294125 215.120183 
L 122.367759 214.603497 
L 122.515028 203.125675 
L 123.619546 70.18962 
L 123.69318 69.931277 
L 123.840449 61.848824 
L 124.061353 38.671744 
L 124.724063 80.707881 
L 125.018601 107.095799 
L 125.16587 104.180211 
L 125.239505 104.623085 
L 125.681312 120.972522 
L 125.754946 118.57362 
L 126.049484 100.747936 
L 126.123119 100.600311 
L 126.196753 101.818215 
L 126.270388 98.164503 
L 126.564926 68.787185 
L 126.638561 66.757346 
L 126.859464 72.957584 
L 126.933099 72.99449 
L 127.006733 71.998023 
L 127.154002 67.790719 
L 127.595809 90.303487 
L 127.669444 89.823707 
L 127.816713 101.559872 
L 128.111251 119.016494 
L 128.332154 106.357675 
L 128.626692 114.107973 
L 129.068499 139.314892 
L 129.73121 222.759762 
L 129.878479 229.181437 
L 129.952113 227.336128 
L 130.173017 212.499844 
L 130.320286 213.828467 
L 130.39392 214.123716 
L 130.467555 210.839066 
L 131.572073 67.458563 
L 131.719342 63.583414 
L 131.866611 49.706691 
L 132.01388 35.202563 
L 132.161149 39.557492 
L 133.044763 108.166078 
L 133.48657 121.046334 
L 133.633839 131.306252 
L 133.781108 118.278371 
L 134.002011 104.844522 
L 134.296549 90.709455 
L 134.591087 66.093034 
L 134.664722 66.166847 
L 134.738356 67.753812 
L 134.811991 67.643094 
L 134.885625 67.975249 
L 134.95926 67.901437 
L 135.106529 65.318005 
L 136.063778 113.923442 
L 136.211047 109.420888 
L 136.284681 110.085199 
L 136.726488 120.197492 
L 137.021026 143.669822 
L 137.831006 223.202636 
L 137.90464 221.689483 
L 138.199178 205.450764 
L 138.346447 212.020064 
L 138.420082 208.29254 
L 139.524599 68.602654 
L 139.598234 70.115808 
L 139.671868 69.340778 
L 140.040041 33.39416 
L 140.113675 36.641904 
L 140.481848 66.868064 
L 140.555483 67.606188 
L 140.702752 80.634069 
L 140.99729 108.645858 
L 141.218193 104.623085 
L 141.365462 110.048293 
L 141.586366 124.220265 
L 141.880904 106.98508 
L 142.028173 99.345501 
L 142.101807 100.489593 
L 142.175442 99.936 
L 142.322711 89.565364 
L 142.543614 67.015689 
L 142.617249 67.274032 
L 142.911787 71.407524 
L 142.985421 70.706307 
L 143.059056 68.491936 
L 143.13269 68.602654 
L 143.353594 80.375725 
L 143.500863 86.243808 
L 143.574497 85.83784 
L 144.016304 108.424421 
L 144.089939 107.76011 
L 144.163573 107.354142 
L 144.237208 107.612485 
L 144.384477 107.243423 
L 144.531746 112.447195 
L 144.899919 136.657648 
L 145.783533 223.608604 
L 145.857167 223.018105 
L 146.078071 203.051863 
L 146.22534 210.396192 
L 146.372609 200.357712 
L 147.035319 113.960348 
L 147.329857 71.149181 
L 147.403492 72.034929 
L 147.477126 71.813492 
L 147.624395 64.210819 
L 147.992568 34.427533 
L 148.139837 49.595973 
L 148.287106 65.17038 
L 148.36074 65.281098 
L 148.508009 76.242233 
L 148.949816 108.904201 
L 149.023451 108.018453 
L 149.17072 104.512366 
L 149.465258 121.230865 
L 149.538893 119.717712 
L 149.9807 99.16097 
L 150.054334 98.791908 
L 150.127969 97.537098 
L 150.569776 67.274032 
L 150.64341 67.753812 
L 150.717045 67.790719 
L 150.937948 75.02433 
L 151.011583 73.769519 
L 151.085217 73.732613 
L 151.600659 96.245382 
L 151.821562 107.46486 
L 151.968831 112.484101 
L 152.042466 112.373382 
L 152.189735 112.410288 
L 152.337004 109.051826 
L 152.410638 109.716137 
L 152.631542 119.533181 
L 153.073349 163.414627 
L 153.441521 211.687908 
L 153.58879 219.438206 
L 153.736059 222.058545 
L 153.809694 220.17633 
L 153.956963 203.2733 
L 154.104232 214.271341 
L 154.177867 212.241501 
L 154.39877 192.865757 
L 155.20875 73.769519 
L 155.282384 72.551616 
L 155.356019 73.732613 
L 155.429653 72.256366 
L 155.87146 36.309748 
L 156.018729 46.016073 
L 156.239633 65.576348 
L 156.313267 64.469162 
L 156.607805 93.883387 
L 156.828709 110.860229 
L 157.049612 110.26973 
L 157.123247 111.04476 
L 157.417785 123.851204 
L 157.565054 118.204558 
L 158.227764 80.265007 
L 158.448668 66.056128 
L 158.669571 72.514709 
L 158.816841 76.75892 
L 158.890475 75.873172 
L 158.96411 73.843332 
L 159.037744 75.20886 
L 159.405917 92.40714 
L 159.479551 93.66195 
L 159.847724 116.765217 
L 159.921358 117.392622 
L 160.068627 112.963881 
L 160.142262 113.775817 
L 160.289531 111.155478 
L 160.4368 119.237931 
L 160.878607 152.748741 
L 161.614952 220.213236 
L 161.688586 220.877547 
L 161.762221 217.519085 
L 161.90949 202.793519 
L 162.056759 210.396192 
L 162.130393 207.702041 
L 162.719469 136.362398 
L 163.234911 73.179021 
L 163.529449 58.379643 
L 163.823987 36.235936 
L 164.486698 90.118957 
L 164.781236 113.185318 
L 164.928505 108.276796 
L 165.002139 109.568513 
L 165.296677 123.40833 
L 165.370312 122.817831 
L 165.517581 119.164119 
L 165.591215 118.979588 
L 166.32756 69.968183 
L 166.401195 70.447963 
L 166.548464 67.901437 
L 166.695733 75.356485 
L 166.769367 75.02433 
L 166.916636 73.437364 
L 166.990271 74.581455 
L 167.284809 88.790334 
L 167.358443 90.118957 
L 167.726616 110.860229 
L 167.80025 113.0746 
L 167.873885 112.484101 
L 168.021154 109.531606 
L 168.242058 113.111506 
L 168.536596 130.863378 
L 168.978403 179.616439 
L 169.346575 216.928586 
L 169.567479 222.353794 
L 169.641113 217.925053 
L 169.788382 201.575616 
L 169.935651 209.252101 
L 170.156555 194.489629 
L 170.377458 167.695744 
L 170.819265 102.667057 
L 171.040169 71.44443 
L 171.113803 73.289739 
L 171.187438 72.588522 
L 171.702879 37.047872 
L 171.776514 39.48368 
L 172.291955 85.948558 
L 172.439224 94.436979 
L 172.660128 108.941108 
L 172.733763 109.826856 
L 172.881032 107.76011 
L 172.954666 109.236357 
L 173.249204 122.264238 
L 173.322839 122.005895 
L 173.470108 116.617593 
L 173.764646 99.271689 
L 173.83828 100.305062 
L 173.911915 98.275222 
L 174.206453 70.115808 
L 174.64826 80.8186 
L 174.721894 80.154288 
L 174.869163 77.054169 
L 174.942798 79.526883 
L 175.163701 96.466819 
L 175.237336 94.547698 
L 175.31097 95.839414 
L 175.531874 105.176677 
L 175.752777 116.064 
L 175.826412 115.731844 
L 175.900046 113.775817 
L 176.047315 102.519432 
L 176.12095 104.992146 
L 176.489122 132.118188 
L 176.636391 142.636449 
L 177.151833 202.719707 
L 177.446371 222.427606 
L 177.520006 220.36086 
L 177.667275 201.612522 
L 177.740909 204.122142 
L 177.814544 208.919945 
L 178.035447 198.364778 
L 178.329985 163.599158 
L 178.919061 73.511176 
L 178.992696 72.21946 
L 179.06633 73.806426 
L 179.139965 72.034929 
L 179.581772 37.749089 
L 179.655406 38.191963 
L 180.686289 112.447195 
L 180.833558 108.23989 
L 180.980827 117.946215 
L 181.128096 123.88811 
L 181.275365 120.640366 
L 181.422634 109.753043 
L 181.643538 93.108357 
L 181.790807 99.419314 
L 181.938076 84.029437 
L 182.15898 66.240659 
L 182.600787 77.386325 
L 182.748056 73.326645 
L 182.82169 76.27914 
L 183.116228 100.268156 
L 183.189863 99.013346 
L 183.263497 99.124064 
L 183.484401 106.246957 
L 183.705304 121.710645 
L 183.926208 118.241465 
L 183.999842 116.875936 
L 184.073477 117.540247 
L 184.515284 151.641556 
L 185.10436 214.714215 
L 185.177994 215.304714 
L 185.251629 212.721281 
L 185.325263 213.237968 
L 185.398898 214.123716 
L 185.546167 201.612522 
L 185.619801 203.937611 
L 185.693436 209.06757 
L 185.76707 206.963918 
L 186.650685 87.683149 
L 186.797954 72.367085 
L 186.871588 73.252833 
L 186.945223 73.105208 
L 187.460664 39.594398 
L 187.607933 46.311323 
L 188.344278 105.102865 
L 188.491547 109.125638 
L 188.565182 109.125638 
L 188.712451 112.041227 
L 188.933354 122.042801 
L 189.006989 121.157053 
L 189.080623 120.640366 
L 189.154258 121.85827 
L 189.227892 120.861803 
L 189.743334 91.927359 
L 189.964237 70.558682 
L 190.111506 72.071835 
L 190.185141 71.259899 
L 190.258775 71.44443 
L 190.406044 75.245767 
L 190.626948 73.47427 
L 190.774217 81.667442 
L 190.921486 86.575963 
L 190.99512 85.394966 
L 191.142389 96.688256 
L 191.363293 108.23989 
L 191.510562 113.55438 
L 191.584197 113.185318 
L 191.731466 110.712604 
L 191.8051 111.893602 
L 192.099638 129.091881 
L 192.394176 160.757382 
L 192.909618 210.470005 
L 193.130521 220.914453 
L 193.204156 218.810801 
L 193.425059 195.301565 
L 193.498694 199.398151 
L 193.572328 203.088769 
L 193.719597 193.566975 
L 193.866866 180.206938 
L 194.529577 78.419698 
L 194.75048 67.864531 
L 194.824115 68.639561 
L 195.045018 60.999982 
L 195.339556 37.638371 
L 195.413191 41.292082 
L 195.781363 73.880238 
L 196.075902 94.91676 
L 196.296805 108.276796 
L 196.517709 106.025519 
L 196.959516 117.466435 
L 197.03315 117.392622 
L 197.180419 107.723204 
L 197.327688 96.208476 
L 197.401323 97.389474 
L 197.474957 96.835881 
L 197.695861 80.781693 
L 197.84313 68.676467 
L 197.916764 68.787185 
L 197.990399 68.713373 
L 198.064033 69.488403 
L 198.211302 81.076943 
L 198.284937 80.412632 
L 198.358571 77.275606 
L 198.432206 78.235167 
L 198.653109 84.952092 
L 198.947647 99.45622 
L 199.168551 106.099332 
L 199.463089 114.735378 
L 199.536723 114.587753 
L 199.683992 111.007854 
L 199.831261 114.919908 
L 199.97853 124.330984 
L 200.714876 208.329446 
L 201.009414 221.504952 
L 201.230317 199.324339 
L 201.303952 200.616055 
L 201.377586 204.380485 
L 201.451221 203.014957 
L 201.745759 175.519854 
L 202.482104 67.975249 
L 202.850276 59.302297 
L 203.144814 34.501346 
L 203.218449 35.793062 
L 204.102063 111.376915 
L 204.175697 111.709071 
L 204.322966 110.085199 
L 204.54387 115.067533 
L 204.764773 122.005895 
L 204.912042 121.784458 
L 205.280215 98.755002 
L 205.501119 85.431872 
L 205.722022 68.639561 
L 205.869291 67.458563 
L 206.090195 78.714947 
L 206.163829 77.718481 
L 206.311098 75.946984 
L 206.384733 76.27914 
L 206.900174 103.331368 
L 206.973809 103.146838 
L 207.047443 104.47546 
L 207.268347 115.104439 
L 207.341981 114.32941 
L 207.415616 114.735378 
L 207.783788 129.239506 
L 208.004692 159.90854 
L 208.520133 215.8214 
L 208.667402 222.132357 
L 208.741037 227.151597 
L 208.814671 224.457446 
L 209.035575 196.777812 
L 209.182844 203.863799 
L 209.256478 202.682801 
L 209.477382 182.901089 
L 209.919189 123.334517 
L 210.287362 66.572815 
L 210.360996 70.927744 
L 210.434631 69.894371 
L 210.655534 67.384751 
L 210.950072 37.712183 
L 211.023707 39.594398 
L 211.24461 63.472696 
L 211.318245 64.247725 
L 211.907321 111.04476 
L 211.980955 110.454261 
L 212.128224 104.659991 
L 212.643666 119.459368 
L 212.7173 118.979588 
L 212.938204 101.006279 
L 213.011838 101.633684 
L 213.085473 103.109931 
L 213.232742 89.196302 
L 213.453645 70.226526 
L 213.52728 71.518243 
L 213.600914 71.001556 
L 213.674549 71.702773 
L 213.969087 82.700815 
L 214.116356 80.744787 
L 214.779067 110.232824 
L 215.073605 120.234398 
L 215.220874 119.791524 
L 215.368143 118.758151 
L 215.515412 129.38713 
L 215.736315 149.427185 
L 216.104488 200.911304 
L 216.399026 222.3907 
L 216.47266 224.457446 
L 216.546295 223.460979 
L 216.693564 208.181822 
L 216.840833 195.559908 
L 216.988102 202.424458 
L 217.209005 190.946636 
L 218.092619 67.163314 
L 218.239888 68.45503 
L 218.313523 67.495469 
L 218.460792 59.818984 
L 218.681695 35.756156 
L 218.75533 36.937153 
L 219.638944 109.273263 
L 219.786213 109.01492 
L 219.859848 109.568513 
L 219.933482 109.051826 
L 220.007117 109.679231 
L 220.375289 120.12368 
L 220.522558 116.912842 
L 221.111634 81.888879 
L 221.332538 72.145648 
L 221.406172 71.813492 
L 221.627076 83.365126 
L 221.70071 82.368659 
L 221.774345 82.405565 
L 221.921614 85.099716 
L 222.142517 92.370233 
L 222.216152 91.595204 
L 222.731593 114.440128 
L 222.805228 114.440128 
L 222.878862 114.661565 
L 223.099766 118.57362 
L 223.1734 118.979588 
L 223.247035 120.824897 
L 223.467938 145.293693 
L 223.98338 216.301181 
L 224.057015 216.079744 
L 224.277918 224.974133 
L 224.425187 207.849666 
L 224.572456 197.700467 
L 224.719725 204.159048 
L 224.940629 186.407176 
L 225.087898 168.655304 
L 225.750608 66.351378 
L 225.824243 68.307405 
L 225.897877 71.924211 
L 225.971512 70.411057 
L 226.413319 38.930087 
L 226.486953 38.819368 
L 227.296933 108.092265 
L 227.444202 112.336476 
L 227.591471 107.612485 
L 227.665105 105.914801 
L 227.886009 117.909309 
L 228.033278 113.000787 
L 228.106912 113.55438 
L 228.180547 115.473501 
L 228.254181 115.067533 
L 228.695989 95.248915 
L 228.916892 72.773053 
L 228.990527 72.440897 
L 229.064161 74.470737 
L 229.137796 73.215927 
L 229.21143 69.894371 
L 229.285065 71.924211 
L 229.432334 81.446005 
L 229.505968 80.191195 
L 229.579603 81.335286 
L 229.874141 92.850014 
L 229.947775 91.964265 
L 230.02141 92.148796 
L 230.463217 112.963881 
L 230.610486 117.687872 
L 230.68412 117.872403 
L 230.831389 119.82843 
L 231.052293 132.487249 
L 231.273196 157.731076 
L 231.788638 222.243076 
L 231.935907 223.055011 
L 232.009541 222.095451 
L 232.15681 212.167689 
L 232.304079 197.663561 
L 232.451348 200.726773 
L 232.745886 182.679652 
L 233.482232 68.233593 
L 233.77677 66.166847 
L 233.924039 59.339204 
L 234.218577 37.232403 
L 234.43948 54.615213 
L 235.102191 109.310169 
L 235.175825 108.23989 
L 235.396729 105.398114 
L 235.470363 107.354142 
L 235.617632 115.58422 
L 235.691267 113.480568 
L 235.764901 113.923442 
L 235.838536 116.986654 
L 235.91217 116.137812 
L 236.206708 102.371808 
L 236.353977 99.493126 
L 236.648515 72.477803 
L 236.72215 72.588522 
L 236.869419 71.001556 
L 236.943053 71.149181 
L 237.163957 81.851973 
L 237.237591 82.036503 
L 237.605764 95.175103 
L 237.679398 93.920293 
L 237.753033 94.732229 
L 238.19484 118.056934 
L 238.415744 120.492741 
L 238.489378 119.237931 
L 238.563013 120.197492 
L 238.931185 149.759341 
L 239.446627 217.592897 
L 239.593896 223.018105 
L 239.66753 223.460979 
L 239.741165 221.652577 
L 240.035703 194.489629 
L 240.182972 197.146874 
L 240.330241 188.806078 
L 240.624779 153.265428 
L 240.992951 94.806041 
L 241.213855 62.919103 
L 241.287489 65.17038 
L 241.361124 64.6906 
L 241.434758 63.694133 
L 241.508393 65.94541 
L 241.582027 65.133474 
L 241.876565 35.018032 
L 241.9502 35.682343 
L 242.907449 108.978014 
L 242.981083 109.420888 
L 243.128352 108.830389 
L 243.570159 117.946215 
L 244.085601 99.936 
L 244.380139 71.075368 
L 244.453773 70.374151 
L 244.601042 67.126407 
L 245.116484 81.150755 
L 245.190118 83.03297 
L 245.263753 82.663908 
L 245.337387 81.888879 
L 245.411022 83.291314 
L 245.926463 111.819789 
L 246.294636 124.146453 
L 246.589174 149.870059 
L 247.104616 221.13589 
L 247.325519 228.775469 
L 247.399154 227.373034 
L 247.693692 195.744439 
L 247.840961 196.445657 
L 248.135499 173.637638 
L 248.871844 60.15114 
L 248.945478 61.258325 
L 249.019113 61.88573 
L 249.166382 61.40595 
L 249.240016 61.553574 
L 249.608189 38.302682 
L 249.976361 65.908503 
L 250.344534 101.19081 
L 250.491803 107.095799 
L 250.565437 106.431487 
L 250.712706 105.213584 
L 250.786341 105.398114 
L 251.007244 108.608952 
L 251.080879 107.907735 
L 251.154513 108.276796 
L 251.301782 112.410288 
L 251.59632 95.544165 
L 251.669955 96.762069 
L 251.74359 95.654883 
L 252.111762 66.572815 
L 252.185397 67.015689 
L 252.259031 67.569281 
L 252.921742 92.222609 
L 252.995376 92.59167 
L 253.658087 116.174719 
L 253.805356 120.382023 
L 253.952625 120.677272 
L 254.099894 129.534755 
L 254.247163 143.263854 
L 254.68897 210.32238 
L 254.836239 220.065611 
L 254.983508 227.889721 
L 255.057142 225.9706 
L 255.204411 207.81276 
L 255.35168 193.862224 
L 255.498949 198.254059 
L 255.867122 165.813529 
L 256.603467 60.557108 
L 256.677102 62.254792 
L 256.824371 59.966609 
L 256.898005 62.845291 
L 256.97164 61.553574 
L 257.192543 33.763222 
L 257.266178 35.091844 
L 258.223426 112.041227 
L 258.297061 111.967414 
L 258.44433 107.575579 
L 258.665233 113.997254 
L 258.738868 113.148412 
L 258.812502 113.296037 
L 258.959771 116.617593 
L 259.033406 113.517474 
L 259.180675 97.204943 
L 259.254309 97.42638 
L 259.327944 99.677657 
L 259.401578 97.795442 
L 259.91702 63.694133 
L 259.990654 65.207286 
L 260.211558 80.449538 
L 260.285192 79.859039 
L 260.358827 78.272073 
L 260.432461 79.305446 
L 260.726999 91.742828 
L 261.242441 116.064 
L 261.38971 128.13232 
L 261.463345 127.209666 
L 261.536979 128.021602 
L 261.757883 139.905391 
L 262.641497 234.864989 
L 262.715131 230.510059 
L 262.936035 194.120568 
L 263.009669 194.895597 
L 263.083304 195.080128 
L 263.451476 169.135085 
L 264.114187 62.291698 
L 264.187821 62.586947 
L 264.261456 61.922636 
L 264.33509 58.711799 
L 264.408725 58.822517 
L 264.555994 65.281098 
L 264.850532 39.18843 
L 264.924166 42.104018 
L 265.660512 106.394581 
L 265.807781 112.29957 
L 265.95505 109.051826 
L 266.028684 105.988613 
L 266.102319 106.025519 
L 266.249588 111.561446 
L 266.396857 107.686297 
L 266.544126 112.151945 
L 266.61776 111.266197 
L 266.838664 100.969373 
L 266.985933 98.312128 
L 267.133202 87.424805 
L 267.354105 71.333712 
L 267.575009 66.314471 
L 268.164085 92.776201 
L 268.237719 92.960732 
L 268.311354 90.598737 
L 268.384988 91.299954 
L 268.605892 107.058892 
L 268.679526 106.136238 
L 268.826795 111.893602 
L 269.489506 150.866526 
L 270.004947 222.021638 
L 270.225851 235.5293 
L 270.299486 232.576805 
L 270.594024 201.058929 
L 270.667658 200.542243 
L 270.962196 182.421309 
L 271.993079 56.202178 
L 272.140348 58.60108 
L 272.434886 39.372961 
L 272.508521 41.9933 
L 273.392135 114.144879 
L 273.465769 114.883002 
L 273.539404 114.735378 
L 273.686673 111.155478 
L 273.760307 111.487634 
L 273.833942 112.705538 
L 273.907576 112.447195 
L 273.981211 111.561446 
L 274.12848 114.440128 
L 274.202114 113.517474 
L 274.717556 91.004705 
L 274.93846 70.152714 
L 275.085729 63.62032 
L 275.159363 64.100101 
L 275.453901 76.685108 
L 275.674805 82.811533 
L 275.822074 88.864146 
L 275.895708 88.753428 
L 276.190246 104.844522 
L 276.263881 102.113465 
L 276.337515 100.268156 
L 277.07386 152.748741 
L 277.589302 223.497886 
L 277.810205 239.884229 
L 278.841088 143.079323 
L 279.35653 65.059661 
L 279.503799 56.534334 
L 279.651068 61.258325 
L 280.019241 35.793062 
L 280.092875 41.107551 
L 280.82922 102.371808 
L 280.976489 110.897135 
L 281.050124 110.454261 
L 281.197393 111.819789 
L 281.344662 111.598352 
L 281.418296 113.960348 
L 281.491931 113.886535 
L 281.6392 109.863762 
L 281.712834 111.118572 
L 281.786469 110.085199 
L 282.007372 97.832348 
L 282.081007 98.422847 
L 282.154641 99.16097 
L 282.228276 96.577538 
L 282.670083 61.073794 
L 282.743717 61.590481 
L 283.11189 79.489977 
L 283.259159 84.140156 
L 283.406428 92.370233 
L 283.480062 91.595204 
L 283.553697 93.3667 
L 283.7746 105.471927 
L 283.848235 105.029053 
L 283.921869 105.176677 
L 284.069138 117.171185 
L 284.216408 129.350224 
L 284.290042 130.309785 
L 284.658215 155.479799 
L 285.173656 223.055011 
L 285.320925 234.606645 
L 285.468194 229.771936 
L 285.983636 185.705959 
L 286.05727 185.041648 
L 286.130905 182.236778 
L 286.940884 63.767945 
L 287.382691 52.511561 
L 287.52996 36.641904 
L 287.603595 37.269309 
L 288.560843 111.118572 
L 288.708112 113.923442 
L 288.855382 111.376915 
L 289.002651 115.547314 
L 289.14992 112.225757 
L 289.223554 113.443661 
L 289.297189 115.141346 
L 289.886265 87.498618 
L 290.107168 68.049062 
L 290.254437 63.952476 
L 290.328072 64.137007 
L 290.548975 77.423231 
L 290.62261 76.352952 
L 290.696244 75.836265 
L 290.843513 82.110316 
L 291.064417 88.790334 
L 291.138051 91.742828 
L 291.28532 105.361208 
L 291.358955 104.992146 
L 291.432589 101.301529 
L 291.506224 102.667057 
L 291.874396 133.92659 
L 292.168934 154.852394 
L 292.610741 217.998865 
L 292.905279 239.884229 
L 292.978914 238.924668 
L 293.420721 193.271725 
L 293.788894 162.861034 
L 294.451604 61.40595 
L 294.525239 60.778545 
L 294.672508 53.987808 
L 294.819777 60.999982 
L 294.967046 47.603039 
L 295.114315 39.668211 
L 295.261584 48.894755 
L 295.997929 110.343542 
L 296.218832 115.325876 
L 296.366101 110.454261 
L 296.439736 111.303103 
L 296.51337 112.705538 
L 296.660639 110.085199 
L 296.881543 107.870828 
L 297.102446 95.691789 
L 297.176081 96.060851 
L 297.249715 98.385941 
L 297.32335 97.500192 
L 297.765157 62.291698 
L 297.838791 62.328604 
L 298.13333 78.973291 
L 298.206964 78.751854 
L 298.280599 78.567323 
L 298.869675 101.818215 
L 298.943309 102.076558 
L 299.016944 104.881428 
L 299.532385 146.068723 
L 299.753289 169.171991 
L 300.342365 240.622352 
L 300.415999 243.501034 
L 300.489634 242.57838 
L 300.857806 202.166114 
L 301.225979 169.799396 
L 301.74142 87.646243 
L 301.962324 58.416549 
L 302.035958 59.302297 
L 302.183227 55.759304 
L 302.330496 58.047487 
L 302.625034 36.641904 
L 302.698669 39.336055 
L 303.140476 79.674508 
L 303.582283 115.362783 
L 303.655918 113.775817 
L 303.803187 111.561446 
L 303.950456 115.510407 
L 304.097725 117.687872 
L 304.83407 96.208476 
L 305.054973 69.41459 
L 305.128608 69.746746 
L 305.202242 68.860998 
L 305.275877 65.65016 
L 305.349511 66.535908 
L 305.570415 73.068302 
L 305.717684 77.939918 
L 305.864953 83.881812 
L 306.012222 95.39654 
L 306.085856 94.953666 
L 306.159491 94.400073 
L 307.043105 148.172375 
L 307.853085 243.205785 
L 307.926719 240.585446 
L 308.000354 237.190078 
L 308.221257 202.535176 
L 308.294892 204.52811 
L 308.368526 201.907771 
L 308.883968 144.223414 
L 309.178506 96.798975 
L 309.399409 56.608146 
L 309.473044 56.940302 
L 309.546678 57.82605 
L 309.693947 55.353336 
L 309.767582 57.493895 
L 309.841216 54.430682 
L 310.06212 36.088311 
L 310.135754 37.269309 
L 310.798465 96.9466 
L 311.019368 117.724778 
L 311.313906 111.340009 
L 311.387541 111.967414 
L 311.53481 116.765217 
L 311.829348 111.04476 
L 312.050252 101.19081 
L 312.123886 100.563405 
L 312.34479 92.813108 
L 312.639328 66.056128 
L 312.786597 61.88573 
L 313.081135 72.736146 
L 313.302038 78.308979 
L 313.743845 99.493126 
L 313.81748 100.231249 
L 313.891114 99.16097 
L 313.964749 101.412247 
L 314.921997 199.065995 
L 315.216535 230.436247 
L 315.363804 240.437822 
L 315.437439 239.77351 
L 315.511073 234.717364 
L 315.731977 201.501803 
L 315.805611 201.575616 
L 315.95288 189.839451 
L 316.173784 172.456641 
L 316.910129 57.82605 
L 317.131033 52.917529 
L 317.204667 53.397309 
L 317.278302 54.615213 
L 317.351936 51.293657 
L 317.57284 32.471506 
L 317.720109 43.506453 
L 318.161916 85.874746 
L 318.382819 104.143304 
L 318.603723 116.174719 
L 318.677357 115.28897 
L 318.824626 110.823323 
L 319.04553 116.064 
L 319.192799 114.440128 
L 319.560971 99.677657 
L 319.634606 100.674124 
L 319.70824 103.921867 
L 319.781875 102.777776 
L 320.150047 63.657227 
L 320.223682 62.882197 
L 320.297316 63.841757 
L 320.51822 75.319579 
L 320.591854 75.282673 
L 320.665489 73.621895 
L 320.739123 74.581455 
L 321.033661 88.901053 
L 321.107296 88.052211 
L 321.18093 88.82724 
L 321.549103 114.624659 
L 321.770007 130.715753 
L 322.211814 175.852009 
L 322.727255 244.940375 
L 322.80089 247.191652 
L 322.874524 244.571314 
L 323.905407 129.571661 
L 324.347214 52.290124 
L 324.420849 52.991341 
L 324.494483 54.246151 
L 324.568118 54.098526 
L 324.715387 52.659185 
L 325.009925 32.4346 
L 325.525366 77.644668 
L 325.893539 119.311744 
L 325.967174 119.016494 
L 326.261712 113.369849 
L 326.482615 119.164119 
L 326.55625 119.090307 
L 326.998057 99.050252 
L 327.145326 102.297995 
L 327.439864 70.632494 
L 327.513498 62.144073 
L 327.587133 62.771478 
L 327.881671 75.20886 
L 327.955305 75.356485 
L 328.02894 72.256366 
L 328.102574 73.363551 
L 328.323478 86.834307 
L 328.470747 97.094224 
L 328.544381 94.62151 
L 328.69165 99.677657 
L 328.838919 95.802508 
L 329.280726 137.543396 
L 329.354361 138.502957 
L 329.648899 176.737757 
L 329.943437 220.36086 
L 330.311609 250.365584 
L 330.532513 221.468046 
L 330.900686 186.776238 
L 331.195224 154.741675 
L 331.637031 77.054169 
L 331.857934 52.253217 
L 331.931569 51.146032 
L 332.005203 47.270883 
L 332.078838 47.603039 
L 332.152472 51.330563 
L 332.226107 50.592439 
L 332.44701 34.427533 
L 332.520645 34.538252 
L 333.404259 113.775817 
L 333.551528 115.842563 
L 333.625162 113.812723 
L 333.698797 114.255597 
L 333.846066 119.0534 
L 333.993335 116.875936 
L 334.287873 106.394581 
L 334.361507 101.781309 
L 334.435142 102.851588 
L 334.508776 106.136238 
L 334.582411 105.176677 
L 334.72968 91.041611 
L 334.950583 66.277565 
L 335.097852 68.676467 
L 335.245122 72.293272 
L 335.392391 70.078902 
L 335.613294 72.736146 
L 335.834198 92.850014 
L 335.907832 92.628577 
L 335.981467 90.893986 
L 336.20237 97.020412 
L 336.570543 134.812339 
L 336.644177 134.443277 
L 336.717812 133.040842 
L 336.865081 151.346307 
L 337.233253 209.215195 
L 337.67506 247.154746 
L 337.748695 245.198719 
L 338.926847 99.788375 
L 339.221385 47.935195 
L 339.295019 48.488787 
L 339.368654 47.639945 
L 339.442288 48.673318 
L 339.515923 51.884156 
L 339.589557 50.592439 
L 339.884096 30.40476 
L 339.95773 33.800128 
L 340.325903 69.488403 
L 340.841344 117.614059 
L 340.914979 115.990188 
L 341.135882 111.782883 
L 341.356786 118.57362 
L 341.724958 100.120531 
L 341.798593 97.795442 
L 341.945862 100.268156 
L 342.093131 97.241849 
L 342.314034 63.878664 
L 342.461303 64.063195 
L 342.534938 62.956009 
L 342.682207 69.672934 
L 342.829476 72.330178 
L 342.90311 72.514709 
L 342.976745 73.95405 
L 343.418552 94.104824 
L 343.492186 93.071451 
L 343.565821 93.514325 
L 343.860359 116.912842 
L 344.52307 181.83081 
L 344.891242 232.576805 
L 345.112146 246.674966 
L 345.18578 241.692632 
L 345.480318 206.705574 
L 345.701222 190.393043 
L 346.290298 107.28033 
L 346.584836 51.662719 
L 346.65847 51.994874 
L 346.805739 47.418508 
L 346.879374 48.488787 
L 346.953008 48.082819 
L 347.247546 25.385519 
L 347.321181 25.976018 
L 348.204795 107.723204 
L 348.572967 114.255597 
L 348.720236 118.647432 
L 349.088409 101.301529 
L 349.162044 99.050252 
L 349.235678 99.382407 
L 349.309313 99.271689 
L 349.382947 98.570471 
L 349.456582 96.023945 
L 349.824754 68.196686 
L 349.972023 60.483295 
L 350.41383 74.138581 
L 350.708368 88.568897 
L 350.782003 89.159396 
L 351.150175 107.206517 
L 351.960155 180.09622 
L 352.254693 228.517126 
L 352.549231 247.265465 
L 353.727383 103.442087 
L 354.021921 48.045913 
L 354.095556 51.736531 
L 354.16919 50.407908 
L 354.242825 45.019606 
L 354.316459 45.204137 
L 354.390094 48.525693 
L 354.463728 45.093419 
L 354.684632 24.942645 
L 354.758266 26.82486 
L 355.64188 109.01492 
L 355.715515 109.568513 
L 355.862784 106.763643 
L 356.083687 120.049867 
L 356.157322 119.939149 
L 356.672763 97.684723 
L 356.820032 100.895561 
L 356.967301 89.307021 
L 357.188205 65.133474 
L 357.409108 63.509602 
L 357.630012 67.163314 
L 357.703646 65.576348 
L 357.777281 65.908503 
L 358.145453 92.517858 
L 358.219088 88.790334 
L 358.292722 85.025904 
L 358.366357 86.391432 
L 358.587261 105.176677 
L 358.808164 126.914416 
L 358.955433 133.077748 
L 359.323606 188.252485 
L 359.839047 257.193227 
L 359.912682 259.370691 
L 360.501758 196.113501 
L 361.017199 125.733419 
L 361.532641 42.546892 
L 361.606275 43.506453 
L 361.753544 48.894755 
L 362.048082 27.526078 
L 362.121717 28.522545 
L 363.078966 115.58422 
L 363.226235 111.709071 
L 363.373504 114.661565 
L 363.594407 120.418929 
L 363.96258 97.610911 
L 364.036214 97.795442 
L 364.183483 102.556339 
L 364.330752 91.964265 
L 364.62529 63.472696 
L 364.993463 71.038462 
L 365.067097 67.753812 
L 365.140732 68.897904 
L 365.582539 95.950133 
L 365.803442 96.356101 
L 366.171615 131.564595 
L 366.613422 175.335323 
L 367.055229 242.689098 
L 367.202498 251.36205 
L 367.276132 258.005162 
L 367.349767 254.203826 
L 367.71794 211.09741 
L 367.791574 208.77232 
L 368.086112 174.0067 
L 368.822457 50.334096 
L 368.896092 50.666252 
L 368.969726 47.455414 
L 369.043361 47.566133 
L 369.116995 49.706691 
L 369.264264 37.306215 
L 369.485168 23.429492 
L 369.779706 52.216311 
L 370.368782 110.048293 
L 370.66332 113.775817 
L 370.884223 123.186892 
L 370.957858 123.002362 
L 371.399665 96.319195 
L 371.473299 97.315661 
L 371.546934 99.899094 
L 371.620568 99.603844 
L 371.988741 63.472696 
L 372.062375 63.804851 
L 372.209644 69.119341 
L 372.283279 68.491936 
L 372.430548 66.240659 
L 372.577817 72.145648 
L 372.872355 99.640751 
L 372.94599 96.393007 
L 373.093259 93.477419 
L 373.166893 95.248915 
L 373.6087 139.314892 
L 373.682335 138.835112 
L 373.755969 140.01611 
L 374.050507 187.994142 
L 374.345045 225.490819 
L 374.639583 259.001629 
L 374.713218 255.495542 
L 375.228659 199.914838 
L 375.449563 175.704384 
L 375.744101 126.471542 
L 376.333177 39.409867 
L 376.480446 51.588906 
L 376.55408 50.444815 
L 376.848618 20.735341 
L 376.922253 22.469931 
L 377.732233 114.32941 
L 377.805867 117.097373 
L 378.026771 113.665098 
L 378.100405 112.963881 
L 378.321309 121.37849 
L 378.394943 120.197492 
L 378.615847 106.468394 
L 378.83675 95.248915 
L 378.910385 95.765602 
L 378.984019 98.68119 
L 379.057654 97.500192 
L 379.425826 61.147606 
L 379.64673 68.196686 
L 379.793999 67.274032 
L 379.867633 66.203753 
L 379.941268 66.462096 
L 380.383075 93.883387 
L 380.456709 92.628577 
L 380.530344 93.255982 
L 380.824882 122.6333 
L 381.487592 200.505336 
L 381.9294 253.281172 
L 382.003034 259.850471 
L 382.076669 257.45157 
L 383.254821 103.146838 
L 383.622993 42.879048 
L 383.696628 39.889648 
L 383.843897 48.525693 
L 383.917531 48.156632 
L 384.212069 19.296 
L 384.285704 23.650929 
L 384.727511 71.850398 
L 385.169318 113.628192 
L 385.242952 113.148412 
L 385.316587 112.484101 
L 385.390221 112.963881 
L 385.684759 121.304677 
L 386.126566 93.108357 
L 386.200201 95.39654 
L 386.273835 96.872787 
L 386.421105 91.521391 
L 386.862912 61.184513 
L 386.936546 61.701199 
L 387.15745 67.274032 
L 387.231084 68.196686 
L 387.378353 76.869638 
L 387.599257 93.994105 
L 387.672891 93.920293 
L 387.746526 92.554764 
L 387.82016 93.772668 
L 388.041064 109.937574 
L 388.851043 200.025556 
L 389.366485 260.035002 
L 389.440119 261.216 
L 389.808292 209.990224 
L 389.955561 203.863799 
L 390.471002 129.018069 
L 390.986444 42.288549 
L 391.060079 40.701584 
L 391.133713 41.734957 
L 391.280982 46.643478 
L 391.57552 20.107936 
L 391.649155 21.473465 
L 392.532769 114.03416 
L 392.606403 115.731844 
L 392.753672 111.819789 
L 393.04821 122.854737 
L 393.04821 122.854737 
" clip-path="url(#pcdcd47543c)" style="fill: none; stroke: #1f77b4; stroke-width: 1.5; stroke-linecap: square"/>
   </g>
   <g id="patch_3">
    <path d="M 52.160938 273.312 
L 52.160938 7.2 
" style="fill: none; stroke: #000000; stroke-width: 0.8; stroke-linejoin: miter; stroke-linecap: square"/>
   </g>
   <g id="patch_4">
    <path d="M 409.280938 273.312 
L 409.280938 7.2 
" style="fill: none; stroke: #000000; stroke-width: 0.8; stroke-linejoin: miter; stroke-linecap: square"/>
   </g>
   <g id="patch_5">
    <path d="M 52.160937 273.312 
L 409.280937 273.312 
" style="fill: none; stroke: #000000; stroke-width: 0.8; stroke-linejoin: miter; stroke-linecap: square"/>
   </g>
   <g id="patch_6">
    <path d="M 52.160937 7.2 
L 409.280937 7.2 
" style="fill: none; stroke: #000000; stroke-width: 0.8; stroke-linejoin: miter; stroke-linecap: square"/>
   </g>
  </g>
 </g>
 <defs>
  <clipPath id="pcdcd47543c">
   <rect x="52.160938" y="7.2" width="357.12" height="266.112"/>
  </clipPath>
 </defs>
</svg>
