<?xml version="1.0" encoding="utf-8" standalone="no"?>
<!DOCTYPE svg PUBLIC "-//W3C//DTD SVG 1.1//EN"
  "http://www.w3.org/Graphics/SVG/1.1/DTD/svg11.dtd">
<!-- Created with matplotlib (https://matplotlib.org/) -->
<svg height="567.274375pt" version="1.1" viewBox="0 0 856.453125 567.274375" width="856.453125pt" xmlns="http://www.w3.org/2000/svg" xmlns:xlink="http://www.w3.org/1999/xlink">
 <metadata>
  <rdf:RDF xmlns:cc="http://creativecommons.org/ns#" xmlns:dc="http://purl.org/dc/elements/1.1/" xmlns:rdf="http://www.w3.org/1999/02/22-rdf-syntax-ns#">
   <cc:Work>
    <dc:type rdf:resource="http://purl.org/dc/dcmitype/StillImage"/>
    <dc:date>2021-10-04T08:44:51.228639</dc:date>
    <dc:format>image/svg+xml</dc:format>
    <dc:creator>
     <cc:Agent>
      <dc:title>Matplotlib v3.3.4, https://matplotlib.org/</dc:title>
     </cc:Agent>
    </dc:creator>
   </cc:Work>
  </rdf:RDF>
 </metadata>
 <defs>
  <style type="text/css">*{stroke-linecap:butt;stroke-linejoin:round;}</style>
 </defs>
 <g id="figure_1">
  <g id="patch_1">
   <path d="M 0 567.274375 
L 856.453125 567.274375 
L 856.453125 0 
L 0 0 
z
" style="fill:none;"/>
  </g>
  <g id="axes_1">
   <g id="patch_2">
    <path d="M 40.603125 247.118125 
L 276.98557 247.118125 
L 276.98557 22.318125 
L 40.603125 22.318125 
z
" style="fill:#ffffff;"/>
   </g>
   <g id="patch_3">
    <path clip-path="url(#p4408893aed)" d="M 51.347782 247.118125 
L 65.67399 247.118125 
L 65.67399 231.259218 
L 51.347782 231.259218 
z
" style="fill:#1f77b4;"/>
   </g>
   <g id="patch_4">
    <path clip-path="url(#p4408893aed)" d="M 65.67399 247.118125 
L 80.000199 247.118125 
L 80.000199 191.611952 
L 65.67399 191.611952 
z
" style="fill:#1f77b4;"/>
   </g>
   <g id="patch_5">
    <path clip-path="url(#p4408893aed)" d="M 80.000199 247.118125 
L 94.326408 247.118125 
L 94.326408 175.753046 
L 80.000199 175.753046 
z
" style="fill:#1f77b4;"/>
   </g>
   <g id="patch_6">
    <path clip-path="url(#p4408893aed)" d="M 94.326408 247.118125 
L 108.652617 247.118125 
L 108.652617 56.811247 
L 94.326408 56.811247 
z
" style="fill:#1f77b4;"/>
   </g>
   <g id="patch_7">
    <path clip-path="url(#p4408893aed)" d="M 108.652617 247.118125 
L 122.978826 247.118125 
L 122.978826 144.035233 
L 108.652617 144.035233 
z
" style="fill:#1f77b4;"/>
   </g>
   <g id="patch_8">
    <path clip-path="url(#p4408893aed)" d="M 122.978826 247.118125 
L 137.305035 247.118125 
L 137.305035 88.52906 
L 122.978826 88.52906 
z
" style="fill:#1f77b4;"/>
   </g>
   <g id="patch_9">
    <path clip-path="url(#p4408893aed)" d="M 137.305035 247.118125 
L 151.631243 247.118125 
L 151.631243 96.458513 
L 137.305035 96.458513 
z
" style="fill:#1f77b4;"/>
   </g>
   <g id="patch_10">
    <path clip-path="url(#p4408893aed)" d="M 151.631243 247.118125 
L 165.957452 247.118125 
L 165.957452 159.894139 
L 151.631243 159.894139 
z
" style="fill:#1f77b4;"/>
   </g>
   <g id="patch_11">
    <path clip-path="url(#p4408893aed)" d="M 165.957452 247.118125 
L 180.283661 247.118125 
L 180.283661 33.022887 
L 165.957452 33.022887 
z
" style="fill:#1f77b4;"/>
   </g>
   <g id="patch_12">
    <path clip-path="url(#p4408893aed)" d="M 180.283661 247.118125 
L 194.60987 247.118125 
L 194.60987 112.31742 
L 180.283661 112.31742 
z
" style="fill:#1f77b4;"/>
   </g>
   <g id="patch_13">
    <path clip-path="url(#p4408893aed)" d="M 194.60987 247.118125 
L 208.936079 247.118125 
L 208.936079 56.811247 
L 194.60987 56.811247 
z
" style="fill:#1f77b4;"/>
   </g>
   <g id="patch_14">
    <path clip-path="url(#p4408893aed)" d="M 208.936079 247.118125 
L 223.262287 247.118125 
L 223.262287 183.682499 
L 208.936079 183.682499 
z
" style="fill:#1f77b4;"/>
   </g>
   <g id="patch_15">
    <path clip-path="url(#p4408893aed)" d="M 223.262287 247.118125 
L 237.588496 247.118125 
L 237.588496 215.400312 
L 223.262287 215.400312 
z
" style="fill:#1f77b4;"/>
   </g>
   <g id="patch_16">
    <path clip-path="url(#p4408893aed)" d="M 237.588496 247.118125 
L 251.914705 247.118125 
L 251.914705 191.611952 
L 237.588496 191.611952 
z
" style="fill:#1f77b4;"/>
   </g>
   <g id="patch_17">
    <path clip-path="url(#p4408893aed)" d="M 251.914705 247.118125 
L 266.240914 247.118125 
L 266.240914 223.329765 
L 251.914705 223.329765 
z
" style="fill:#1f77b4;"/>
   </g>
   <g id="matplotlib.axis_1">
    <g id="xtick_1">
     <g id="line2d_1">
      <defs>
       <path d="M 0 0 
L 0 3.5 
" id="m4392af8e6e" style="stroke:#000000;stroke-width:0.8;"/>
      </defs>
      <g>
       <use style="stroke:#000000;stroke-width:0.8;" x="51.347782" xlink:href="#m4392af8e6e" y="247.118125"/>
      </g>
     </g>
     <g id="text_1">
      <!-- 290 -->
      <g transform="translate(41.804032 261.716562)scale(0.1 -0.1)">
       <defs>
        <path d="M 19.1875 8.296875 
L 53.609375 8.296875 
L 53.609375 0 
L 7.328125 0 
L 7.328125 8.296875 
Q 12.9375 14.109375 22.625 23.890625 
Q 32.328125 33.6875 34.8125 36.53125 
Q 39.546875 41.84375 41.421875 45.53125 
Q 43.3125 49.21875 43.3125 52.78125 
Q 43.3125 58.59375 39.234375 62.25 
Q 35.15625 65.921875 28.609375 65.921875 
Q 23.96875 65.921875 18.8125 64.3125 
Q 13.671875 62.703125 7.8125 59.421875 
L 7.8125 69.390625 
Q 13.765625 71.78125 18.9375 73 
Q 24.125 74.21875 28.421875 74.21875 
Q 39.75 74.21875 46.484375 68.546875 
Q 53.21875 62.890625 53.21875 53.421875 
Q 53.21875 48.921875 51.53125 44.890625 
Q 49.859375 40.875 45.40625 35.40625 
Q 44.1875 33.984375 37.640625 27.21875 
Q 31.109375 20.453125 19.1875 8.296875 
z
" id="DejaVuSans-50"/>
        <path d="M 10.984375 1.515625 
L 10.984375 10.5 
Q 14.703125 8.734375 18.5 7.8125 
Q 22.3125 6.890625 25.984375 6.890625 
Q 35.75 6.890625 40.890625 13.453125 
Q 46.046875 20.015625 46.78125 33.40625 
Q 43.953125 29.203125 39.59375 26.953125 
Q 35.25 24.703125 29.984375 24.703125 
Q 19.046875 24.703125 12.671875 31.3125 
Q 6.296875 37.9375 6.296875 49.421875 
Q 6.296875 60.640625 12.9375 67.421875 
Q 19.578125 74.21875 30.609375 74.21875 
Q 43.265625 74.21875 49.921875 64.515625 
Q 56.59375 54.828125 56.59375 36.375 
Q 56.59375 19.140625 48.40625 8.859375 
Q 40.234375 -1.421875 26.421875 -1.421875 
Q 22.703125 -1.421875 18.890625 -0.6875 
Q 15.09375 0.046875 10.984375 1.515625 
z
M 30.609375 32.421875 
Q 37.25 32.421875 41.125 36.953125 
Q 45.015625 41.5 45.015625 49.421875 
Q 45.015625 57.28125 41.125 61.84375 
Q 37.25 66.40625 30.609375 66.40625 
Q 23.96875 66.40625 20.09375 61.84375 
Q 16.21875 57.28125 16.21875 49.421875 
Q 16.21875 41.5 20.09375 36.953125 
Q 23.96875 32.421875 30.609375 32.421875 
z
" id="DejaVuSans-57"/>
        <path d="M 31.78125 66.40625 
Q 24.171875 66.40625 20.328125 58.90625 
Q 16.5 51.421875 16.5 36.375 
Q 16.5 21.390625 20.328125 13.890625 
Q 24.171875 6.390625 31.78125 6.390625 
Q 39.453125 6.390625 43.28125 13.890625 
Q 47.125 21.390625 47.125 36.375 
Q 47.125 51.421875 43.28125 58.90625 
Q 39.453125 66.40625 31.78125 66.40625 
z
M 31.78125 74.21875 
Q 44.046875 74.21875 50.515625 64.515625 
Q 56.984375 54.828125 56.984375 36.375 
Q 56.984375 17.96875 50.515625 8.265625 
Q 44.046875 -1.421875 31.78125 -1.421875 
Q 19.53125 -1.421875 13.0625 8.265625 
Q 6.59375 17.96875 6.59375 36.375 
Q 6.59375 54.828125 13.0625 64.515625 
Q 19.53125 74.21875 31.78125 74.21875 
z
" id="DejaVuSans-48"/>
       </defs>
       <use xlink:href="#DejaVuSans-50"/>
       <use x="63.623047" xlink:href="#DejaVuSans-57"/>
       <use x="127.246094" xlink:href="#DejaVuSans-48"/>
      </g>
     </g>
    </g>
    <g id="xtick_2">
     <g id="line2d_2">
      <g>
       <use style="stroke:#000000;stroke-width:0.8;" x="106.448585" xlink:href="#m4392af8e6e" y="247.118125"/>
      </g>
     </g>
     <g id="text_2">
      <!-- 300 -->
      <g transform="translate(96.904835 261.716562)scale(0.1 -0.1)">
       <defs>
        <path d="M 40.578125 39.3125 
Q 47.65625 37.796875 51.625 33 
Q 55.609375 28.21875 55.609375 21.1875 
Q 55.609375 10.40625 48.1875 4.484375 
Q 40.765625 -1.421875 27.09375 -1.421875 
Q 22.515625 -1.421875 17.65625 -0.515625 
Q 12.796875 0.390625 7.625 2.203125 
L 7.625 11.71875 
Q 11.71875 9.328125 16.59375 8.109375 
Q 21.484375 6.890625 26.8125 6.890625 
Q 36.078125 6.890625 40.9375 10.546875 
Q 45.796875 14.203125 45.796875 21.1875 
Q 45.796875 27.640625 41.28125 31.265625 
Q 36.765625 34.90625 28.71875 34.90625 
L 20.21875 34.90625 
L 20.21875 43.015625 
L 29.109375 43.015625 
Q 36.375 43.015625 40.234375 45.921875 
Q 44.09375 48.828125 44.09375 54.296875 
Q 44.09375 59.90625 40.109375 62.90625 
Q 36.140625 65.921875 28.71875 65.921875 
Q 24.65625 65.921875 20.015625 65.03125 
Q 15.375 64.15625 9.8125 62.3125 
L 9.8125 71.09375 
Q 15.4375 72.65625 20.34375 73.4375 
Q 25.25 74.21875 29.59375 74.21875 
Q 40.828125 74.21875 47.359375 69.109375 
Q 53.90625 64.015625 53.90625 55.328125 
Q 53.90625 49.265625 50.4375 45.09375 
Q 46.96875 40.921875 40.578125 39.3125 
z
" id="DejaVuSans-51"/>
       </defs>
       <use xlink:href="#DejaVuSans-51"/>
       <use x="63.623047" xlink:href="#DejaVuSans-48"/>
       <use x="127.246094" xlink:href="#DejaVuSans-48"/>
      </g>
     </g>
    </g>
    <g id="xtick_3">
     <g id="line2d_3">
      <g>
       <use style="stroke:#000000;stroke-width:0.8;" x="161.549388" xlink:href="#m4392af8e6e" y="247.118125"/>
      </g>
     </g>
     <g id="text_3">
      <!-- 310 -->
      <g transform="translate(152.005638 261.716562)scale(0.1 -0.1)">
       <defs>
        <path d="M 12.40625 8.296875 
L 28.515625 8.296875 
L 28.515625 63.921875 
L 10.984375 60.40625 
L 10.984375 69.390625 
L 28.421875 72.90625 
L 38.28125 72.90625 
L 38.28125 8.296875 
L 54.390625 8.296875 
L 54.390625 0 
L 12.40625 0 
z
" id="DejaVuSans-49"/>
       </defs>
       <use xlink:href="#DejaVuSans-51"/>
       <use x="63.623047" xlink:href="#DejaVuSans-49"/>
       <use x="127.246094" xlink:href="#DejaVuSans-48"/>
      </g>
     </g>
    </g>
    <g id="xtick_4">
     <g id="line2d_4">
      <g>
       <use style="stroke:#000000;stroke-width:0.8;" x="216.650191" xlink:href="#m4392af8e6e" y="247.118125"/>
      </g>
     </g>
     <g id="text_4">
      <!-- 320 -->
      <g transform="translate(207.106441 261.716562)scale(0.1 -0.1)">
       <use xlink:href="#DejaVuSans-51"/>
       <use x="63.623047" xlink:href="#DejaVuSans-50"/>
       <use x="127.246094" xlink:href="#DejaVuSans-48"/>
      </g>
     </g>
    </g>
    <g id="xtick_5">
     <g id="line2d_5">
      <g>
       <use style="stroke:#000000;stroke-width:0.8;" x="271.750994" xlink:href="#m4392af8e6e" y="247.118125"/>
      </g>
     </g>
     <g id="text_5">
      <!-- 330 -->
      <g transform="translate(262.207244 261.716562)scale(0.1 -0.1)">
       <use xlink:href="#DejaVuSans-51"/>
       <use x="63.623047" xlink:href="#DejaVuSans-51"/>
       <use x="127.246094" xlink:href="#DejaVuSans-48"/>
      </g>
     </g>
    </g>
    <g id="text_6">
     <!-- Value -->
     <g transform="translate(145.063098 275.394687)scale(0.1 -0.1)">
      <defs>
       <path d="M 28.609375 0 
L 0.78125 72.90625 
L 11.078125 72.90625 
L 34.1875 11.53125 
L 57.328125 72.90625 
L 67.578125 72.90625 
L 39.796875 0 
z
" id="DejaVuSans-86"/>
       <path d="M 34.28125 27.484375 
Q 23.390625 27.484375 19.1875 25 
Q 14.984375 22.515625 14.984375 16.5 
Q 14.984375 11.71875 18.140625 8.90625 
Q 21.296875 6.109375 26.703125 6.109375 
Q 34.1875 6.109375 38.703125 11.40625 
Q 43.21875 16.703125 43.21875 25.484375 
L 43.21875 27.484375 
z
M 52.203125 31.203125 
L 52.203125 0 
L 43.21875 0 
L 43.21875 8.296875 
Q 40.140625 3.328125 35.546875 0.953125 
Q 30.953125 -1.421875 24.3125 -1.421875 
Q 15.921875 -1.421875 10.953125 3.296875 
Q 6 8.015625 6 15.921875 
Q 6 25.140625 12.171875 29.828125 
Q 18.359375 34.515625 30.609375 34.515625 
L 43.21875 34.515625 
L 43.21875 35.40625 
Q 43.21875 41.609375 39.140625 45 
Q 35.0625 48.390625 27.6875 48.390625 
Q 23 48.390625 18.546875 47.265625 
Q 14.109375 46.140625 10.015625 43.890625 
L 10.015625 52.203125 
Q 14.9375 54.109375 19.578125 55.046875 
Q 24.21875 56 28.609375 56 
Q 40.484375 56 46.34375 49.84375 
Q 52.203125 43.703125 52.203125 31.203125 
z
" id="DejaVuSans-97"/>
       <path d="M 9.421875 75.984375 
L 18.40625 75.984375 
L 18.40625 0 
L 9.421875 0 
z
" id="DejaVuSans-108"/>
       <path d="M 8.5 21.578125 
L 8.5 54.6875 
L 17.484375 54.6875 
L 17.484375 21.921875 
Q 17.484375 14.15625 20.5 10.265625 
Q 23.53125 6.390625 29.59375 6.390625 
Q 36.859375 6.390625 41.078125 11.03125 
Q 45.3125 15.671875 45.3125 23.6875 
L 45.3125 54.6875 
L 54.296875 54.6875 
L 54.296875 0 
L 45.3125 0 
L 45.3125 8.40625 
Q 42.046875 3.421875 37.71875 1 
Q 33.40625 -1.421875 27.6875 -1.421875 
Q 18.265625 -1.421875 13.375 4.4375 
Q 8.5 10.296875 8.5 21.578125 
z
M 31.109375 56 
z
" id="DejaVuSans-117"/>
       <path d="M 56.203125 29.59375 
L 56.203125 25.203125 
L 14.890625 25.203125 
Q 15.484375 15.921875 20.484375 11.0625 
Q 25.484375 6.203125 34.421875 6.203125 
Q 39.59375 6.203125 44.453125 7.46875 
Q 49.3125 8.734375 54.109375 11.28125 
L 54.109375 2.78125 
Q 49.265625 0.734375 44.1875 -0.34375 
Q 39.109375 -1.421875 33.890625 -1.421875 
Q 20.796875 -1.421875 13.15625 6.1875 
Q 5.515625 13.8125 5.515625 26.8125 
Q 5.515625 40.234375 12.765625 48.109375 
Q 20.015625 56 32.328125 56 
Q 43.359375 56 49.78125 48.890625 
Q 56.203125 41.796875 56.203125 29.59375 
z
M 47.21875 32.234375 
Q 47.125 39.59375 43.09375 43.984375 
Q 39.0625 48.390625 32.421875 48.390625 
Q 24.90625 48.390625 20.390625 44.140625 
Q 15.875 39.890625 15.1875 32.171875 
z
" id="DejaVuSans-101"/>
      </defs>
      <use xlink:href="#DejaVuSans-86"/>
      <use x="60.658203" xlink:href="#DejaVuSans-97"/>
      <use x="121.9375" xlink:href="#DejaVuSans-108"/>
      <use x="149.720703" xlink:href="#DejaVuSans-117"/>
      <use x="213.099609" xlink:href="#DejaVuSans-101"/>
     </g>
    </g>
   </g>
   <g id="matplotlib.axis_2">
    <g id="ytick_1">
     <g id="line2d_6">
      <defs>
       <path d="M 0 0 
L -3.5 0 
" id="mdc94d99219" style="stroke:#000000;stroke-width:0.8;"/>
      </defs>
      <g>
       <use style="stroke:#000000;stroke-width:0.8;" x="40.603125" xlink:href="#mdc94d99219" y="247.118125"/>
      </g>
     </g>
     <g id="text_7">
      <!-- 0 -->
      <g transform="translate(27.240625 250.917344)scale(0.1 -0.1)">
       <use xlink:href="#DejaVuSans-48"/>
      </g>
     </g>
    </g>
    <g id="ytick_2">
     <g id="line2d_7">
      <g>
       <use style="stroke:#000000;stroke-width:0.8;" x="40.603125" xlink:href="#mdc94d99219" y="207.470859"/>
      </g>
     </g>
     <g id="text_8">
      <!-- 5 -->
      <g transform="translate(27.240625 211.270077)scale(0.1 -0.1)">
       <defs>
        <path d="M 10.796875 72.90625 
L 49.515625 72.90625 
L 49.515625 64.59375 
L 19.828125 64.59375 
L 19.828125 46.734375 
Q 21.96875 47.46875 24.109375 47.828125 
Q 26.265625 48.1875 28.421875 48.1875 
Q 40.625 48.1875 47.75 41.5 
Q 54.890625 34.8125 54.890625 23.390625 
Q 54.890625 11.625 47.5625 5.09375 
Q 40.234375 -1.421875 26.90625 -1.421875 
Q 22.3125 -1.421875 17.546875 -0.640625 
Q 12.796875 0.140625 7.71875 1.703125 
L 7.71875 11.625 
Q 12.109375 9.234375 16.796875 8.0625 
Q 21.484375 6.890625 26.703125 6.890625 
Q 35.15625 6.890625 40.078125 11.328125 
Q 45.015625 15.765625 45.015625 23.390625 
Q 45.015625 31 40.078125 35.4375 
Q 35.15625 39.890625 26.703125 39.890625 
Q 22.75 39.890625 18.8125 39.015625 
Q 14.890625 38.140625 10.796875 36.28125 
z
" id="DejaVuSans-53"/>
       </defs>
       <use xlink:href="#DejaVuSans-53"/>
      </g>
     </g>
    </g>
    <g id="ytick_3">
     <g id="line2d_8">
      <g>
       <use style="stroke:#000000;stroke-width:0.8;" x="40.603125" xlink:href="#mdc94d99219" y="167.823592"/>
      </g>
     </g>
     <g id="text_9">
      <!-- 10 -->
      <g transform="translate(20.878125 171.622811)scale(0.1 -0.1)">
       <use xlink:href="#DejaVuSans-49"/>
       <use x="63.623047" xlink:href="#DejaVuSans-48"/>
      </g>
     </g>
    </g>
    <g id="ytick_4">
     <g id="line2d_9">
      <g>
       <use style="stroke:#000000;stroke-width:0.8;" x="40.603125" xlink:href="#mdc94d99219" y="128.176326"/>
      </g>
     </g>
     <g id="text_10">
      <!-- 15 -->
      <g transform="translate(20.878125 131.975545)scale(0.1 -0.1)">
       <use xlink:href="#DejaVuSans-49"/>
       <use x="63.623047" xlink:href="#DejaVuSans-53"/>
      </g>
     </g>
    </g>
    <g id="ytick_5">
     <g id="line2d_10">
      <g>
       <use style="stroke:#000000;stroke-width:0.8;" x="40.603125" xlink:href="#mdc94d99219" y="88.52906"/>
      </g>
     </g>
     <g id="text_11">
      <!-- 20 -->
      <g transform="translate(20.878125 92.328278)scale(0.1 -0.1)">
       <use xlink:href="#DejaVuSans-50"/>
       <use x="63.623047" xlink:href="#DejaVuSans-48"/>
      </g>
     </g>
    </g>
    <g id="ytick_6">
     <g id="line2d_11">
      <g>
       <use style="stroke:#000000;stroke-width:0.8;" x="40.603125" xlink:href="#mdc94d99219" y="48.881793"/>
      </g>
     </g>
     <g id="text_12">
      <!-- 25 -->
      <g transform="translate(20.878125 52.681012)scale(0.1 -0.1)">
       <use xlink:href="#DejaVuSans-50"/>
       <use x="63.623047" xlink:href="#DejaVuSans-53"/>
      </g>
     </g>
    </g>
    <g id="text_13">
     <!-- Counts -->
     <g transform="translate(14.798438 152.17125)rotate(-90)scale(0.1 -0.1)">
      <defs>
       <path d="M 64.40625 67.28125 
L 64.40625 56.890625 
Q 59.421875 61.53125 53.78125 63.8125 
Q 48.140625 66.109375 41.796875 66.109375 
Q 29.296875 66.109375 22.65625 58.46875 
Q 16.015625 50.828125 16.015625 36.375 
Q 16.015625 21.96875 22.65625 14.328125 
Q 29.296875 6.6875 41.796875 6.6875 
Q 48.140625 6.6875 53.78125 8.984375 
Q 59.421875 11.28125 64.40625 15.921875 
L 64.40625 5.609375 
Q 59.234375 2.09375 53.4375 0.328125 
Q 47.65625 -1.421875 41.21875 -1.421875 
Q 24.65625 -1.421875 15.125 8.703125 
Q 5.609375 18.84375 5.609375 36.375 
Q 5.609375 53.953125 15.125 64.078125 
Q 24.65625 74.21875 41.21875 74.21875 
Q 47.75 74.21875 53.53125 72.484375 
Q 59.328125 70.75 64.40625 67.28125 
z
" id="DejaVuSans-67"/>
       <path d="M 30.609375 48.390625 
Q 23.390625 48.390625 19.1875 42.75 
Q 14.984375 37.109375 14.984375 27.296875 
Q 14.984375 17.484375 19.15625 11.84375 
Q 23.34375 6.203125 30.609375 6.203125 
Q 37.796875 6.203125 41.984375 11.859375 
Q 46.1875 17.53125 46.1875 27.296875 
Q 46.1875 37.015625 41.984375 42.703125 
Q 37.796875 48.390625 30.609375 48.390625 
z
M 30.609375 56 
Q 42.328125 56 49.015625 48.375 
Q 55.71875 40.765625 55.71875 27.296875 
Q 55.71875 13.875 49.015625 6.21875 
Q 42.328125 -1.421875 30.609375 -1.421875 
Q 18.84375 -1.421875 12.171875 6.21875 
Q 5.515625 13.875 5.515625 27.296875 
Q 5.515625 40.765625 12.171875 48.375 
Q 18.84375 56 30.609375 56 
z
" id="DejaVuSans-111"/>
       <path d="M 54.890625 33.015625 
L 54.890625 0 
L 45.90625 0 
L 45.90625 32.71875 
Q 45.90625 40.484375 42.875 44.328125 
Q 39.84375 48.1875 33.796875 48.1875 
Q 26.515625 48.1875 22.3125 43.546875 
Q 18.109375 38.921875 18.109375 30.90625 
L 18.109375 0 
L 9.078125 0 
L 9.078125 54.6875 
L 18.109375 54.6875 
L 18.109375 46.1875 
Q 21.34375 51.125 25.703125 53.5625 
Q 30.078125 56 35.796875 56 
Q 45.21875 56 50.046875 50.171875 
Q 54.890625 44.34375 54.890625 33.015625 
z
" id="DejaVuSans-110"/>
       <path d="M 18.3125 70.21875 
L 18.3125 54.6875 
L 36.8125 54.6875 
L 36.8125 47.703125 
L 18.3125 47.703125 
L 18.3125 18.015625 
Q 18.3125 11.328125 20.140625 9.421875 
Q 21.96875 7.515625 27.59375 7.515625 
L 36.8125 7.515625 
L 36.8125 0 
L 27.59375 0 
Q 17.1875 0 13.234375 3.875 
Q 9.28125 7.765625 9.28125 18.015625 
L 9.28125 47.703125 
L 2.6875 47.703125 
L 2.6875 54.6875 
L 9.28125 54.6875 
L 9.28125 70.21875 
z
" id="DejaVuSans-116"/>
       <path d="M 44.28125 53.078125 
L 44.28125 44.578125 
Q 40.484375 46.53125 36.375 47.5 
Q 32.28125 48.484375 27.875 48.484375 
Q 21.1875 48.484375 17.84375 46.4375 
Q 14.5 44.390625 14.5 40.28125 
Q 14.5 37.15625 16.890625 35.375 
Q 19.28125 33.59375 26.515625 31.984375 
L 29.59375 31.296875 
Q 39.15625 29.25 43.1875 25.515625 
Q 47.21875 21.78125 47.21875 15.09375 
Q 47.21875 7.46875 41.1875 3.015625 
Q 35.15625 -1.421875 24.609375 -1.421875 
Q 20.21875 -1.421875 15.453125 -0.5625 
Q 10.6875 0.296875 5.421875 2 
L 5.421875 11.28125 
Q 10.40625 8.6875 15.234375 7.390625 
Q 20.0625 6.109375 24.8125 6.109375 
Q 31.15625 6.109375 34.5625 8.28125 
Q 37.984375 10.453125 37.984375 14.40625 
Q 37.984375 18.0625 35.515625 20.015625 
Q 33.0625 21.96875 24.703125 23.78125 
L 21.578125 24.515625 
Q 13.234375 26.265625 9.515625 29.90625 
Q 5.8125 33.546875 5.8125 39.890625 
Q 5.8125 47.609375 11.28125 51.796875 
Q 16.75 56 26.8125 56 
Q 31.78125 56 36.171875 55.265625 
Q 40.578125 54.546875 44.28125 53.078125 
z
" id="DejaVuSans-115"/>
      </defs>
      <use xlink:href="#DejaVuSans-67"/>
      <use x="69.824219" xlink:href="#DejaVuSans-111"/>
      <use x="131.005859" xlink:href="#DejaVuSans-117"/>
      <use x="194.384766" xlink:href="#DejaVuSans-110"/>
      <use x="257.763672" xlink:href="#DejaVuSans-116"/>
      <use x="296.972656" xlink:href="#DejaVuSans-115"/>
     </g>
    </g>
   </g>
   <g id="line2d_12">
    <path clip-path="url(#p4408893aed)" d="M 51.347782 228.830381 
L 54.359297 226.052314 
L 57.370812 222.953597 
L 60.382328 219.514853 
L 63.393843 215.718467 
L 66.405358 211.549149 
L 69.416874 206.994523 
L 72.428389 202.045736 
L 75.655013 196.300797 
L 78.881636 190.098258 
L 82.323368 182.986141 
L 85.980208 174.889051 
L 89.852157 165.747943 
L 94.154321 154.978934 
L 98.886703 142.516997 
L 105.124842 125.415834 
L 118.031336 89.866681 
L 122.333501 78.744802 
L 125.990341 69.86939 
L 129.216965 62.598603 
L 132.013372 56.79763 
L 134.594671 51.9075 
L 136.960861 47.85364 
L 139.327052 44.240534 
L 141.478134 41.360986 
L 143.414109 39.114622 
L 145.350083 37.207165 
L 147.070949 35.80407 
L 148.791815 34.682156 
L 150.51268 33.845986 
L 152.018438 33.351452 
L 153.524196 33.079871 
L 155.029954 33.032096 
L 156.535711 33.208278 
L 158.041469 33.607862 
L 159.547227 34.229597 
L 161.052984 35.071537 
L 162.77385 36.299991 
L 164.494716 37.807612 
L 166.43069 39.82974 
L 168.366664 42.187144 
L 170.517747 45.185161 
L 172.668829 48.563814 
L 175.03502 52.695245 
L 177.616319 57.663462 
L 180.412726 63.540732 
L 183.424241 70.381177 
L 186.865973 78.752461 
L 190.95303 89.304525 
L 196.115627 103.28719 
L 213.969611 152.205687 
L 218.486884 163.650359 
L 222.573941 173.411818 
L 226.230781 181.603529 
L 229.672513 188.809515 
L 233.114245 195.505861 
L 236.340868 201.311538 
L 239.567492 206.659038 
L 242.579007 211.241174 
L 245.590523 215.437256 
L 248.602038 219.259432 
L 251.613554 222.722806 
L 254.625069 225.844849 
L 257.636584 228.644831 
L 260.6481 231.143289 
L 263.659615 233.361542 
L 266.240914 235.056302 
L 266.240914 235.056302 
" style="fill:none;stroke:#ff7f0e;stroke-linecap:square;stroke-width:1.5;"/>
   </g>
   <g id="patch_18">
    <path d="M 40.603125 247.118125 
L 40.603125 22.318125 
" style="fill:none;stroke:#000000;stroke-linecap:square;stroke-linejoin:miter;stroke-width:0.8;"/>
   </g>
   <g id="patch_19">
    <path d="M 276.98557 247.118125 
L 276.98557 22.318125 
" style="fill:none;stroke:#000000;stroke-linecap:square;stroke-linejoin:miter;stroke-width:0.8;"/>
   </g>
   <g id="patch_20">
    <path d="M 40.603125 247.118125 
L 276.98557 247.118125 
" style="fill:none;stroke:#000000;stroke-linecap:square;stroke-linejoin:miter;stroke-width:0.8;"/>
   </g>
   <g id="patch_21">
    <path d="M 40.603125 22.318125 
L 276.98557 22.318125 
" style="fill:none;stroke:#000000;stroke-linecap:square;stroke-linejoin:miter;stroke-width:0.8;"/>
   </g>
   <g id="text_14">
    <!-- GRE Score -->
    <g transform="translate(127.475285 16.318125)scale(0.12 -0.12)">
     <defs>
      <path d="M 59.515625 10.40625 
L 59.515625 29.984375 
L 43.40625 29.984375 
L 43.40625 38.09375 
L 69.28125 38.09375 
L 69.28125 6.78125 
Q 63.578125 2.734375 56.6875 0.65625 
Q 49.8125 -1.421875 42 -1.421875 
Q 24.90625 -1.421875 15.25 8.5625 
Q 5.609375 18.5625 5.609375 36.375 
Q 5.609375 54.25 15.25 64.234375 
Q 24.90625 74.21875 42 74.21875 
Q 49.125 74.21875 55.546875 72.453125 
Q 61.96875 70.703125 67.390625 67.28125 
L 67.390625 56.78125 
Q 61.921875 61.421875 55.765625 63.765625 
Q 49.609375 66.109375 42.828125 66.109375 
Q 29.4375 66.109375 22.71875 58.640625 
Q 16.015625 51.171875 16.015625 36.375 
Q 16.015625 21.625 22.71875 14.15625 
Q 29.4375 6.6875 42.828125 6.6875 
Q 48.046875 6.6875 52.140625 7.59375 
Q 56.25 8.5 59.515625 10.40625 
z
" id="DejaVuSans-71"/>
      <path d="M 44.390625 34.1875 
Q 47.5625 33.109375 50.5625 29.59375 
Q 53.5625 26.078125 56.59375 19.921875 
L 66.609375 0 
L 56 0 
L 46.6875 18.703125 
Q 43.0625 26.03125 39.671875 28.421875 
Q 36.28125 30.8125 30.421875 30.8125 
L 19.671875 30.8125 
L 19.671875 0 
L 9.8125 0 
L 9.8125 72.90625 
L 32.078125 72.90625 
Q 44.578125 72.90625 50.734375 67.671875 
Q 56.890625 62.453125 56.890625 51.90625 
Q 56.890625 45.015625 53.6875 40.46875 
Q 50.484375 35.9375 44.390625 34.1875 
z
M 19.671875 64.796875 
L 19.671875 38.921875 
L 32.078125 38.921875 
Q 39.203125 38.921875 42.84375 42.21875 
Q 46.484375 45.515625 46.484375 51.90625 
Q 46.484375 58.296875 42.84375 61.546875 
Q 39.203125 64.796875 32.078125 64.796875 
z
" id="DejaVuSans-82"/>
      <path d="M 9.8125 72.90625 
L 55.90625 72.90625 
L 55.90625 64.59375 
L 19.671875 64.59375 
L 19.671875 43.015625 
L 54.390625 43.015625 
L 54.390625 34.71875 
L 19.671875 34.71875 
L 19.671875 8.296875 
L 56.78125 8.296875 
L 56.78125 0 
L 9.8125 0 
z
" id="DejaVuSans-69"/>
      <path id="DejaVuSans-32"/>
      <path d="M 53.515625 70.515625 
L 53.515625 60.890625 
Q 47.90625 63.578125 42.921875 64.890625 
Q 37.9375 66.21875 33.296875 66.21875 
Q 25.25 66.21875 20.875 63.09375 
Q 16.5 59.96875 16.5 54.203125 
Q 16.5 49.359375 19.40625 46.890625 
Q 22.3125 44.4375 30.421875 42.921875 
L 36.375 41.703125 
Q 47.40625 39.59375 52.65625 34.296875 
Q 57.90625 29 57.90625 20.125 
Q 57.90625 9.515625 50.796875 4.046875 
Q 43.703125 -1.421875 29.984375 -1.421875 
Q 24.8125 -1.421875 18.96875 -0.25 
Q 13.140625 0.921875 6.890625 3.21875 
L 6.890625 13.375 
Q 12.890625 10.015625 18.65625 8.296875 
Q 24.421875 6.59375 29.984375 6.59375 
Q 38.421875 6.59375 43.015625 9.90625 
Q 47.609375 13.234375 47.609375 19.390625 
Q 47.609375 24.75 44.3125 27.78125 
Q 41.015625 30.8125 33.5 32.328125 
L 27.484375 33.5 
Q 16.453125 35.6875 11.515625 40.375 
Q 6.59375 45.0625 6.59375 53.421875 
Q 6.59375 63.09375 13.40625 68.65625 
Q 20.21875 74.21875 32.171875 74.21875 
Q 37.3125 74.21875 42.625 73.28125 
Q 47.953125 72.359375 53.515625 70.515625 
z
" id="DejaVuSans-83"/>
      <path d="M 48.78125 52.59375 
L 48.78125 44.1875 
Q 44.96875 46.296875 41.140625 47.34375 
Q 37.3125 48.390625 33.40625 48.390625 
Q 24.65625 48.390625 19.8125 42.84375 
Q 14.984375 37.3125 14.984375 27.296875 
Q 14.984375 17.28125 19.8125 11.734375 
Q 24.65625 6.203125 33.40625 6.203125 
Q 37.3125 6.203125 41.140625 7.25 
Q 44.96875 8.296875 48.78125 10.40625 
L 48.78125 2.09375 
Q 45.015625 0.34375 40.984375 -0.53125 
Q 36.96875 -1.421875 32.421875 -1.421875 
Q 20.0625 -1.421875 12.78125 6.34375 
Q 5.515625 14.109375 5.515625 27.296875 
Q 5.515625 40.671875 12.859375 48.328125 
Q 20.21875 56 33.015625 56 
Q 37.15625 56 41.109375 55.140625 
Q 45.0625 54.296875 48.78125 52.59375 
z
" id="DejaVuSans-99"/>
      <path d="M 41.109375 46.296875 
Q 39.59375 47.171875 37.8125 47.578125 
Q 36.03125 48 33.890625 48 
Q 26.265625 48 22.1875 43.046875 
Q 18.109375 38.09375 18.109375 28.8125 
L 18.109375 0 
L 9.078125 0 
L 9.078125 54.6875 
L 18.109375 54.6875 
L 18.109375 46.1875 
Q 20.953125 51.171875 25.484375 53.578125 
Q 30.03125 56 36.53125 56 
Q 37.453125 56 38.578125 55.875 
Q 39.703125 55.765625 41.0625 55.515625 
z
" id="DejaVuSans-114"/>
     </defs>
     <use xlink:href="#DejaVuSans-71"/>
     <use x="77.490234" xlink:href="#DejaVuSans-82"/>
     <use x="146.972656" xlink:href="#DejaVuSans-69"/>
     <use x="210.15625" xlink:href="#DejaVuSans-32"/>
     <use x="241.943359" xlink:href="#DejaVuSans-83"/>
     <use x="305.419922" xlink:href="#DejaVuSans-99"/>
     <use x="360.400391" xlink:href="#DejaVuSans-111"/>
     <use x="421.582031" xlink:href="#DejaVuSans-114"/>
     <use x="460.445312" xlink:href="#DejaVuSans-101"/>
    </g>
   </g>
  </g>
  <g id="axes_2">
   <g id="patch_22">
    <path d="M 326.736902 247.118125 
L 563.119348 247.118125 
L 563.119348 22.318125 
L 326.736902 22.318125 
z
" style="fill:#ffffff;"/>
   </g>
   <g id="patch_23">
    <path clip-path="url(#p3e3bf0b595)" d="M 337.481559 247.118125 
L 351.807768 247.118125 
L 351.807768 224.970342 
L 337.481559 224.970342 
z
" style="fill:#1f77b4;"/>
   </g>
   <g id="patch_24">
    <path clip-path="url(#p3e3bf0b595)" d="M 351.807768 247.118125 
L 366.133977 247.118125 
L 366.133977 224.970342 
L 351.807768 224.970342 
z
" style="fill:#1f77b4;"/>
   </g>
   <g id="patch_25">
    <path clip-path="url(#p3e3bf0b595)" d="M 366.133977 247.118125 
L 380.460185 247.118125 
L 380.460185 217.587747 
L 366.133977 217.587747 
z
" style="fill:#1f77b4;"/>
   </g>
   <g id="patch_26">
    <path clip-path="url(#p3e3bf0b595)" d="M 380.460185 247.118125 
L 394.786394 247.118125 
L 394.786394 143.761803 
L 380.460185 143.761803 
z
" style="fill:#1f77b4;"/>
   </g>
   <g id="patch_27">
    <path clip-path="url(#p3e3bf0b595)" d="M 394.786394 247.118125 
L 409.112603 247.118125 
L 409.112603 121.61402 
L 394.786394 121.61402 
z
" style="fill:#1f77b4;"/>
   </g>
   <g id="patch_28">
    <path clip-path="url(#p3e3bf0b595)" d="M 409.112603 247.118125 
L 423.438812 247.118125 
L 423.438812 33.022887 
L 409.112603 33.022887 
z
" style="fill:#1f77b4;"/>
   </g>
   <g id="patch_29">
    <path clip-path="url(#p3e3bf0b595)" d="M 423.438812 247.118125 
L 437.765021 247.118125 
L 437.765021 143.761803 
L 423.438812 143.761803 
z
" style="fill:#1f77b4;"/>
   </g>
   <g id="patch_30">
    <path clip-path="url(#p3e3bf0b595)" d="M 437.765021 247.118125 
L 452.091229 247.118125 
L 452.091229 55.17067 
L 437.765021 55.17067 
z
" style="fill:#1f77b4;"/>
   </g>
   <g id="patch_31">
    <path clip-path="url(#p3e3bf0b595)" d="M 452.091229 247.118125 
L 466.417438 247.118125 
L 466.417438 84.701048 
L 452.091229 84.701048 
z
" style="fill:#1f77b4;"/>
   </g>
   <g id="patch_32">
    <path clip-path="url(#p3e3bf0b595)" d="M 466.417438 247.118125 
L 480.743647 247.118125 
L 480.743647 33.022887 
L 466.417438 33.022887 
z
" style="fill:#1f77b4;"/>
   </g>
   <g id="patch_33">
    <path clip-path="url(#p3e3bf0b595)" d="M 480.743647 247.118125 
L 495.069856 247.118125 
L 495.069856 180.674775 
L 480.743647 180.674775 
z
" style="fill:#1f77b4;"/>
   </g>
   <g id="patch_34">
    <path clip-path="url(#p3e3bf0b595)" d="M 495.069856 247.118125 
L 509.396065 247.118125 
L 509.396065 136.379209 
L 495.069856 136.379209 
z
" style="fill:#1f77b4;"/>
   </g>
   <g id="patch_35">
    <path clip-path="url(#p3e3bf0b595)" d="M 509.396065 247.118125 
L 523.722273 247.118125 
L 523.722273 232.352936 
L 509.396065 232.352936 
z
" style="fill:#1f77b4;"/>
   </g>
   <g id="patch_36">
    <path clip-path="url(#p3e3bf0b595)" d="M 523.722273 247.118125 
L 538.048482 247.118125 
L 538.048482 217.587747 
L 523.722273 217.587747 
z
" style="fill:#1f77b4;"/>
   </g>
   <g id="patch_37">
    <path clip-path="url(#p3e3bf0b595)" d="M 538.048482 247.118125 
L 552.374691 247.118125 
L 552.374691 217.587747 
L 538.048482 217.587747 
z
" style="fill:#1f77b4;"/>
   </g>
   <g id="matplotlib.axis_3">
    <g id="xtick_6">
     <g id="line2d_13">
      <g>
       <use style="stroke:#000000;stroke-width:0.8;" x="365.511098" xlink:href="#m4392af8e6e" y="247.118125"/>
      </g>
     </g>
     <g id="text_15">
      <!-- 95 -->
      <g transform="translate(359.148598 261.716562)scale(0.1 -0.1)">
       <use xlink:href="#DejaVuSans-57"/>
       <use x="63.623047" xlink:href="#DejaVuSans-53"/>
      </g>
     </g>
    </g>
    <g id="xtick_7">
     <g id="line2d_14">
      <g>
       <use style="stroke:#000000;stroke-width:0.8;" x="412.226996" xlink:href="#m4392af8e6e" y="247.118125"/>
      </g>
     </g>
     <g id="text_16">
      <!-- 100 -->
      <g transform="translate(402.683246 261.716562)scale(0.1 -0.1)">
       <use xlink:href="#DejaVuSans-49"/>
       <use x="63.623047" xlink:href="#DejaVuSans-48"/>
       <use x="127.246094" xlink:href="#DejaVuSans-48"/>
      </g>
     </g>
    </g>
    <g id="xtick_8">
     <g id="line2d_15">
      <g>
       <use style="stroke:#000000;stroke-width:0.8;" x="458.942894" xlink:href="#m4392af8e6e" y="247.118125"/>
      </g>
     </g>
     <g id="text_17">
      <!-- 105 -->
      <g transform="translate(449.399144 261.716562)scale(0.1 -0.1)">
       <use xlink:href="#DejaVuSans-49"/>
       <use x="63.623047" xlink:href="#DejaVuSans-48"/>
       <use x="127.246094" xlink:href="#DejaVuSans-53"/>
      </g>
     </g>
    </g>
    <g id="xtick_9">
     <g id="line2d_16">
      <g>
       <use style="stroke:#000000;stroke-width:0.8;" x="505.658793" xlink:href="#m4392af8e6e" y="247.118125"/>
      </g>
     </g>
     <g id="text_18">
      <!-- 110 -->
      <g transform="translate(496.115043 261.716562)scale(0.1 -0.1)">
       <use xlink:href="#DejaVuSans-49"/>
       <use x="63.623047" xlink:href="#DejaVuSans-49"/>
       <use x="127.246094" xlink:href="#DejaVuSans-48"/>
      </g>
     </g>
    </g>
    <g id="xtick_10">
     <g id="line2d_17">
      <g>
       <use style="stroke:#000000;stroke-width:0.8;" x="552.374691" xlink:href="#m4392af8e6e" y="247.118125"/>
      </g>
     </g>
     <g id="text_19">
      <!-- 115 -->
      <g transform="translate(542.830941 261.716562)scale(0.1 -0.1)">
       <use xlink:href="#DejaVuSans-49"/>
       <use x="63.623047" xlink:href="#DejaVuSans-49"/>
       <use x="127.246094" xlink:href="#DejaVuSans-53"/>
      </g>
     </g>
    </g>
    <g id="text_20">
     <!-- Value -->
     <g transform="translate(431.196875 275.394687)scale(0.1 -0.1)">
      <use xlink:href="#DejaVuSans-86"/>
      <use x="60.658203" xlink:href="#DejaVuSans-97"/>
      <use x="121.9375" xlink:href="#DejaVuSans-108"/>
      <use x="149.720703" xlink:href="#DejaVuSans-117"/>
      <use x="213.099609" xlink:href="#DejaVuSans-101"/>
     </g>
    </g>
   </g>
   <g id="matplotlib.axis_4">
    <g id="ytick_7">
     <g id="line2d_18">
      <g>
       <use style="stroke:#000000;stroke-width:0.8;" x="326.736902" xlink:href="#mdc94d99219" y="247.118125"/>
      </g>
     </g>
     <g id="text_21">
      <!-- 0 -->
      <g transform="translate(313.374402 250.917344)scale(0.1 -0.1)">
       <use xlink:href="#DejaVuSans-48"/>
      </g>
     </g>
    </g>
    <g id="ytick_8">
     <g id="line2d_19">
      <g>
       <use style="stroke:#000000;stroke-width:0.8;" x="326.736902" xlink:href="#mdc94d99219" y="210.205153"/>
      </g>
     </g>
     <g id="text_22">
      <!-- 5 -->
      <g transform="translate(313.374402 214.004372)scale(0.1 -0.1)">
       <use xlink:href="#DejaVuSans-53"/>
      </g>
     </g>
    </g>
    <g id="ytick_9">
     <g id="line2d_20">
      <g>
       <use style="stroke:#000000;stroke-width:0.8;" x="326.736902" xlink:href="#mdc94d99219" y="173.292181"/>
      </g>
     </g>
     <g id="text_23">
      <!-- 10 -->
      <g transform="translate(307.011902 177.0914)scale(0.1 -0.1)">
       <use xlink:href="#DejaVuSans-49"/>
       <use x="63.623047" xlink:href="#DejaVuSans-48"/>
      </g>
     </g>
    </g>
    <g id="ytick_10">
     <g id="line2d_21">
      <g>
       <use style="stroke:#000000;stroke-width:0.8;" x="326.736902" xlink:href="#mdc94d99219" y="136.379209"/>
      </g>
     </g>
     <g id="text_24">
      <!-- 15 -->
      <g transform="translate(307.011902 140.178427)scale(0.1 -0.1)">
       <use xlink:href="#DejaVuSans-49"/>
       <use x="63.623047" xlink:href="#DejaVuSans-53"/>
      </g>
     </g>
    </g>
    <g id="ytick_11">
     <g id="line2d_22">
      <g>
       <use style="stroke:#000000;stroke-width:0.8;" x="326.736902" xlink:href="#mdc94d99219" y="99.466237"/>
      </g>
     </g>
     <g id="text_25">
      <!-- 20 -->
      <g transform="translate(307.011902 103.265455)scale(0.1 -0.1)">
       <use xlink:href="#DejaVuSans-50"/>
       <use x="63.623047" xlink:href="#DejaVuSans-48"/>
      </g>
     </g>
    </g>
    <g id="ytick_12">
     <g id="line2d_23">
      <g>
       <use style="stroke:#000000;stroke-width:0.8;" x="326.736902" xlink:href="#mdc94d99219" y="62.553265"/>
      </g>
     </g>
     <g id="text_26">
      <!-- 25 -->
      <g transform="translate(307.011902 66.352483)scale(0.1 -0.1)">
       <use xlink:href="#DejaVuSans-50"/>
       <use x="63.623047" xlink:href="#DejaVuSans-53"/>
      </g>
     </g>
    </g>
    <g id="ytick_13">
     <g id="line2d_24">
      <g>
       <use style="stroke:#000000;stroke-width:0.8;" x="326.736902" xlink:href="#mdc94d99219" y="25.640292"/>
      </g>
     </g>
     <g id="text_27">
      <!-- 30 -->
      <g transform="translate(307.011902 29.439511)scale(0.1 -0.1)">
       <use xlink:href="#DejaVuSans-51"/>
       <use x="63.623047" xlink:href="#DejaVuSans-48"/>
      </g>
     </g>
    </g>
    <g id="text_28">
     <!-- Counts -->
     <g transform="translate(300.932215 152.17125)rotate(-90)scale(0.1 -0.1)">
      <use xlink:href="#DejaVuSans-67"/>
      <use x="69.824219" xlink:href="#DejaVuSans-111"/>
      <use x="131.005859" xlink:href="#DejaVuSans-117"/>
      <use x="194.384766" xlink:href="#DejaVuSans-110"/>
      <use x="257.763672" xlink:href="#DejaVuSans-116"/>
      <use x="296.972656" xlink:href="#DejaVuSans-115"/>
     </g>
    </g>
   </g>
   <g id="line2d_25">
    <path clip-path="url(#p3e3bf0b595)" d="M 337.481559 238.899592 
L 340.493074 237.266358 
L 343.50459 235.369623 
L 346.300997 233.346892 
L 349.097404 231.047904 
L 351.893811 228.448759 
L 354.690218 225.525972 
L 357.486625 222.256985 
L 360.283032 218.620754 
L 363.079439 214.598372 
L 365.875847 210.173746 
L 368.672254 205.334301 
L 371.683769 199.649218 
L 374.695284 193.469473 
L 377.921908 186.303735 
L 381.148532 178.589928 
L 384.590264 169.789376 
L 388.462212 159.244897 
L 392.764377 146.847092 
L 398.142083 130.608275 
L 412.984551 85.300215 
L 416.8565 74.435403 
L 420.083123 66.015637 
L 422.87953 59.293486 
L 425.460829 53.636336 
L 427.82702 48.96517 
L 429.978102 45.18247 
L 431.914076 42.180325 
L 433.850051 39.578666 
L 435.570917 37.615516 
L 437.291782 35.991495 
L 438.79754 34.85511 
L 440.303298 33.989014 
L 441.809056 33.396557 
L 443.099705 33.108301 
L 444.390354 33.023615 
L 445.681004 33.142739 
L 446.971653 33.465334 
L 448.262303 33.990479 
L 449.76806 34.857121 
L 451.273818 35.994044 
L 452.779576 37.396862 
L 454.500442 39.318713 
L 456.221308 41.571196 
L 458.157282 44.486492 
L 460.308364 48.177756 
L 462.459447 52.317707 
L 464.825637 57.35283 
L 467.406936 63.369304 
L 470.418452 70.997733 
L 473.645075 79.785379 
L 477.517023 90.985081 
L 482.679621 106.645879 
L 496.446549 148.755198 
L 500.963822 161.651038 
L 504.83577 172.050386 
L 508.49261 181.227949 
L 511.934342 189.243693 
L 515.160966 196.184693 
L 518.172481 202.151925 
L 521.183996 207.625321 
L 523.980403 212.271553 
L 526.776811 216.5083 
L 529.573218 220.349855 
L 532.369625 223.813697 
L 535.166032 226.919803 
L 537.962439 229.689994 
L 540.758846 232.147325 
L 543.555253 234.315534 
L 546.35166 236.218553 
L 549.363176 237.998564 
L 552.374691 239.527336 
L 552.374691 239.527336 
" style="fill:none;stroke:#ff7f0e;stroke-linecap:square;stroke-width:1.5;"/>
   </g>
   <g id="patch_38">
    <path d="M 326.736902 247.118125 
L 326.736902 22.318125 
" style="fill:none;stroke:#000000;stroke-linecap:square;stroke-linejoin:miter;stroke-width:0.8;"/>
   </g>
   <g id="patch_39">
    <path d="M 563.119348 247.118125 
L 563.119348 22.318125 
" style="fill:none;stroke:#000000;stroke-linecap:square;stroke-linejoin:miter;stroke-width:0.8;"/>
   </g>
   <g id="patch_40">
    <path d="M 326.736902 247.118125 
L 563.119348 247.118125 
" style="fill:none;stroke:#000000;stroke-linecap:square;stroke-linejoin:miter;stroke-width:0.8;"/>
   </g>
   <g id="patch_41">
    <path d="M 326.736902 22.318125 
L 563.119348 22.318125 
" style="fill:none;stroke:#000000;stroke-linecap:square;stroke-linejoin:miter;stroke-width:0.8;"/>
   </g>
   <g id="text_29">
    <!-- TOEFL Score -->
    <g transform="translate(407.245313 16.318125)scale(0.12 -0.12)">
     <defs>
      <path d="M -0.296875 72.90625 
L 61.375 72.90625 
L 61.375 64.59375 
L 35.5 64.59375 
L 35.5 0 
L 25.59375 0 
L 25.59375 64.59375 
L -0.296875 64.59375 
z
" id="DejaVuSans-84"/>
      <path d="M 39.40625 66.21875 
Q 28.65625 66.21875 22.328125 58.203125 
Q 16.015625 50.203125 16.015625 36.375 
Q 16.015625 22.609375 22.328125 14.59375 
Q 28.65625 6.59375 39.40625 6.59375 
Q 50.140625 6.59375 56.421875 14.59375 
Q 62.703125 22.609375 62.703125 36.375 
Q 62.703125 50.203125 56.421875 58.203125 
Q 50.140625 66.21875 39.40625 66.21875 
z
M 39.40625 74.21875 
Q 54.734375 74.21875 63.90625 63.9375 
Q 73.09375 53.65625 73.09375 36.375 
Q 73.09375 19.140625 63.90625 8.859375 
Q 54.734375 -1.421875 39.40625 -1.421875 
Q 24.03125 -1.421875 14.8125 8.828125 
Q 5.609375 19.09375 5.609375 36.375 
Q 5.609375 53.65625 14.8125 63.9375 
Q 24.03125 74.21875 39.40625 74.21875 
z
" id="DejaVuSans-79"/>
      <path d="M 9.8125 72.90625 
L 51.703125 72.90625 
L 51.703125 64.59375 
L 19.671875 64.59375 
L 19.671875 43.109375 
L 48.578125 43.109375 
L 48.578125 34.8125 
L 19.671875 34.8125 
L 19.671875 0 
L 9.8125 0 
z
" id="DejaVuSans-70"/>
      <path d="M 9.8125 72.90625 
L 19.671875 72.90625 
L 19.671875 8.296875 
L 55.171875 8.296875 
L 55.171875 0 
L 9.8125 0 
z
" id="DejaVuSans-76"/>
     </defs>
     <use xlink:href="#DejaVuSans-84"/>
     <use x="61.083984" xlink:href="#DejaVuSans-79"/>
     <use x="139.794922" xlink:href="#DejaVuSans-69"/>
     <use x="202.978516" xlink:href="#DejaVuSans-70"/>
     <use x="260.498047" xlink:href="#DejaVuSans-76"/>
     <use x="316.210938" xlink:href="#DejaVuSans-32"/>
     <use x="347.998047" xlink:href="#DejaVuSans-83"/>
     <use x="411.474609" xlink:href="#DejaVuSans-99"/>
     <use x="466.455078" xlink:href="#DejaVuSans-111"/>
     <use x="527.636719" xlink:href="#DejaVuSans-114"/>
     <use x="566.5" xlink:href="#DejaVuSans-101"/>
    </g>
   </g>
  </g>
  <g id="axes_3">
   <g id="patch_42">
    <path d="M 612.87068 247.118125 
L 849.253125 247.118125 
L 849.253125 22.318125 
L 612.87068 22.318125 
z
" style="fill:#ffffff;"/>
   </g>
   <g id="patch_43">
    <path clip-path="url(#p5bc383c22a)" d="M 623.615336 247.118125 
L 666.593963 247.118125 
L 666.593963 189.565642 
L 623.615336 189.565642 
z
" style="fill:#1f77b4;"/>
   </g>
   <g id="patch_44">
    <path clip-path="url(#p5bc383c22a)" d="M 666.593963 247.118125 
L 709.572589 247.118125 
L 709.572589 33.022887 
L 666.593963 33.022887 
z
" style="fill:#1f77b4;"/>
   </g>
   <g id="patch_45">
    <path clip-path="url(#p5bc383c22a)" d="M 709.572589 247.118125 
L 752.551215 247.118125 
L 752.551215 102.085867 
L 709.572589 102.085867 
z
" style="fill:#1f77b4;"/>
   </g>
   <g id="patch_46">
    <path clip-path="url(#p5bc383c22a)" d="M 752.551215 247.118125 
L 795.529842 247.118125 
L 795.529842 224.097132 
L 752.551215 224.097132 
z
" style="fill:#1f77b4;"/>
   </g>
   <g id="patch_47">
    <path clip-path="url(#p5bc383c22a)" d="M 795.529842 247.118125 
L 838.508468 247.118125 
L 838.508468 237.909728 
L 795.529842 237.909728 
z
" style="fill:#1f77b4;"/>
   </g>
   <g id="matplotlib.axis_5">
    <g id="xtick_11">
     <g id="line2d_26">
      <g>
       <use style="stroke:#000000;stroke-width:0.8;" x="623.615336" xlink:href="#m4392af8e6e" y="247.118125"/>
      </g>
     </g>
     <g id="text_30">
      <!-- 1 -->
      <g transform="translate(620.434086 261.716562)scale(0.1 -0.1)">
       <use xlink:href="#DejaVuSans-49"/>
      </g>
     </g>
    </g>
    <g id="xtick_12">
     <g id="line2d_27">
      <g>
       <use style="stroke:#000000;stroke-width:0.8;" x="677.338619" xlink:href="#m4392af8e6e" y="247.118125"/>
      </g>
     </g>
     <g id="text_31">
      <!-- 2 -->
      <g transform="translate(674.157369 261.716562)scale(0.1 -0.1)">
       <use xlink:href="#DejaVuSans-50"/>
      </g>
     </g>
    </g>
    <g id="xtick_13">
     <g id="line2d_28">
      <g>
       <use style="stroke:#000000;stroke-width:0.8;" x="731.061902" xlink:href="#m4392af8e6e" y="247.118125"/>
      </g>
     </g>
     <g id="text_32">
      <!-- 3 -->
      <g transform="translate(727.880652 261.716562)scale(0.1 -0.1)">
       <use xlink:href="#DejaVuSans-51"/>
      </g>
     </g>
    </g>
    <g id="xtick_14">
     <g id="line2d_29">
      <g>
       <use style="stroke:#000000;stroke-width:0.8;" x="784.785185" xlink:href="#m4392af8e6e" y="247.118125"/>
      </g>
     </g>
     <g id="text_33">
      <!-- 4 -->
      <g transform="translate(781.603935 261.716562)scale(0.1 -0.1)">
       <defs>
        <path d="M 37.796875 64.3125 
L 12.890625 25.390625 
L 37.796875 25.390625 
z
M 35.203125 72.90625 
L 47.609375 72.90625 
L 47.609375 25.390625 
L 58.015625 25.390625 
L 58.015625 17.1875 
L 47.609375 17.1875 
L 47.609375 0 
L 37.796875 0 
L 37.796875 17.1875 
L 4.890625 17.1875 
L 4.890625 26.703125 
z
" id="DejaVuSans-52"/>
       </defs>
       <use xlink:href="#DejaVuSans-52"/>
      </g>
     </g>
    </g>
    <g id="xtick_15">
     <g id="line2d_30">
      <g>
       <use style="stroke:#000000;stroke-width:0.8;" x="838.508468" xlink:href="#m4392af8e6e" y="247.118125"/>
      </g>
     </g>
     <g id="text_34">
      <!-- 5 -->
      <g transform="translate(835.327218 261.716562)scale(0.1 -0.1)">
       <use xlink:href="#DejaVuSans-53"/>
      </g>
     </g>
    </g>
    <g id="text_35">
     <!-- Value -->
     <g transform="translate(717.330652 275.394687)scale(0.1 -0.1)">
      <use xlink:href="#DejaVuSans-86"/>
      <use x="60.658203" xlink:href="#DejaVuSans-97"/>
      <use x="121.9375" xlink:href="#DejaVuSans-108"/>
      <use x="149.720703" xlink:href="#DejaVuSans-117"/>
      <use x="213.099609" xlink:href="#DejaVuSans-101"/>
     </g>
    </g>
   </g>
   <g id="matplotlib.axis_6">
    <g id="ytick_14">
     <g id="line2d_31">
      <g>
       <use style="stroke:#000000;stroke-width:0.8;" x="612.87068" xlink:href="#mdc94d99219" y="247.118125"/>
      </g>
     </g>
     <g id="text_36">
      <!-- 0 -->
      <g transform="translate(599.50818 250.917344)scale(0.1 -0.1)">
       <use xlink:href="#DejaVuSans-48"/>
      </g>
     </g>
    </g>
    <g id="ytick_15">
     <g id="line2d_32">
      <g>
       <use style="stroke:#000000;stroke-width:0.8;" x="612.87068" xlink:href="#mdc94d99219" y="201.076138"/>
      </g>
     </g>
     <g id="text_37">
      <!-- 20 -->
      <g transform="translate(593.14568 204.875357)scale(0.1 -0.1)">
       <use xlink:href="#DejaVuSans-50"/>
       <use x="63.623047" xlink:href="#DejaVuSans-48"/>
      </g>
     </g>
    </g>
    <g id="ytick_16">
     <g id="line2d_33">
      <g>
       <use style="stroke:#000000;stroke-width:0.8;" x="612.87068" xlink:href="#mdc94d99219" y="155.034152"/>
      </g>
     </g>
     <g id="text_38">
      <!-- 40 -->
      <g transform="translate(593.14568 158.83337)scale(0.1 -0.1)">
       <use xlink:href="#DejaVuSans-52"/>
       <use x="63.623047" xlink:href="#DejaVuSans-48"/>
      </g>
     </g>
    </g>
    <g id="ytick_17">
     <g id="line2d_34">
      <g>
       <use style="stroke:#000000;stroke-width:0.8;" x="612.87068" xlink:href="#mdc94d99219" y="108.992165"/>
      </g>
     </g>
     <g id="text_39">
      <!-- 60 -->
      <g transform="translate(593.14568 112.791384)scale(0.1 -0.1)">
       <defs>
        <path d="M 33.015625 40.375 
Q 26.375 40.375 22.484375 35.828125 
Q 18.609375 31.296875 18.609375 23.390625 
Q 18.609375 15.53125 22.484375 10.953125 
Q 26.375 6.390625 33.015625 6.390625 
Q 39.65625 6.390625 43.53125 10.953125 
Q 47.40625 15.53125 47.40625 23.390625 
Q 47.40625 31.296875 43.53125 35.828125 
Q 39.65625 40.375 33.015625 40.375 
z
M 52.59375 71.296875 
L 52.59375 62.3125 
Q 48.875 64.0625 45.09375 64.984375 
Q 41.3125 65.921875 37.59375 65.921875 
Q 27.828125 65.921875 22.671875 59.328125 
Q 17.53125 52.734375 16.796875 39.40625 
Q 19.671875 43.65625 24.015625 45.921875 
Q 28.375 48.1875 33.59375 48.1875 
Q 44.578125 48.1875 50.953125 41.515625 
Q 57.328125 34.859375 57.328125 23.390625 
Q 57.328125 12.15625 50.6875 5.359375 
Q 44.046875 -1.421875 33.015625 -1.421875 
Q 20.359375 -1.421875 13.671875 8.265625 
Q 6.984375 17.96875 6.984375 36.375 
Q 6.984375 53.65625 15.1875 63.9375 
Q 23.390625 74.21875 37.203125 74.21875 
Q 40.921875 74.21875 44.703125 73.484375 
Q 48.484375 72.75 52.59375 71.296875 
z
" id="DejaVuSans-54"/>
       </defs>
       <use xlink:href="#DejaVuSans-54"/>
       <use x="63.623047" xlink:href="#DejaVuSans-48"/>
      </g>
     </g>
    </g>
    <g id="ytick_18">
     <g id="line2d_35">
      <g>
       <use style="stroke:#000000;stroke-width:0.8;" x="612.87068" xlink:href="#mdc94d99219" y="62.950178"/>
      </g>
     </g>
     <g id="text_40">
      <!-- 80 -->
      <g transform="translate(593.14568 66.749397)scale(0.1 -0.1)">
       <defs>
        <path d="M 31.78125 34.625 
Q 24.75 34.625 20.71875 30.859375 
Q 16.703125 27.09375 16.703125 20.515625 
Q 16.703125 13.921875 20.71875 10.15625 
Q 24.75 6.390625 31.78125 6.390625 
Q 38.8125 6.390625 42.859375 10.171875 
Q 46.921875 13.96875 46.921875 20.515625 
Q 46.921875 27.09375 42.890625 30.859375 
Q 38.875 34.625 31.78125 34.625 
z
M 21.921875 38.8125 
Q 15.578125 40.375 12.03125 44.71875 
Q 8.5 49.078125 8.5 55.328125 
Q 8.5 64.0625 14.71875 69.140625 
Q 20.953125 74.21875 31.78125 74.21875 
Q 42.671875 74.21875 48.875 69.140625 
Q 55.078125 64.0625 55.078125 55.328125 
Q 55.078125 49.078125 51.53125 44.71875 
Q 48 40.375 41.703125 38.8125 
Q 48.828125 37.15625 52.796875 32.3125 
Q 56.78125 27.484375 56.78125 20.515625 
Q 56.78125 9.90625 50.3125 4.234375 
Q 43.84375 -1.421875 31.78125 -1.421875 
Q 19.734375 -1.421875 13.25 4.234375 
Q 6.78125 9.90625 6.78125 20.515625 
Q 6.78125 27.484375 10.78125 32.3125 
Q 14.796875 37.15625 21.921875 38.8125 
z
M 18.3125 54.390625 
Q 18.3125 48.734375 21.84375 45.5625 
Q 25.390625 42.390625 31.78125 42.390625 
Q 38.140625 42.390625 41.71875 45.5625 
Q 45.3125 48.734375 45.3125 54.390625 
Q 45.3125 60.0625 41.71875 63.234375 
Q 38.140625 66.40625 31.78125 66.40625 
Q 25.390625 66.40625 21.84375 63.234375 
Q 18.3125 60.0625 18.3125 54.390625 
z
" id="DejaVuSans-56"/>
       </defs>
       <use xlink:href="#DejaVuSans-56"/>
       <use x="63.623047" xlink:href="#DejaVuSans-48"/>
      </g>
     </g>
    </g>
    <g id="text_41">
     <!-- Counts -->
     <g transform="translate(587.065992 152.17125)rotate(-90)scale(0.1 -0.1)">
      <use xlink:href="#DejaVuSans-67"/>
      <use x="69.824219" xlink:href="#DejaVuSans-111"/>
      <use x="131.005859" xlink:href="#DejaVuSans-117"/>
      <use x="194.384766" xlink:href="#DejaVuSans-110"/>
      <use x="257.763672" xlink:href="#DejaVuSans-116"/>
      <use x="296.972656" xlink:href="#DejaVuSans-115"/>
     </g>
    </g>
   </g>
   <g id="line2d_36">
    <path clip-path="url(#p5bc383c22a)" d="M 623.615336 188.572883 
L 627.057068 181.150268 
L 630.713908 172.701355 
L 634.585856 163.170519 
L 638.888021 151.959988 
L 643.835511 138.421867 
L 650.934083 118.273483 
L 659.968629 92.713193 
L 664.485902 80.588594 
L 668.142742 71.362144 
L 671.369366 63.79072 
L 674.380881 57.299492 
L 676.96218 52.238542 
L 679.32837 48.048595 
L 681.694561 44.321717 
L 683.845643 41.360067 
L 685.781618 39.058469 
L 687.717592 37.114407 
L 689.438458 35.695002 
L 691.159324 34.572449 
L 692.665081 33.837547 
L 694.170839 33.336051 
L 695.676597 33.069618 
L 697.182354 33.039129 
L 698.688112 33.244684 
L 700.19387 33.685604 
L 701.699627 34.360433 
L 703.205385 35.266946 
L 704.926251 36.582794 
L 706.647117 38.191699 
L 708.583091 40.343428 
L 710.519065 42.845817 
L 712.670148 46.021277 
L 714.82123 49.59254 
L 717.187421 53.95063 
L 719.76872 59.180081 
L 722.565127 65.351828 
L 725.79175 73.046523 
L 729.44859 82.385926 
L 733.750755 94.01456 
L 739.773786 111.003476 
L 751.604739 144.49319 
L 756.552229 157.748005 
L 760.854394 168.637623 
L 764.726342 177.834498 
L 768.383182 185.939717 
L 771.824914 193.022388 
L 775.051537 199.167472 
L 778.278161 204.82924 
L 781.289676 209.680253 
L 784.301192 214.120716 
L 787.312707 218.162544 
L 790.324223 221.821156 
L 793.335738 225.114793 
L 796.347253 228.063862 
L 799.358769 230.690316 
L 802.370284 233.017093 
L 805.381799 235.067602 
L 808.608423 236.984617 
L 811.835047 238.639724 
L 815.276778 240.14736 
L 818.933619 241.492252 
L 822.805567 242.666241 
L 826.892623 243.668164 
L 831.409896 244.539889 
L 836.357386 245.265288 
L 838.508468 245.51916 
L 838.508468 245.51916 
" style="fill:none;stroke:#ff7f0e;stroke-linecap:square;stroke-width:1.5;"/>
   </g>
   <g id="patch_48">
    <path d="M 612.87068 247.118125 
L 612.87068 22.318125 
" style="fill:none;stroke:#000000;stroke-linecap:square;stroke-linejoin:miter;stroke-width:0.8;"/>
   </g>
   <g id="patch_49">
    <path d="M 849.253125 247.118125 
L 849.253125 22.318125 
" style="fill:none;stroke:#000000;stroke-linecap:square;stroke-linejoin:miter;stroke-width:0.8;"/>
   </g>
   <g id="patch_50">
    <path d="M 612.87068 247.118125 
L 849.253125 247.118125 
" style="fill:none;stroke:#000000;stroke-linecap:square;stroke-linejoin:miter;stroke-width:0.8;"/>
   </g>
   <g id="patch_51">
    <path d="M 612.87068 22.318125 
L 849.253125 22.318125 
" style="fill:none;stroke:#000000;stroke-linecap:square;stroke-linejoin:miter;stroke-width:0.8;"/>
   </g>
   <g id="text_42">
    <!-- University Rating -->
    <g transform="translate(679.547215 16.318125)scale(0.12 -0.12)">
     <defs>
      <path d="M 8.6875 72.90625 
L 18.609375 72.90625 
L 18.609375 28.609375 
Q 18.609375 16.890625 22.84375 11.734375 
Q 27.09375 6.59375 36.625 6.59375 
Q 46.09375 6.59375 50.34375 11.734375 
Q 54.59375 16.890625 54.59375 28.609375 
L 54.59375 72.90625 
L 64.5 72.90625 
L 64.5 27.390625 
Q 64.5 13.140625 57.4375 5.859375 
Q 50.390625 -1.421875 36.625 -1.421875 
Q 22.796875 -1.421875 15.734375 5.859375 
Q 8.6875 13.140625 8.6875 27.390625 
z
" id="DejaVuSans-85"/>
      <path d="M 9.421875 54.6875 
L 18.40625 54.6875 
L 18.40625 0 
L 9.421875 0 
z
M 9.421875 75.984375 
L 18.40625 75.984375 
L 18.40625 64.59375 
L 9.421875 64.59375 
z
" id="DejaVuSans-105"/>
      <path d="M 2.984375 54.6875 
L 12.5 54.6875 
L 29.59375 8.796875 
L 46.6875 54.6875 
L 56.203125 54.6875 
L 35.6875 0 
L 23.484375 0 
z
" id="DejaVuSans-118"/>
      <path d="M 32.171875 -5.078125 
Q 28.375 -14.84375 24.75 -17.8125 
Q 21.140625 -20.796875 15.09375 -20.796875 
L 7.90625 -20.796875 
L 7.90625 -13.28125 
L 13.1875 -13.28125 
Q 16.890625 -13.28125 18.9375 -11.515625 
Q 21 -9.765625 23.484375 -3.21875 
L 25.09375 0.875 
L 2.984375 54.6875 
L 12.5 54.6875 
L 29.59375 11.921875 
L 46.6875 54.6875 
L 56.203125 54.6875 
z
" id="DejaVuSans-121"/>
      <path d="M 45.40625 27.984375 
Q 45.40625 37.75 41.375 43.109375 
Q 37.359375 48.484375 30.078125 48.484375 
Q 22.859375 48.484375 18.828125 43.109375 
Q 14.796875 37.75 14.796875 27.984375 
Q 14.796875 18.265625 18.828125 12.890625 
Q 22.859375 7.515625 30.078125 7.515625 
Q 37.359375 7.515625 41.375 12.890625 
Q 45.40625 18.265625 45.40625 27.984375 
z
M 54.390625 6.78125 
Q 54.390625 -7.171875 48.1875 -13.984375 
Q 42 -20.796875 29.203125 -20.796875 
Q 24.46875 -20.796875 20.265625 -20.09375 
Q 16.0625 -19.390625 12.109375 -17.921875 
L 12.109375 -9.1875 
Q 16.0625 -11.328125 19.921875 -12.34375 
Q 23.78125 -13.375 27.78125 -13.375 
Q 36.625 -13.375 41.015625 -8.765625 
Q 45.40625 -4.15625 45.40625 5.171875 
L 45.40625 9.625 
Q 42.625 4.78125 38.28125 2.390625 
Q 33.9375 0 27.875 0 
Q 17.828125 0 11.671875 7.65625 
Q 5.515625 15.328125 5.515625 27.984375 
Q 5.515625 40.671875 11.671875 48.328125 
Q 17.828125 56 27.875 56 
Q 33.9375 56 38.28125 53.609375 
Q 42.625 51.21875 45.40625 46.390625 
L 45.40625 54.6875 
L 54.390625 54.6875 
z
" id="DejaVuSans-103"/>
     </defs>
     <use xlink:href="#DejaVuSans-85"/>
     <use x="73.193359" xlink:href="#DejaVuSans-110"/>
     <use x="136.572266" xlink:href="#DejaVuSans-105"/>
     <use x="164.355469" xlink:href="#DejaVuSans-118"/>
     <use x="223.535156" xlink:href="#DejaVuSans-101"/>
     <use x="285.058594" xlink:href="#DejaVuSans-114"/>
     <use x="326.171875" xlink:href="#DejaVuSans-115"/>
     <use x="378.271484" xlink:href="#DejaVuSans-105"/>
     <use x="406.054688" xlink:href="#DejaVuSans-116"/>
     <use x="445.263672" xlink:href="#DejaVuSans-121"/>
     <use x="504.443359" xlink:href="#DejaVuSans-32"/>
     <use x="536.230469" xlink:href="#DejaVuSans-82"/>
     <use x="603.462891" xlink:href="#DejaVuSans-97"/>
     <use x="664.742188" xlink:href="#DejaVuSans-116"/>
     <use x="703.951172" xlink:href="#DejaVuSans-105"/>
     <use x="731.734375" xlink:href="#DejaVuSans-110"/>
     <use x="795.113281" xlink:href="#DejaVuSans-103"/>
    </g>
   </g>
  </g>
  <g id="axes_4">
   <g id="patch_52">
    <path d="M 40.603125 529.718125 
L 276.98557 529.718125 
L 276.98557 304.918125 
L 40.603125 304.918125 
z
" style="fill:#ffffff;"/>
   </g>
   <g id="patch_53">
    <path clip-path="url(#p155e2381f4)" d="M 51.347782 529.718125 
L 75.224796 529.718125 
L 75.224796 499.133091 
L 51.347782 499.133091 
z
" style="fill:#1f77b4;"/>
   </g>
   <g id="patch_54">
    <path clip-path="url(#p155e2381f4)" d="M 75.224796 529.718125 
L 99.101811 529.718125 
L 99.101811 427.768012 
L 75.224796 427.768012 
z
" style="fill:#1f77b4;"/>
   </g>
   <g id="patch_55">
    <path clip-path="url(#p155e2381f4)" d="M 99.101811 529.718125 
L 122.978826 529.718125 
L 122.978826 381.890461 
L 99.101811 381.890461 
z
" style="fill:#1f77b4;"/>
   </g>
   <g id="patch_56">
    <path clip-path="url(#p155e2381f4)" d="M 122.978826 529.718125 
L 146.85584 529.718125 
L 146.85584 315.622887 
L 122.978826 315.622887 
z
" style="fill:#1f77b4;"/>
   </g>
   <g id="patch_57">
    <path clip-path="url(#p155e2381f4)" d="M 146.85584 529.718125 
L 170.732855 529.718125 
L 170.732855 336.01291 
L 146.85584 336.01291 
z
" style="fill:#1f77b4;"/>
   </g>
   <g id="patch_58">
    <path clip-path="url(#p155e2381f4)" d="M 170.732855 529.718125 
L 194.60987 529.718125 
L 194.60987 361.500438 
L 170.732855 361.500438 
z
" style="fill:#1f77b4;"/>
   </g>
   <g id="patch_59">
    <path clip-path="url(#p155e2381f4)" d="M 194.60987 529.718125 
L 218.486884 529.718125 
L 218.486884 432.865517 
L 194.60987 432.865517 
z
" style="fill:#1f77b4;"/>
   </g>
   <g id="patch_60">
    <path clip-path="url(#p155e2381f4)" d="M 218.486884 529.718125 
L 242.363899 529.718125 
L 242.363899 499.133091 
L 218.486884 499.133091 
z
" style="fill:#1f77b4;"/>
   </g>
   <g id="patch_61">
    <path clip-path="url(#p155e2381f4)" d="M 242.363899 529.718125 
L 266.240914 529.718125 
L 266.240914 519.523114 
L 242.363899 519.523114 
z
" style="fill:#1f77b4;"/>
   </g>
   <g id="matplotlib.axis_7">
    <g id="xtick_16">
     <g id="line2d_37">
      <g>
       <use style="stroke:#000000;stroke-width:0.8;" x="51.347782" xlink:href="#m4392af8e6e" y="529.718125"/>
      </g>
     </g>
     <g id="text_43">
      <!-- 1 -->
      <g transform="translate(48.166532 544.316562)scale(0.1 -0.1)">
       <use xlink:href="#DejaVuSans-49"/>
      </g>
     </g>
    </g>
    <g id="xtick_17">
     <g id="line2d_38">
      <g>
       <use style="stroke:#000000;stroke-width:0.8;" x="105.071065" xlink:href="#m4392af8e6e" y="529.718125"/>
      </g>
     </g>
     <g id="text_44">
      <!-- 2 -->
      <g transform="translate(101.889815 544.316562)scale(0.1 -0.1)">
       <use xlink:href="#DejaVuSans-50"/>
      </g>
     </g>
    </g>
    <g id="xtick_18">
     <g id="line2d_39">
      <g>
       <use style="stroke:#000000;stroke-width:0.8;" x="158.794348" xlink:href="#m4392af8e6e" y="529.718125"/>
      </g>
     </g>
     <g id="text_45">
      <!-- 3 -->
      <g transform="translate(155.613098 544.316562)scale(0.1 -0.1)">
       <use xlink:href="#DejaVuSans-51"/>
      </g>
     </g>
    </g>
    <g id="xtick_19">
     <g id="line2d_40">
      <g>
       <use style="stroke:#000000;stroke-width:0.8;" x="212.517631" xlink:href="#m4392af8e6e" y="529.718125"/>
      </g>
     </g>
     <g id="text_46">
      <!-- 4 -->
      <g transform="translate(209.336381 544.316562)scale(0.1 -0.1)">
       <use xlink:href="#DejaVuSans-52"/>
      </g>
     </g>
    </g>
    <g id="xtick_20">
     <g id="line2d_41">
      <g>
       <use style="stroke:#000000;stroke-width:0.8;" x="266.240914" xlink:href="#m4392af8e6e" y="529.718125"/>
      </g>
     </g>
     <g id="text_47">
      <!-- 5 -->
      <g transform="translate(263.059664 544.316562)scale(0.1 -0.1)">
       <use xlink:href="#DejaVuSans-53"/>
      </g>
     </g>
    </g>
    <g id="text_48">
     <!-- Value -->
     <g transform="translate(145.063098 557.994687)scale(0.1 -0.1)">
      <use xlink:href="#DejaVuSans-86"/>
      <use x="60.658203" xlink:href="#DejaVuSans-97"/>
      <use x="121.9375" xlink:href="#DejaVuSans-108"/>
      <use x="149.720703" xlink:href="#DejaVuSans-117"/>
      <use x="213.099609" xlink:href="#DejaVuSans-101"/>
     </g>
    </g>
   </g>
   <g id="matplotlib.axis_8">
    <g id="ytick_19">
     <g id="line2d_42">
      <g>
       <use style="stroke:#000000;stroke-width:0.8;" x="40.603125" xlink:href="#mdc94d99219" y="529.718125"/>
      </g>
     </g>
     <g id="text_49">
      <!-- 0 -->
      <g transform="translate(27.240625 533.517344)scale(0.1 -0.1)">
       <use xlink:href="#DejaVuSans-48"/>
      </g>
     </g>
    </g>
    <g id="ytick_20">
     <g id="line2d_43">
      <g>
       <use style="stroke:#000000;stroke-width:0.8;" x="40.603125" xlink:href="#mdc94d99219" y="504.230597"/>
      </g>
     </g>
     <g id="text_50">
      <!-- 5 -->
      <g transform="translate(27.240625 508.029815)scale(0.1 -0.1)">
       <use xlink:href="#DejaVuSans-53"/>
      </g>
     </g>
    </g>
    <g id="ytick_21">
     <g id="line2d_44">
      <g>
       <use style="stroke:#000000;stroke-width:0.8;" x="40.603125" xlink:href="#mdc94d99219" y="478.743068"/>
      </g>
     </g>
     <g id="text_51">
      <!-- 10 -->
      <g transform="translate(20.878125 482.542287)scale(0.1 -0.1)">
       <use xlink:href="#DejaVuSans-49"/>
       <use x="63.623047" xlink:href="#DejaVuSans-48"/>
      </g>
     </g>
    </g>
    <g id="ytick_22">
     <g id="line2d_45">
      <g>
       <use style="stroke:#000000;stroke-width:0.8;" x="40.603125" xlink:href="#mdc94d99219" y="453.25554"/>
      </g>
     </g>
     <g id="text_52">
      <!-- 15 -->
      <g transform="translate(20.878125 457.054759)scale(0.1 -0.1)">
       <use xlink:href="#DejaVuSans-49"/>
       <use x="63.623047" xlink:href="#DejaVuSans-53"/>
      </g>
     </g>
    </g>
    <g id="ytick_23">
     <g id="line2d_46">
      <g>
       <use style="stroke:#000000;stroke-width:0.8;" x="40.603125" xlink:href="#mdc94d99219" y="427.768012"/>
      </g>
     </g>
     <g id="text_53">
      <!-- 20 -->
      <g transform="translate(20.878125 431.56723)scale(0.1 -0.1)">
       <use xlink:href="#DejaVuSans-50"/>
       <use x="63.623047" xlink:href="#DejaVuSans-48"/>
      </g>
     </g>
    </g>
    <g id="ytick_24">
     <g id="line2d_47">
      <g>
       <use style="stroke:#000000;stroke-width:0.8;" x="40.603125" xlink:href="#mdc94d99219" y="402.280483"/>
      </g>
     </g>
     <g id="text_54">
      <!-- 25 -->
      <g transform="translate(20.878125 406.079702)scale(0.1 -0.1)">
       <use xlink:href="#DejaVuSans-50"/>
       <use x="63.623047" xlink:href="#DejaVuSans-53"/>
      </g>
     </g>
    </g>
    <g id="ytick_25">
     <g id="line2d_48">
      <g>
       <use style="stroke:#000000;stroke-width:0.8;" x="40.603125" xlink:href="#mdc94d99219" y="376.792955"/>
      </g>
     </g>
     <g id="text_55">
      <!-- 30 -->
      <g transform="translate(20.878125 380.592174)scale(0.1 -0.1)">
       <use xlink:href="#DejaVuSans-51"/>
       <use x="63.623047" xlink:href="#DejaVuSans-48"/>
      </g>
     </g>
    </g>
    <g id="ytick_26">
     <g id="line2d_49">
      <g>
       <use style="stroke:#000000;stroke-width:0.8;" x="40.603125" xlink:href="#mdc94d99219" y="351.305427"/>
      </g>
     </g>
     <g id="text_56">
      <!-- 35 -->
      <g transform="translate(20.878125 355.104645)scale(0.1 -0.1)">
       <use xlink:href="#DejaVuSans-51"/>
       <use x="63.623047" xlink:href="#DejaVuSans-53"/>
      </g>
     </g>
    </g>
    <g id="ytick_27">
     <g id="line2d_50">
      <g>
       <use style="stroke:#000000;stroke-width:0.8;" x="40.603125" xlink:href="#mdc94d99219" y="325.817898"/>
      </g>
     </g>
     <g id="text_57">
      <!-- 40 -->
      <g transform="translate(20.878125 329.617117)scale(0.1 -0.1)">
       <use xlink:href="#DejaVuSans-52"/>
       <use x="63.623047" xlink:href="#DejaVuSans-48"/>
      </g>
     </g>
    </g>
    <g id="text_58">
     <!-- Counts -->
     <g transform="translate(14.798438 434.77125)rotate(-90)scale(0.1 -0.1)">
      <use xlink:href="#DejaVuSans-67"/>
      <use x="69.824219" xlink:href="#DejaVuSans-111"/>
      <use x="131.005859" xlink:href="#DejaVuSans-117"/>
      <use x="194.384766" xlink:href="#DejaVuSans-110"/>
      <use x="257.763672" xlink:href="#DejaVuSans-116"/>
      <use x="296.972656" xlink:href="#DejaVuSans-115"/>
     </g>
    </g>
   </g>
   <g id="line2d_51">
    <path clip-path="url(#p155e2381f4)" d="M 51.347782 503.14389 
L 54.359297 499.467746 
L 57.370812 495.425771 
L 60.382328 491.004826 
L 63.393843 486.195059 
L 66.620467 480.603575 
L 69.84709 474.557343 
L 73.288822 467.612644 
L 76.730554 460.171871 
L 80.387394 451.751651 
L 84.474451 441.76844 
L 88.991724 430.130837 
L 94.584538 415.061003 
L 112.65363 365.809494 
L 116.525578 356.173271 
L 119.96731 348.182415 
L 122.978826 341.727498 
L 125.775233 336.249068 
L 128.356532 331.680869 
L 130.722722 327.940213 
L 132.873805 324.934442 
L 135.024887 322.323795 
L 136.960861 320.325449 
L 138.681727 318.837039 
L 140.402593 317.625852 
L 142.123459 316.696772 
L 143.629217 316.118226 
L 145.134974 315.760361 
L 146.640732 315.62429 
L 148.14649 315.710436 
L 149.652248 316.018531 
L 151.158005 316.547616 
L 152.663763 317.296048 
L 154.384629 318.416979 
L 156.105495 319.816825 
L 157.826361 321.489956 
L 159.762335 323.690514 
L 161.698309 326.217375 
L 163.849391 329.392307 
L 166.215582 333.3088 
L 168.796881 338.055302 
L 171.593288 343.709539 
L 174.604803 350.332122 
L 178.046535 358.485528 
L 181.918484 368.266184 
L 186.650865 380.859165 
L 194.179653 401.636336 
L 202.783983 425.229248 
L 207.946581 438.736735 
L 212.248746 449.401437 
L 216.120694 458.444864 
L 219.777534 466.448966 
L 223.219266 473.474748 
L 226.660998 479.99081 
L 229.887621 485.630017 
L 233.114245 490.815629 
L 236.12576 495.252322 
L 239.137276 499.309571 
L 242.148791 503.000396 
L 245.160306 506.340535 
L 248.171822 509.347876 
L 251.183337 512.041906 
L 254.194852 514.44321 
L 257.206368 516.573001 
L 260.432991 518.577977 
L 263.659615 520.322043 
L 266.240914 521.546644 
L 266.240914 521.546644 
" style="fill:none;stroke:#ff7f0e;stroke-linecap:square;stroke-width:1.5;"/>
   </g>
   <g id="patch_62">
    <path d="M 40.603125 529.718125 
L 40.603125 304.918125 
" style="fill:none;stroke:#000000;stroke-linecap:square;stroke-linejoin:miter;stroke-width:0.8;"/>
   </g>
   <g id="patch_63">
    <path d="M 276.98557 529.718125 
L 276.98557 304.918125 
" style="fill:none;stroke:#000000;stroke-linecap:square;stroke-linejoin:miter;stroke-width:0.8;"/>
   </g>
   <g id="patch_64">
    <path d="M 40.603125 529.718125 
L 276.98557 529.718125 
" style="fill:none;stroke:#000000;stroke-linecap:square;stroke-linejoin:miter;stroke-width:0.8;"/>
   </g>
   <g id="patch_65">
    <path d="M 40.603125 304.918125 
L 276.98557 304.918125 
" style="fill:none;stroke:#000000;stroke-linecap:square;stroke-linejoin:miter;stroke-width:0.8;"/>
   </g>
   <g id="text_59">
    <!-- SOP -->
    <g transform="translate(146.644348 298.918125)scale(0.12 -0.12)">
     <defs>
      <path d="M 19.671875 64.796875 
L 19.671875 37.40625 
L 32.078125 37.40625 
Q 38.96875 37.40625 42.71875 40.96875 
Q 46.484375 44.53125 46.484375 51.125 
Q 46.484375 57.671875 42.71875 61.234375 
Q 38.96875 64.796875 32.078125 64.796875 
z
M 9.8125 72.90625 
L 32.078125 72.90625 
Q 44.34375 72.90625 50.609375 67.359375 
Q 56.890625 61.8125 56.890625 51.125 
Q 56.890625 40.328125 50.609375 34.8125 
Q 44.34375 29.296875 32.078125 29.296875 
L 19.671875 29.296875 
L 19.671875 0 
L 9.8125 0 
z
" id="DejaVuSans-80"/>
     </defs>
     <use xlink:href="#DejaVuSans-83"/>
     <use x="63.476562" xlink:href="#DejaVuSans-79"/>
     <use x="142.1875" xlink:href="#DejaVuSans-80"/>
    </g>
   </g>
  </g>
  <g id="axes_5">
   <g id="patch_66">
    <path d="M 326.736902 529.718125 
L 563.119348 529.718125 
L 563.119348 304.918125 
L 326.736902 304.918125 
z
" style="fill:#ffffff;"/>
   </g>
   <g id="patch_67">
    <path clip-path="url(#p9984b4ee4a)" d="M 337.481559 529.718125 
L 361.358574 529.718125 
L 361.358574 526.089392 
L 337.481559 526.089392 
z
" style="fill:#1f77b4;"/>
   </g>
   <g id="patch_68">
    <path clip-path="url(#p9984b4ee4a)" d="M 361.358574 529.718125 
L 385.235588 529.718125 
L 385.235588 507.945728 
L 361.358574 507.945728 
z
" style="fill:#1f77b4;"/>
   </g>
   <g id="patch_69">
    <path clip-path="url(#p9984b4ee4a)" d="M 385.235588 529.718125 
L 409.112603 529.718125 
L 409.112603 402.712475 
L 385.235588 402.712475 
z
" style="fill:#1f77b4;"/>
   </g>
   <g id="patch_70">
    <path clip-path="url(#p9984b4ee4a)" d="M 409.112603 529.718125 
L 432.989618 529.718125 
L 432.989618 424.484872 
L 409.112603 424.484872 
z
" style="fill:#1f77b4;"/>
   </g>
   <g id="patch_71">
    <path clip-path="url(#p9984b4ee4a)" d="M 432.989618 529.718125 
L 456.866632 529.718125 
L 456.866632 315.622887 
L 432.989618 315.622887 
z
" style="fill:#1f77b4;"/>
   </g>
   <g id="patch_72">
    <path clip-path="url(#p9984b4ee4a)" d="M 456.866632 529.718125 
L 480.743647 529.718125 
L 480.743647 395.45501 
L 456.866632 395.45501 
z
" style="fill:#1f77b4;"/>
   </g>
   <g id="patch_73">
    <path clip-path="url(#p9984b4ee4a)" d="M 480.743647 529.718125 
L 504.620662 529.718125 
L 504.620662 446.257269 
L 480.743647 446.257269 
z
" style="fill:#1f77b4;"/>
   </g>
   <g id="patch_74">
    <path clip-path="url(#p9984b4ee4a)" d="M 504.620662 529.718125 
L 528.497676 529.718125 
L 528.497676 515.203194 
L 504.620662 515.203194 
z
" style="fill:#1f77b4;"/>
   </g>
   <g id="patch_75">
    <path clip-path="url(#p9984b4ee4a)" d="M 528.497676 529.718125 
L 552.374691 529.718125 
L 552.374691 526.089392 
L 528.497676 526.089392 
z
" style="fill:#1f77b4;"/>
   </g>
   <g id="matplotlib.axis_9">
    <g id="xtick_21">
     <g id="line2d_52">
      <g>
       <use style="stroke:#000000;stroke-width:0.8;" x="337.481559" xlink:href="#m4392af8e6e" y="529.718125"/>
      </g>
     </g>
     <g id="text_60">
      <!-- 1 -->
      <g transform="translate(334.300309 544.316562)scale(0.1 -0.1)">
       <use xlink:href="#DejaVuSans-49"/>
      </g>
     </g>
    </g>
    <g id="xtick_22">
     <g id="line2d_53">
      <g>
       <use style="stroke:#000000;stroke-width:0.8;" x="391.204842" xlink:href="#m4392af8e6e" y="529.718125"/>
      </g>
     </g>
     <g id="text_61">
      <!-- 2 -->
      <g transform="translate(388.023592 544.316562)scale(0.1 -0.1)">
       <use xlink:href="#DejaVuSans-50"/>
      </g>
     </g>
    </g>
    <g id="xtick_23">
     <g id="line2d_54">
      <g>
       <use style="stroke:#000000;stroke-width:0.8;" x="444.928125" xlink:href="#m4392af8e6e" y="529.718125"/>
      </g>
     </g>
     <g id="text_62">
      <!-- 3 -->
      <g transform="translate(441.746875 544.316562)scale(0.1 -0.1)">
       <use xlink:href="#DejaVuSans-51"/>
      </g>
     </g>
    </g>
    <g id="xtick_24">
     <g id="line2d_55">
      <g>
       <use style="stroke:#000000;stroke-width:0.8;" x="498.651408" xlink:href="#m4392af8e6e" y="529.718125"/>
      </g>
     </g>
     <g id="text_63">
      <!-- 4 -->
      <g transform="translate(495.470158 544.316562)scale(0.1 -0.1)">
       <use xlink:href="#DejaVuSans-52"/>
      </g>
     </g>
    </g>
    <g id="xtick_25">
     <g id="line2d_56">
      <g>
       <use style="stroke:#000000;stroke-width:0.8;" x="552.374691" xlink:href="#m4392af8e6e" y="529.718125"/>
      </g>
     </g>
     <g id="text_64">
      <!-- 5 -->
      <g transform="translate(549.193441 544.316562)scale(0.1 -0.1)">
       <use xlink:href="#DejaVuSans-53"/>
      </g>
     </g>
    </g>
    <g id="text_65">
     <!-- Value -->
     <g transform="translate(431.196875 557.994687)scale(0.1 -0.1)">
      <use xlink:href="#DejaVuSans-86"/>
      <use x="60.658203" xlink:href="#DejaVuSans-97"/>
      <use x="121.9375" xlink:href="#DejaVuSans-108"/>
      <use x="149.720703" xlink:href="#DejaVuSans-117"/>
      <use x="213.099609" xlink:href="#DejaVuSans-101"/>
     </g>
    </g>
   </g>
   <g id="matplotlib.axis_10">
    <g id="ytick_28">
     <g id="line2d_57">
      <g>
       <use style="stroke:#000000;stroke-width:0.8;" x="326.736902" xlink:href="#mdc94d99219" y="529.718125"/>
      </g>
     </g>
     <g id="text_66">
      <!-- 0 -->
      <g transform="translate(313.374402 533.517344)scale(0.1 -0.1)">
       <use xlink:href="#DejaVuSans-48"/>
      </g>
     </g>
    </g>
    <g id="ytick_29">
     <g id="line2d_58">
      <g>
       <use style="stroke:#000000;stroke-width:0.8;" x="326.736902" xlink:href="#mdc94d99219" y="493.430797"/>
      </g>
     </g>
     <g id="text_67">
      <!-- 10 -->
      <g transform="translate(307.011902 497.230015)scale(0.1 -0.1)">
       <use xlink:href="#DejaVuSans-49"/>
       <use x="63.623047" xlink:href="#DejaVuSans-48"/>
      </g>
     </g>
    </g>
    <g id="ytick_30">
     <g id="line2d_59">
      <g>
       <use style="stroke:#000000;stroke-width:0.8;" x="326.736902" xlink:href="#mdc94d99219" y="457.143468"/>
      </g>
     </g>
     <g id="text_68">
      <!-- 20 -->
      <g transform="translate(307.011902 460.942687)scale(0.1 -0.1)">
       <use xlink:href="#DejaVuSans-50"/>
       <use x="63.623047" xlink:href="#DejaVuSans-48"/>
      </g>
     </g>
    </g>
    <g id="ytick_31">
     <g id="line2d_60">
      <g>
       <use style="stroke:#000000;stroke-width:0.8;" x="326.736902" xlink:href="#mdc94d99219" y="420.85614"/>
      </g>
     </g>
     <g id="text_69">
      <!-- 30 -->
      <g transform="translate(307.011902 424.655358)scale(0.1 -0.1)">
       <use xlink:href="#DejaVuSans-51"/>
       <use x="63.623047" xlink:href="#DejaVuSans-48"/>
      </g>
     </g>
    </g>
    <g id="ytick_32">
     <g id="line2d_61">
      <g>
       <use style="stroke:#000000;stroke-width:0.8;" x="326.736902" xlink:href="#mdc94d99219" y="384.568811"/>
      </g>
     </g>
     <g id="text_70">
      <!-- 40 -->
      <g transform="translate(307.011902 388.36803)scale(0.1 -0.1)">
       <use xlink:href="#DejaVuSans-52"/>
       <use x="63.623047" xlink:href="#DejaVuSans-48"/>
      </g>
     </g>
    </g>
    <g id="ytick_33">
     <g id="line2d_62">
      <g>
       <use style="stroke:#000000;stroke-width:0.8;" x="326.736902" xlink:href="#mdc94d99219" y="348.281483"/>
      </g>
     </g>
     <g id="text_71">
      <!-- 50 -->
      <g transform="translate(307.011902 352.080701)scale(0.1 -0.1)">
       <use xlink:href="#DejaVuSans-53"/>
       <use x="63.623047" xlink:href="#DejaVuSans-48"/>
      </g>
     </g>
    </g>
    <g id="ytick_34">
     <g id="line2d_63">
      <g>
       <use style="stroke:#000000;stroke-width:0.8;" x="326.736902" xlink:href="#mdc94d99219" y="311.994154"/>
      </g>
     </g>
     <g id="text_72">
      <!-- 60 -->
      <g transform="translate(307.011902 315.793373)scale(0.1 -0.1)">
       <use xlink:href="#DejaVuSans-54"/>
       <use x="63.623047" xlink:href="#DejaVuSans-48"/>
      </g>
     </g>
    </g>
    <g id="text_73">
     <!-- Counts -->
     <g transform="translate(300.932215 434.77125)rotate(-90)scale(0.1 -0.1)">
      <use xlink:href="#DejaVuSans-67"/>
      <use x="69.824219" xlink:href="#DejaVuSans-111"/>
      <use x="131.005859" xlink:href="#DejaVuSans-117"/>
      <use x="194.384766" xlink:href="#DejaVuSans-110"/>
      <use x="257.763672" xlink:href="#DejaVuSans-116"/>
      <use x="296.972656" xlink:href="#DejaVuSans-115"/>
     </g>
    </g>
   </g>
   <g id="line2d_64">
    <path clip-path="url(#p9984b4ee4a)" d="M 337.481559 523.4351 
L 340.493074 522.039389 
L 343.50459 520.388564 
L 346.300997 518.598017 
L 349.097404 516.530743 
L 351.678703 514.352122 
L 354.260002 511.890637 
L 356.841301 509.123858 
L 359.422599 506.030068 
L 362.003898 502.588771 
L 364.585197 498.781253 
L 367.166496 494.591189 
L 369.962903 489.604914 
L 372.75931 484.142114 
L 375.555717 478.196811 
L 378.567233 471.255899 
L 381.578748 463.768202 
L 384.805372 455.165555 
L 388.462212 444.746742 
L 392.549268 432.372209 
L 397.28165 417.304405 
L 414.275201 362.469123 
L 417.716933 352.534525 
L 420.728448 344.52731 
L 423.309747 338.273171 
L 425.675937 333.10119 
L 427.82702 328.91074 
L 429.762994 325.586438 
L 431.698968 322.709918 
L 433.419834 320.545447 
L 434.925592 318.964631 
L 436.431349 317.683276 
L 437.937107 316.706973 
L 439.227757 316.116215 
L 440.518406 315.754645 
L 441.809056 315.62343 
L 443.099705 315.722995 
L 444.390354 316.053018 
L 445.681004 316.612432 
L 446.971653 317.399433 
L 448.477411 318.601826 
L 449.983169 320.105261 
L 451.488926 321.903201 
L 453.209792 324.308575 
L 455.145766 327.445345 
L 457.081741 331.016851 
L 459.232823 335.46478 
L 461.599014 340.896912 
L 464.180313 347.404873 
L 466.97672 355.054447 
L 470.203343 364.525197 
L 474.2904 377.269827 
L 480.098322 396.214074 
L 489.563085 427.090505 
L 494.080358 441.029543 
L 497.952306 452.278687 
L 501.394038 461.631204 
L 504.620662 469.789457 
L 507.632177 476.841917 
L 510.643692 483.337508 
L 513.4401 488.867763 
L 516.236507 493.920267 
L 519.032914 498.506246 
L 521.829321 502.642124 
L 524.41062 506.078157 
L 526.991919 509.166973 
L 529.573218 511.929091 
L 532.154517 514.386242 
L 534.950924 516.730038 
L 537.747331 518.771087 
L 540.543738 520.537975 
L 543.555253 522.16609 
L 546.566769 523.54182 
L 549.793392 524.771305 
L 552.374691 525.596231 
L 552.374691 525.596231 
" style="fill:none;stroke:#ff7f0e;stroke-linecap:square;stroke-width:1.5;"/>
   </g>
   <g id="patch_76">
    <path d="M 326.736902 529.718125 
L 326.736902 304.918125 
" style="fill:none;stroke:#000000;stroke-linecap:square;stroke-linejoin:miter;stroke-width:0.8;"/>
   </g>
   <g id="patch_77">
    <path d="M 563.119348 529.718125 
L 563.119348 304.918125 
" style="fill:none;stroke:#000000;stroke-linecap:square;stroke-linejoin:miter;stroke-width:0.8;"/>
   </g>
   <g id="patch_78">
    <path d="M 326.736902 529.718125 
L 563.119348 529.718125 
" style="fill:none;stroke:#000000;stroke-linecap:square;stroke-linejoin:miter;stroke-width:0.8;"/>
   </g>
   <g id="patch_79">
    <path d="M 326.736902 304.918125 
L 563.119348 304.918125 
" style="fill:none;stroke:#000000;stroke-linecap:square;stroke-linejoin:miter;stroke-width:0.8;"/>
   </g>
   <g id="text_74">
    <!-- LOR  -->
    <g transform="translate(431.003438 298.918125)scale(0.12 -0.12)">
     <use xlink:href="#DejaVuSans-76"/>
     <use x="52.087891" xlink:href="#DejaVuSans-79"/>
     <use x="130.798828" xlink:href="#DejaVuSans-82"/>
     <use x="200.28125" xlink:href="#DejaVuSans-32"/>
    </g>
   </g>
  </g>
  <g id="axes_6">
   <g id="patch_80">
    <path d="M 612.87068 529.718125 
L 849.253125 529.718125 
L 849.253125 304.918125 
L 612.87068 304.918125 
z
" style="fill:#ffffff;"/>
   </g>
   <g id="patch_81">
    <path clip-path="url(#p93039288a5)" d="M 623.615336 529.718125 
L 637.941545 529.718125 
L 637.941545 523.027649 
L 623.615336 523.027649 
z
" style="fill:#1f77b4;"/>
   </g>
   <g id="patch_82">
    <path clip-path="url(#p93039288a5)" d="M 637.941545 529.718125 
L 652.267754 529.718125 
L 652.267754 529.718125 
L 637.941545 529.718125 
z
" style="fill:#1f77b4;"/>
   </g>
   <g id="patch_83">
    <path clip-path="url(#p93039288a5)" d="M 652.267754 529.718125 
L 666.593963 529.718125 
L 666.593963 509.646696 
L 652.267754 509.646696 
z
" style="fill:#1f77b4;"/>
   </g>
   <g id="patch_84">
    <path clip-path="url(#p93039288a5)" d="M 666.593963 529.718125 
L 680.920171 529.718125 
L 680.920171 482.884792 
L 666.593963 482.884792 
z
" style="fill:#1f77b4;"/>
   </g>
   <g id="patch_85">
    <path clip-path="url(#p93039288a5)" d="M 680.920171 529.718125 
L 695.24638 529.718125 
L 695.24638 476.194315 
L 680.920171 476.194315 
z
" style="fill:#1f77b4;"/>
   </g>
   <g id="patch_86">
    <path clip-path="url(#p93039288a5)" d="M 695.24638 529.718125 
L 709.572589 529.718125 
L 709.572589 436.051458 
L 695.24638 436.051458 
z
" style="fill:#1f77b4;"/>
   </g>
   <g id="patch_87">
    <path clip-path="url(#p93039288a5)" d="M 709.572589 529.718125 
L 723.898798 529.718125 
L 723.898798 389.218125 
L 709.572589 389.218125 
z
" style="fill:#1f77b4;"/>
   </g>
   <g id="patch_88">
    <path clip-path="url(#p93039288a5)" d="M 723.898798 529.718125 
L 738.225007 529.718125 
L 738.225007 349.075268 
L 723.898798 349.075268 
z
" style="fill:#1f77b4;"/>
   </g>
   <g id="patch_89">
    <path clip-path="url(#p93039288a5)" d="M 738.225007 529.718125 
L 752.551215 529.718125 
L 752.551215 322.313363 
L 738.225007 322.313363 
z
" style="fill:#1f77b4;"/>
   </g>
   <g id="patch_90">
    <path clip-path="url(#p93039288a5)" d="M 752.551215 529.718125 
L 766.877424 529.718125 
L 766.877424 389.218125 
L 752.551215 389.218125 
z
" style="fill:#1f77b4;"/>
   </g>
   <g id="patch_91">
    <path clip-path="url(#p93039288a5)" d="M 766.877424 529.718125 
L 781.203633 529.718125 
L 781.203633 315.622887 
L 766.877424 315.622887 
z
" style="fill:#1f77b4;"/>
   </g>
   <g id="patch_92">
    <path clip-path="url(#p93039288a5)" d="M 781.203633 529.718125 
L 795.529842 529.718125 
L 795.529842 409.289554 
L 781.203633 409.289554 
z
" style="fill:#1f77b4;"/>
   </g>
   <g id="patch_93">
    <path clip-path="url(#p93039288a5)" d="M 795.529842 529.718125 
L 809.856051 529.718125 
L 809.856051 482.884792 
L 795.529842 482.884792 
z
" style="fill:#1f77b4;"/>
   </g>
   <g id="patch_94">
    <path clip-path="url(#p93039288a5)" d="M 809.856051 529.718125 
L 824.18226 529.718125 
L 824.18226 502.95622 
L 809.856051 502.95622 
z
" style="fill:#1f77b4;"/>
   </g>
   <g id="patch_95">
    <path clip-path="url(#p93039288a5)" d="M 824.18226 529.718125 
L 838.508468 529.718125 
L 838.508468 523.027649 
L 824.18226 523.027649 
z
" style="fill:#1f77b4;"/>
   </g>
   <g id="matplotlib.axis_11">
    <g id="xtick_26">
     <g id="line2d_65">
      <g>
       <use style="stroke:#000000;stroke-width:0.8;" x="641.375099" xlink:href="#m4392af8e6e" y="529.718125"/>
      </g>
     </g>
     <g id="text_75">
      <!-- 7.0 -->
      <g transform="translate(633.423537 544.316562)scale(0.1 -0.1)">
       <defs>
        <path d="M 8.203125 72.90625 
L 55.078125 72.90625 
L 55.078125 68.703125 
L 28.609375 0 
L 18.3125 0 
L 43.21875 64.59375 
L 8.203125 64.59375 
z
" id="DejaVuSans-55"/>
        <path d="M 10.6875 12.40625 
L 21 12.40625 
L 21 0 
L 10.6875 0 
z
" id="DejaVuSans-46"/>
       </defs>
       <use xlink:href="#DejaVuSans-55"/>
       <use x="63.623047" xlink:href="#DejaVuSans-46"/>
       <use x="95.410156" xlink:href="#DejaVuSans-48"/>
      </g>
     </g>
    </g>
    <g id="xtick_27">
     <g id="line2d_66">
      <g>
       <use style="stroke:#000000;stroke-width:0.8;" x="685.774507" xlink:href="#m4392af8e6e" y="529.718125"/>
      </g>
     </g>
     <g id="text_76">
      <!-- 7.5 -->
      <g transform="translate(677.822944 544.316562)scale(0.1 -0.1)">
       <use xlink:href="#DejaVuSans-55"/>
       <use x="63.623047" xlink:href="#DejaVuSans-46"/>
       <use x="95.410156" xlink:href="#DejaVuSans-53"/>
      </g>
     </g>
    </g>
    <g id="xtick_28">
     <g id="line2d_67">
      <g>
       <use style="stroke:#000000;stroke-width:0.8;" x="730.173914" xlink:href="#m4392af8e6e" y="529.718125"/>
      </g>
     </g>
     <g id="text_77">
      <!-- 8.0 -->
      <g transform="translate(722.222352 544.316562)scale(0.1 -0.1)">
       <use xlink:href="#DejaVuSans-56"/>
       <use x="63.623047" xlink:href="#DejaVuSans-46"/>
       <use x="95.410156" xlink:href="#DejaVuSans-48"/>
      </g>
     </g>
    </g>
    <g id="xtick_29">
     <g id="line2d_68">
      <g>
       <use style="stroke:#000000;stroke-width:0.8;" x="774.573322" xlink:href="#m4392af8e6e" y="529.718125"/>
      </g>
     </g>
     <g id="text_78">
      <!-- 8.5 -->
      <g transform="translate(766.621759 544.316562)scale(0.1 -0.1)">
       <use xlink:href="#DejaVuSans-56"/>
       <use x="63.623047" xlink:href="#DejaVuSans-46"/>
       <use x="95.410156" xlink:href="#DejaVuSans-53"/>
      </g>
     </g>
    </g>
    <g id="xtick_30">
     <g id="line2d_69">
      <g>
       <use style="stroke:#000000;stroke-width:0.8;" x="818.972729" xlink:href="#m4392af8e6e" y="529.718125"/>
      </g>
     </g>
     <g id="text_79">
      <!-- 9.0 -->
      <g transform="translate(811.021167 544.316562)scale(0.1 -0.1)">
       <use xlink:href="#DejaVuSans-57"/>
       <use x="63.623047" xlink:href="#DejaVuSans-46"/>
       <use x="95.410156" xlink:href="#DejaVuSans-48"/>
      </g>
     </g>
    </g>
    <g id="text_80">
     <!-- Value -->
     <g transform="translate(717.330652 557.994687)scale(0.1 -0.1)">
      <use xlink:href="#DejaVuSans-86"/>
      <use x="60.658203" xlink:href="#DejaVuSans-97"/>
      <use x="121.9375" xlink:href="#DejaVuSans-108"/>
      <use x="149.720703" xlink:href="#DejaVuSans-117"/>
      <use x="213.099609" xlink:href="#DejaVuSans-101"/>
     </g>
    </g>
   </g>
   <g id="matplotlib.axis_12">
    <g id="ytick_35">
     <g id="line2d_70">
      <g>
       <use style="stroke:#000000;stroke-width:0.8;" x="612.87068" xlink:href="#mdc94d99219" y="529.718125"/>
      </g>
     </g>
     <g id="text_81">
      <!-- 0 -->
      <g transform="translate(599.50818 533.517344)scale(0.1 -0.1)">
       <use xlink:href="#DejaVuSans-48"/>
      </g>
     </g>
    </g>
    <g id="ytick_36">
     <g id="line2d_71">
      <g>
       <use style="stroke:#000000;stroke-width:0.8;" x="612.87068" xlink:href="#mdc94d99219" y="496.265744"/>
      </g>
     </g>
     <g id="text_82">
      <!-- 5 -->
      <g transform="translate(599.50818 500.064963)scale(0.1 -0.1)">
       <use xlink:href="#DejaVuSans-53"/>
      </g>
     </g>
    </g>
    <g id="ytick_37">
     <g id="line2d_72">
      <g>
       <use style="stroke:#000000;stroke-width:0.8;" x="612.87068" xlink:href="#mdc94d99219" y="462.813363"/>
      </g>
     </g>
     <g id="text_83">
      <!-- 10 -->
      <g transform="translate(593.14568 466.612582)scale(0.1 -0.1)">
       <use xlink:href="#DejaVuSans-49"/>
       <use x="63.623047" xlink:href="#DejaVuSans-48"/>
      </g>
     </g>
    </g>
    <g id="ytick_38">
     <g id="line2d_73">
      <g>
       <use style="stroke:#000000;stroke-width:0.8;" x="612.87068" xlink:href="#mdc94d99219" y="429.360982"/>
      </g>
     </g>
     <g id="text_84">
      <!-- 15 -->
      <g transform="translate(593.14568 433.160201)scale(0.1 -0.1)">
       <use xlink:href="#DejaVuSans-49"/>
       <use x="63.623047" xlink:href="#DejaVuSans-53"/>
      </g>
     </g>
    </g>
    <g id="ytick_39">
     <g id="line2d_74">
      <g>
       <use style="stroke:#000000;stroke-width:0.8;" x="612.87068" xlink:href="#mdc94d99219" y="395.908601"/>
      </g>
     </g>
     <g id="text_85">
      <!-- 20 -->
      <g transform="translate(593.14568 399.70782)scale(0.1 -0.1)">
       <use xlink:href="#DejaVuSans-50"/>
       <use x="63.623047" xlink:href="#DejaVuSans-48"/>
      </g>
     </g>
    </g>
    <g id="ytick_40">
     <g id="line2d_75">
      <g>
       <use style="stroke:#000000;stroke-width:0.8;" x="612.87068" xlink:href="#mdc94d99219" y="362.45622"/>
      </g>
     </g>
     <g id="text_86">
      <!-- 25 -->
      <g transform="translate(593.14568 366.255439)scale(0.1 -0.1)">
       <use xlink:href="#DejaVuSans-50"/>
       <use x="63.623047" xlink:href="#DejaVuSans-53"/>
      </g>
     </g>
    </g>
    <g id="ytick_41">
     <g id="line2d_76">
      <g>
       <use style="stroke:#000000;stroke-width:0.8;" x="612.87068" xlink:href="#mdc94d99219" y="329.003839"/>
      </g>
     </g>
     <g id="text_87">
      <!-- 30 -->
      <g transform="translate(593.14568 332.803058)scale(0.1 -0.1)">
       <use xlink:href="#DejaVuSans-51"/>
       <use x="63.623047" xlink:href="#DejaVuSans-48"/>
      </g>
     </g>
    </g>
    <g id="text_88">
     <!-- Counts -->
     <g transform="translate(587.065992 434.77125)rotate(-90)scale(0.1 -0.1)">
      <use xlink:href="#DejaVuSans-67"/>
      <use x="69.824219" xlink:href="#DejaVuSans-111"/>
      <use x="131.005859" xlink:href="#DejaVuSans-117"/>
      <use x="194.384766" xlink:href="#DejaVuSans-110"/>
      <use x="257.763672" xlink:href="#DejaVuSans-116"/>
      <use x="296.972656" xlink:href="#DejaVuSans-115"/>
     </g>
    </g>
   </g>
   <g id="line2d_77">
    <path clip-path="url(#p93039288a5)" d="M 623.615336 528.74801 
L 628.993042 528.167392 
L 633.510315 527.456084 
L 637.382264 526.628968 
L 640.823995 525.680631 
L 644.050619 524.569728 
L 647.062134 523.303265 
L 649.858541 521.896814 
L 652.654949 520.236822 
L 655.236247 518.451231 
L 657.817546 516.394976 
L 660.398845 514.040653 
L 662.980144 511.360704 
L 665.346335 508.594825 
L 667.927634 505.21575 
L 670.508933 501.435413 
L 673.090231 497.231812 
L 675.67153 492.586302 
L 678.252829 487.484476 
L 681.049236 481.431963 
L 683.845643 474.829437 
L 686.857159 467.110919 
L 689.868674 458.782917 
L 693.095298 449.226448 
L 696.752138 437.68828 
L 701.054303 423.330503 
L 707.077333 402.343747 
L 715.466555 373.1751 
L 719.338503 360.532056 
L 722.565127 350.737226 
L 725.361534 342.954068 
L 727.727725 336.974468 
L 729.878807 332.081719 
L 731.814781 328.160914 
L 733.750755 324.729562 
L 735.471621 322.112632 
L 737.192487 319.920861 
L 738.698245 318.362976 
L 740.204002 317.14916 
L 741.494652 316.387225 
L 742.785301 315.885338 
L 744.075951 315.645346 
L 745.3666 315.668132 
L 746.65725 315.953612 
L 747.947899 316.500734 
L 749.238549 317.307489 
L 750.529198 318.370917 
L 752.034956 319.93075 
L 753.540713 321.826883 
L 755.261579 324.393629 
L 756.982445 327.370967 
L 758.918419 331.187703 
L 761.069502 335.973082 
L 763.435692 341.845619 
L 766.016991 348.902472 
L 768.813398 357.207596 
L 772.040022 367.484001 
L 776.127079 381.271506 
L 783.440759 406.918336 
L 789.678898 428.466017 
L 793.981063 442.550435 
L 797.637903 453.789659 
L 801.079635 463.638314 
L 804.09115 471.619807 
L 807.102665 478.977668 
L 809.899072 485.240086 
L 812.69548 490.953734 
L 815.276778 495.748468 
L 817.858077 500.096025 
L 820.439376 504.013752 
L 823.020675 507.522638 
L 825.601974 510.646451 
L 828.183273 513.410924 
L 830.764572 515.843012 
L 833.345871 517.970228 
L 835.92717 519.820062 
L 838.508468 521.419488 
L 838.508468 521.419488 
" style="fill:none;stroke:#ff7f0e;stroke-linecap:square;stroke-width:1.5;"/>
   </g>
   <g id="patch_96">
    <path d="M 612.87068 529.718125 
L 612.87068 304.918125 
" style="fill:none;stroke:#000000;stroke-linecap:square;stroke-linejoin:miter;stroke-width:0.8;"/>
   </g>
   <g id="patch_97">
    <path d="M 849.253125 529.718125 
L 849.253125 304.918125 
" style="fill:none;stroke:#000000;stroke-linecap:square;stroke-linejoin:miter;stroke-width:0.8;"/>
   </g>
   <g id="patch_98">
    <path d="M 612.87068 529.718125 
L 849.253125 529.718125 
" style="fill:none;stroke:#000000;stroke-linecap:square;stroke-linejoin:miter;stroke-width:0.8;"/>
   </g>
   <g id="patch_99">
    <path d="M 612.87068 304.918125 
L 849.253125 304.918125 
" style="fill:none;stroke:#000000;stroke-linecap:square;stroke-linejoin:miter;stroke-width:0.8;"/>
   </g>
   <g id="text_89">
    <!-- CGPA -->
    <g transform="translate(714.883465 298.918125)scale(0.12 -0.12)">
     <defs>
      <path d="M 34.1875 63.1875 
L 20.796875 26.90625 
L 47.609375 26.90625 
z
M 28.609375 72.90625 
L 39.796875 72.90625 
L 67.578125 0 
L 57.328125 0 
L 50.6875 18.703125 
L 17.828125 18.703125 
L 11.1875 0 
L 0.78125 0 
z
" id="DejaVuSans-65"/>
     </defs>
     <use xlink:href="#DejaVuSans-67"/>
     <use x="69.824219" xlink:href="#DejaVuSans-71"/>
     <use x="147.314453" xlink:href="#DejaVuSans-80"/>
     <use x="201.242188" xlink:href="#DejaVuSans-65"/>
    </g>
   </g>
  </g>
 </g>
 <defs>
  <clipPath id="p4408893aed">
   <rect height="224.8" width="236.382445" x="40.603125" y="22.318125"/>
  </clipPath>
  <clipPath id="p3e3bf0b595">
   <rect height="224.8" width="236.382445" x="326.736902" y="22.318125"/>
  </clipPath>
  <clipPath id="p5bc383c22a">
   <rect height="224.8" width="236.382445" x="612.87068" y="22.318125"/>
  </clipPath>
  <clipPath id="p155e2381f4">
   <rect height="224.8" width="236.382445" x="40.603125" y="304.918125"/>
  </clipPath>
  <clipPath id="p9984b4ee4a">
   <rect height="224.8" width="236.382445" x="326.736902" y="304.918125"/>
  </clipPath>
  <clipPath id="p93039288a5">
   <rect height="224.8" width="236.382445" x="612.87068" y="304.918125"/>
  </clipPath>
 </defs>
</svg>
