<?xml version="1.0" encoding="UTF-8" standalone="no"?>
<!-- Created with matplotlib (https://matplotlib.org/) -->

<svg
   xmlns:dc="http://purl.org/dc/elements/1.1/"
   xmlns:cc="http://creativecommons.org/ns#"
   xmlns:rdf="http://www.w3.org/1999/02/22-rdf-syntax-ns#"
   xmlns:svg="http://www.w3.org/2000/svg"
   xmlns="http://www.w3.org/2000/svg"
   xmlns:xlink="http://www.w3.org/1999/xlink"
   xmlns:sodipodi="http://sodipodi.sourceforge.net/DTD/sodipodi-0.dtd"
   xmlns:inkscape="http://www.inkscape.org/namespaces/inkscape"
   height="277.31625pt"
   version="1.1"
   viewBox="0 0 382.603125 277.31625"
   width="382.603125pt"
   id="svg410"
   sodipodi:docname="LogisticLossGrid.svg"
   inkscape:version="0.92.5 (2060ec1f9f, 2020-04-08)">
  <sodipodi:namedview
     pagecolor="#ffffff"
     bordercolor="#666666"
     borderopacity="1"
     objecttolerance="10"
     gridtolerance="10"
     guidetolerance="10"
     inkscape:pageopacity="0"
     inkscape:pageshadow="2"
     inkscape:window-width="1384"
     inkscape:window-height="813"
     id="namedview412"
     showgrid="false"
     inkscape:zoom="3.6105464"
     inkscape:cx="295.76048"
     inkscape:cy="16.506058"
     inkscape:window-x="0"
     inkscape:window-y="0"
     inkscape:window-maximized="0"
     inkscape:current-layer="matplotlib.axis_1" />
  <metadata
     id="metadata2">
    <rdf:RDF>
      <cc:Work>
        <dc:type
           rdf:resource="http://purl.org/dc/dcmitype/StillImage" />
        <dc:date>2021-11-09T15:48:40.356207</dc:date>
        <dc:format>image/svg+xml</dc:format>
        <dc:creator>
          <cc:Agent>
            <dc:title>Matplotlib v3.3.4, https://matplotlib.org/</dc:title>
          </cc:Agent>
        </dc:creator>
      </cc:Work>
    </rdf:RDF>
  </metadata>
  <defs
     id="defs6">
    <style
       type="text/css"
       id="style4">*{stroke-linecap:butt;stroke-linejoin:round;}</style>
  </defs>
  <g
     id="figure_1">
    <g
       id="patch_1">
      <path
         d="M 0 277.31625  L 382.603125 277.31625  L 382.603125 0  L 0 0  z "
         style="fill:none;"
         id="path8" />
    </g>
    <g
       id="axes_1">
      <g
         id="patch_2">
        <path
           d="M 40.603125 239.76  L 375.403125 239.76  L 375.403125 22.32  L 40.603125 22.32  z "
           style="fill:#ffffff;"
           id="path11" />
      </g>
      <g
         id="PathCollection_1">
        <defs
           id="defs15">
          <path
             d="M 0 3  C 0.795609 3 1.55874 2.683901 2.12132 2.12132  C 2.683901 1.55874 3 0.795609 3 0  C 3 -0.795609 2.683901 -1.55874 2.12132 -2.12132  C 1.55874 -2.683901 0.795609 -3 0 -3  C -0.795609 -3 -1.55874 -2.683901 -2.12132 -2.12132  C -2.683901 -1.55874 -3 -0.795609 -3 0  C -3 0.795609 -2.683901 1.55874 -2.12132 2.12132  C -1.55874 2.683901 -0.795609 3 0 3  z "
             id="mbe18ef6a4b"
             style="stroke:#1f77b4;" />
        </defs>
        <g
           clip-path="url(#p42c1646e25)"
           id="g53">
          <use
             style="fill:#1f77b4;stroke:#1f77b4;"
             x="180.628176"
             xlink:href="#mbe18ef6a4b"
             y="229.876364"
             id="use17" />
          <use
             style="fill:#1f77b4;stroke:#1f77b4;"
             x="107.700516"
             xlink:href="#mbe18ef6a4b"
             y="229.876364"
             id="use19" />
          <use
             style="fill:#1f77b4;stroke:#1f77b4;"
             x="124.567589"
             xlink:href="#mbe18ef6a4b"
             y="229.876364"
             id="use21" />
          <use
             style="fill:#1f77b4;stroke:#1f77b4;"
             x="137.23913"
             xlink:href="#mbe18ef6a4b"
             y="229.876364"
             id="use23" />
          <use
             style="fill:#1f77b4;stroke:#1f77b4;"
             x="96.777728"
             xlink:href="#mbe18ef6a4b"
             y="229.876364"
             id="use25" />
          <use
             style="fill:#1f77b4;stroke:#1f77b4;"
             x="123.527524"
             xlink:href="#mbe18ef6a4b"
             y="229.876364"
             id="use27" />
          <use
             style="fill:#1f77b4;stroke:#1f77b4;"
             x="123.427559"
             xlink:href="#mbe18ef6a4b"
             y="229.876364"
             id="use29" />
          <use
             style="fill:#1f77b4;stroke:#1f77b4;"
             x="64.116085"
             xlink:href="#mbe18ef6a4b"
             y="229.876364"
             id="use31" />
          <use
             style="fill:#1f77b4;stroke:#1f77b4;"
             x="157.873014"
             xlink:href="#mbe18ef6a4b"
             y="229.876364"
             id="use33" />
          <use
             style="fill:#1f77b4;stroke:#1f77b4;"
             x="143.765438"
             xlink:href="#mbe18ef6a4b"
             y="229.876364"
             id="use35" />
          <use
             style="fill:#1f77b4;stroke:#1f77b4;"
             x="102.3068"
             xlink:href="#mbe18ef6a4b"
             y="229.876364"
             id="use37" />
          <use
             style="fill:#1f77b4;stroke:#1f77b4;"
             x="117.65622"
             xlink:href="#mbe18ef6a4b"
             y="229.876364"
             id="use39" />
          <use
             style="fill:#1f77b4;stroke:#1f77b4;"
             x="140.545977"
             xlink:href="#mbe18ef6a4b"
             y="229.876364"
             id="use41" />
          <use
             style="fill:#1f77b4;stroke:#1f77b4;"
             x="114.619072"
             xlink:href="#mbe18ef6a4b"
             y="229.876364"
             id="use43" />
          <use
             style="fill:#1f77b4;stroke:#1f77b4;"
             x="115.248338"
             xlink:href="#mbe18ef6a4b"
             y="229.876364"
             id="use45" />
          <use
             style="fill:#1f77b4;stroke:#1f77b4;"
             x="253.815799"
             xlink:href="#mbe18ef6a4b"
             y="229.876364"
             id="use47" />
          <use
             style="fill:#1f77b4;stroke:#1f77b4;"
             x="260.605888"
             xlink:href="#mbe18ef6a4b"
             y="229.876364"
             id="use49" />
          <use
             style="fill:#1f77b4;stroke:#1f77b4;"
             x="259.14934"
             xlink:href="#mbe18ef6a4b"
             y="229.876364"
             id="use51" />
        </g>
      </g>
      <g
         id="PathCollection_2">
        <defs
           id="defs57">
          <path
             d="M 0 -3  L -0.673542 -0.927051  L -2.85317 -0.927051  L -1.089814 0.354102  L -1.763356 2.427051  L -0 1.145898  L 1.763356 2.427051  L 1.089814 0.354102  L 2.85317 -0.927051  L 0.673542 -0.927051  z "
             id="mba5cd8f44b"
             style="stroke:#ff7f0e;" />
        </defs>
        <g
           clip-path="url(#p42c1646e25)"
           id="g95">
          <use
             style="fill:#ff7f0e;stroke:#ff7f0e;"
             x="268.012133"
             xlink:href="#mba5cd8f44b"
             y="217.570165"
             id="use59" />
          <use
             style="fill:#ff7f0e;stroke:#ff7f0e;"
             x="207.106114"
             xlink:href="#mba5cd8f44b"
             y="217.570165"
             id="use61" />
          <use
             style="fill:#ff7f0e;stroke:#ff7f0e;"
             x="314.55406"
             xlink:href="#mba5cd8f44b"
             y="217.570165"
             id="use63" />
          <use
             style="fill:#ff7f0e;stroke:#ff7f0e;"
             x="263.949745"
             xlink:href="#mba5cd8f44b"
             y="217.570165"
             id="use65" />
          <use
             style="fill:#ff7f0e;stroke:#ff7f0e;"
             x="245.638029"
             xlink:href="#mba5cd8f44b"
             y="217.570165"
             id="use67" />
          <use
             style="fill:#ff7f0e;stroke:#ff7f0e;"
             x="327.349931"
             xlink:href="#mba5cd8f44b"
             y="217.570165"
             id="use69" />
          <use
             style="fill:#ff7f0e;stroke:#ff7f0e;"
             x="257.195525"
             xlink:href="#mba5cd8f44b"
             y="217.570165"
             id="use71" />
          <use
             style="fill:#ff7f0e;stroke:#ff7f0e;"
             x="209.671082"
             xlink:href="#mba5cd8f44b"
             y="217.570165"
             id="use73" />
          <use
             style="fill:#ff7f0e;stroke:#ff7f0e;"
             x="245.026328"
             xlink:href="#mba5cd8f44b"
             y="217.570165"
             id="use75" />
          <use
             style="fill:#ff7f0e;stroke:#ff7f0e;"
             x="181.343742"
             xlink:href="#mba5cd8f44b"
             y="217.570165"
             id="use77" />
          <use
             style="fill:#ff7f0e;stroke:#ff7f0e;"
             x="294.219081"
             xlink:href="#mba5cd8f44b"
             y="217.570165"
             id="use79" />
          <use
             style="fill:#ff7f0e;stroke:#ff7f0e;"
             x="244.645994"
             xlink:href="#mba5cd8f44b"
             y="217.570165"
             id="use81" />
          <use
             style="fill:#ff7f0e;stroke:#ff7f0e;"
             x="233.618588"
             xlink:href="#mba5cd8f44b"
             y="217.570165"
             id="use83" />
          <use
             style="fill:#ff7f0e;stroke:#ff7f0e;"
             x="294.999388"
             xlink:href="#mba5cd8f44b"
             y="217.570165"
             id="use85" />
          <use
             style="fill:#ff7f0e;stroke:#ff7f0e;"
             x="202.894023"
             xlink:href="#mba5cd8f44b"
             y="217.570165"
             id="use87" />
          <use
             style="fill:#ff7f0e;stroke:#ff7f0e;"
             x="125.268395"
             xlink:href="#mba5cd8f44b"
             y="217.570165"
             id="use89" />
          <use
             style="fill:#ff7f0e;stroke:#ff7f0e;"
             x="116.476195"
             xlink:href="#mba5cd8f44b"
             y="217.570165"
             id="use91" />
          <use
             style="fill:#ff7f0e;stroke:#ff7f0e;"
             x="121.218368"
             xlink:href="#mba5cd8f44b"
             y="217.570165"
             id="use93" />
        </g>
      </g>
      <g
         id="matplotlib.axis_1">
        <g
           id="xtick_1">
          <g
             id="line2d_1">
            <defs
               id="defs99">
              <path
                 d="M 0 0  L 0 3.5  "
                 id="m3d3342a121"
                 style="stroke:#000000;stroke-width:0.8;" />
            </defs>
            <g
               id="g103">
              <use
                 style="stroke:#000000;stroke-width:0.8;"
                 x="89.639489"
                 xlink:href="#m3d3342a121"
                 y="239.76"
                 id="use101" />
            </g>
          </g>
          <g
             id="text_1">
            <!-- 0 -->
            <g
               transform="translate(86.458239 254.358437)scale(0.1 -0.1)"
               id="g111">
              <defs
                 id="defs107">
                <path
                   d="M 31.78125 66.40625  Q 24.171875 66.40625 20.328125 58.90625  Q 16.5 51.421875 16.5 36.375  Q 16.5 21.390625 20.328125 13.890625  Q 24.171875 6.390625 31.78125 6.390625  Q 39.453125 6.390625 43.28125 13.890625  Q 47.125 21.390625 47.125 36.375  Q 47.125 51.421875 43.28125 58.90625  Q 39.453125 66.40625 31.78125 66.40625  z M 31.78125 74.21875  Q 44.046875 74.21875 50.515625 64.515625  Q 56.984375 54.828125 56.984375 36.375  Q 56.984375 17.96875 50.515625 8.265625  Q 44.046875 -1.421875 31.78125 -1.421875  Q 19.53125 -1.421875 13.0625 8.265625  Q 6.59375 17.96875 6.59375 36.375  Q 6.59375 54.828125 13.0625 64.515625  Q 19.53125 74.21875 31.78125 74.21875  z "
                   id="DejaVuSans-48" />
              </defs>
              <use
                 xlink:href="#DejaVuSans-48"
                 id="use109" />
            </g>
          </g>
        </g>
        <g
           id="xtick_2">
          <g
             id="line2d_2">
            <g
               id="g117">
              <use
                 style="stroke:#000000;stroke-width:0.8;"
                 x="157.275852"
                 xlink:href="#m3d3342a121"
                 y="239.76"
                 id="use115" />
            </g>
          </g>
          <g
             id="text_2">
            <!-- 2 -->
            <g
               transform="translate(154.094602 254.358437)scale(0.1 -0.1)"
               id="g125">
              <defs
                 id="defs121">
                <path
                   d="M 19.1875 8.296875  L 53.609375 8.296875  L 53.609375 0  L 7.328125 0  L 7.328125 8.296875  Q 12.9375 14.109375 22.625 23.890625  Q 32.328125 33.6875 34.8125 36.53125  Q 39.546875 41.84375 41.421875 45.53125  Q 43.3125 49.21875 43.3125 52.78125  Q 43.3125 58.59375 39.234375 62.25  Q 35.15625 65.921875 28.609375 65.921875  Q 23.96875 65.921875 18.8125 64.3125  Q 13.671875 62.703125 7.8125 59.421875  L 7.8125 69.390625  Q 13.765625 71.78125 18.9375 73  Q 24.125 74.21875 28.421875 74.21875  Q 39.75 74.21875 46.484375 68.546875  Q 53.21875 62.890625 53.21875 53.421875  Q 53.21875 48.921875 51.53125 44.890625  Q 49.859375 40.875 45.40625 35.40625  Q 44.1875 33.984375 37.640625 27.21875  Q 31.109375 20.453125 19.1875 8.296875  z "
                   id="DejaVuSans-50" />
              </defs>
              <use
                 xlink:href="#DejaVuSans-50"
                 id="use123" />
            </g>
          </g>
        </g>
        <g
           id="xtick_3">
          <g
             id="line2d_3">
            <g
               id="g131">
              <use
                 style="stroke:#000000;stroke-width:0.8;"
                 x="224.912216"
                 xlink:href="#m3d3342a121"
                 y="239.76"
                 id="use129" />
            </g>
          </g>
          <g
             id="text_3">
            <!-- 4 -->
            <g
               transform="translate(221.730966 254.358437)scale(0.1 -0.1)"
               id="g139">
              <defs
                 id="defs135">
                <path
                   d="M 37.796875 64.3125  L 12.890625 25.390625  L 37.796875 25.390625  z M 35.203125 72.90625  L 47.609375 72.90625  L 47.609375 25.390625  L 58.015625 25.390625  L 58.015625 17.1875  L 47.609375 17.1875  L 47.609375 0  L 37.796875 0  L 37.796875 17.1875  L 4.890625 17.1875  L 4.890625 26.703125  z "
                   id="DejaVuSans-52" />
              </defs>
              <use
                 xlink:href="#DejaVuSans-52"
                 id="use137" />
            </g>
          </g>
        </g>
        <g
           id="xtick_4">
          <g
             id="line2d_4">
            <g
               id="g145">
              <use
                 style="stroke:#000000;stroke-width:0.8;"
                 x="292.54858"
                 xlink:href="#m3d3342a121"
                 y="239.76"
                 id="use143" />
            </g>
          </g>
          <g
             id="text_4">
            <!-- 6 -->
            <g
               transform="translate(289.36733 254.358437)scale(0.1 -0.1)"
               id="g153">
              <defs
                 id="defs149">
                <path
                   d="M 33.015625 40.375  Q 26.375 40.375 22.484375 35.828125  Q 18.609375 31.296875 18.609375 23.390625  Q 18.609375 15.53125 22.484375 10.953125  Q 26.375 6.390625 33.015625 6.390625  Q 39.65625 6.390625 43.53125 10.953125  Q 47.40625 15.53125 47.40625 23.390625  Q 47.40625 31.296875 43.53125 35.828125  Q 39.65625 40.375 33.015625 40.375  z M 52.59375 71.296875  L 52.59375 62.3125  Q 48.875 64.0625 45.09375 64.984375  Q 41.3125 65.921875 37.59375 65.921875  Q 27.828125 65.921875 22.671875 59.328125  Q 17.53125 52.734375 16.796875 39.40625  Q 19.671875 43.65625 24.015625 45.921875  Q 28.375 48.1875 33.59375 48.1875  Q 44.578125 48.1875 50.953125 41.515625  Q 57.328125 34.859375 57.328125 23.390625  Q 57.328125 12.15625 50.6875 5.359375  Q 44.046875 -1.421875 33.015625 -1.421875  Q 20.359375 -1.421875 13.671875 8.265625  Q 6.984375 17.96875 6.984375 36.375  Q 6.984375 53.65625 15.1875 63.9375  Q 23.390625 74.21875 37.203125 74.21875  Q 40.921875 74.21875 44.703125 73.484375  Q 48.484375 72.75 52.59375 71.296875  z "
                   id="DejaVuSans-54" />
              </defs>
              <use
                 xlink:href="#DejaVuSans-54"
                 id="use151" />
            </g>
          </g>
        </g>
        <g
           id="xtick_5">
          <g
             id="line2d_5">
            <g
               id="g159">
              <use
                 style="stroke:#000000;stroke-width:0.8;"
                 x="360.184943"
                 xlink:href="#m3d3342a121"
                 y="239.76"
                 id="use157" />
            </g>
          </g>
          <g
             id="text_5">
            <!-- 8 -->
            <g
               transform="translate(357.003693 254.358437)scale(0.1 -0.1)"
               id="g167">
              <defs
                 id="defs163">
                <path
                   d="M 31.78125 34.625  Q 24.75 34.625 20.71875 30.859375  Q 16.703125 27.09375 16.703125 20.515625  Q 16.703125 13.921875 20.71875 10.15625  Q 24.75 6.390625 31.78125 6.390625  Q 38.8125 6.390625 42.859375 10.171875  Q 46.921875 13.96875 46.921875 20.515625  Q 46.921875 27.09375 42.890625 30.859375  Q 38.875 34.625 31.78125 34.625  z M 21.921875 38.8125  Q 15.578125 40.375 12.03125 44.71875  Q 8.5 49.078125 8.5 55.328125  Q 8.5 64.0625 14.71875 69.140625  Q 20.953125 74.21875 31.78125 74.21875  Q 42.671875 74.21875 48.875 69.140625  Q 55.078125 64.0625 55.078125 55.328125  Q 55.078125 49.078125 51.53125 44.71875  Q 48 40.375 41.703125 38.8125  Q 48.828125 37.15625 52.796875 32.3125  Q 56.78125 27.484375 56.78125 20.515625  Q 56.78125 9.90625 50.3125 4.234375  Q 43.84375 -1.421875 31.78125 -1.421875  Q 19.734375 -1.421875 13.25 4.234375  Q 6.78125 9.90625 6.78125 20.515625  Q 6.78125 27.484375 10.78125 32.3125  Q 14.796875 37.15625 21.921875 38.8125  z M 18.3125 54.390625  Q 18.3125 48.734375 21.84375 45.5625  Q 25.390625 42.390625 31.78125 42.390625  Q 38.140625 42.390625 41.71875 45.5625  Q 45.3125 48.734375 45.3125 54.390625  Q 45.3125 60.0625 41.71875 63.234375  Q 38.140625 66.40625 31.78125 66.40625  Q 25.390625 66.40625 21.84375 63.234375  Q 18.3125 60.0625 18.3125 54.390625  z "
                   id="DejaVuSans-56" />
              </defs>
              <use
                 xlink:href="#DejaVuSans-56"
                 id="use165" />
            </g>
          </g>
        </g>
        <text
           xml:space="preserve"
           style="font-style:normal;font-weight:normal;font-size:14px;line-height:1.25;font-family:sans-serif;letter-spacing:0px;word-spacing:0px;fill:#000000;fill-opacity:1;stroke:none;stroke-width:0.75;stroke-linecap:butt;stroke-linejoin:round"
           x="211.67157"
           y="269.63046"
           id="text1225"><tspan
             sodipodi:role="line"
             id="tspan1223"
             style="stroke-width:0.75;stroke-linecap:butt;stroke-linejoin:round"
             x="211.67157"
             y="269.63046">b</tspan></text>
      </g>
      <g
         id="matplotlib.axis_2">
        <g
           id="ytick_1">
          <g
             id="line2d_6">
            <defs
               id="defs181">
              <path
                 d="M 0 0  L -3.5 0  "
                 id="m7f8fab31bf"
                 style="stroke:#000000;stroke-width:0.8;" />
            </defs>
            <g
               id="g185">
              <use
                 style="stroke:#000000;stroke-width:0.8;"
                 x="40.603125"
                 xlink:href="#m7f8fab31bf"
                 y="229.876364"
                 id="use183" />
            </g>
          </g>
          <g
             id="text_7">
            <!-- 0 -->
            <g
               transform="translate(27.240625 233.675582)scale(0.1 -0.1)"
               id="g190">
              <use
                 xlink:href="#DejaVuSans-48"
                 id="use188" />
            </g>
          </g>
        </g>
        <g
           id="ytick_2">
          <g
             id="line2d_7">
            <g
               id="g196">
              <use
                 style="stroke:#000000;stroke-width:0.8;"
                 x="40.603125"
                 xlink:href="#m7f8fab31bf"
                 y="205.263967"
                 id="use194" />
            </g>
          </g>
          <g
             id="text_8">
            <!-- 2 -->
            <g
               transform="translate(27.240625 209.063186)scale(0.1 -0.1)"
               id="g201">
              <use
                 xlink:href="#DejaVuSans-50"
                 id="use199" />
            </g>
          </g>
        </g>
        <g
           id="ytick_3">
          <g
             id="line2d_8">
            <g
               id="g207">
              <use
                 style="stroke:#000000;stroke-width:0.8;"
                 x="40.603125"
                 xlink:href="#m7f8fab31bf"
                 y="180.651571"
                 id="use205" />
            </g>
          </g>
          <g
             id="text_9">
            <!-- 4 -->
            <g
               transform="translate(27.240625 184.450789)scale(0.1 -0.1)"
               id="g212">
              <use
                 xlink:href="#DejaVuSans-52"
                 id="use210" />
            </g>
          </g>
        </g>
        <g
           id="ytick_4">
          <g
             id="line2d_9">
            <g
               id="g218">
              <use
                 style="stroke:#000000;stroke-width:0.8;"
                 x="40.603125"
                 xlink:href="#m7f8fab31bf"
                 y="156.039174"
                 id="use216" />
            </g>
          </g>
          <g
             id="text_10">
            <!-- 6 -->
            <g
               transform="translate(27.240625 159.838393)scale(0.1 -0.1)"
               id="g223">
              <use
                 xlink:href="#DejaVuSans-54"
                 id="use221" />
            </g>
          </g>
        </g>
        <g
           id="ytick_5">
          <g
             id="line2d_10">
            <g
               id="g229">
              <use
                 style="stroke:#000000;stroke-width:0.8;"
                 x="40.603125"
                 xlink:href="#m7f8fab31bf"
                 y="131.426778"
                 id="use227" />
            </g>
          </g>
          <g
             id="text_11">
            <!-- 8 -->
            <g
               transform="translate(27.240625 135.225997)scale(0.1 -0.1)"
               id="g234">
              <use
                 xlink:href="#DejaVuSans-56"
                 id="use232" />
            </g>
          </g>
        </g>
        <g
           id="ytick_6">
          <g
             id="line2d_11">
            <g
               id="g240">
              <use
                 style="stroke:#000000;stroke-width:0.8;"
                 x="40.603125"
                 xlink:href="#m7f8fab31bf"
                 y="106.814381"
                 id="use238" />
            </g>
          </g>
          <g
             id="text_12">
            <!-- 10 -->
            <g
               transform="translate(20.878125 110.6136)scale(0.1 -0.1)"
               id="g250">
              <defs
                 id="defs244">
                <path
                   d="M 12.40625 8.296875  L 28.515625 8.296875  L 28.515625 63.921875  L 10.984375 60.40625  L 10.984375 69.390625  L 28.421875 72.90625  L 38.28125 72.90625  L 38.28125 8.296875  L 54.390625 8.296875  L 54.390625 0  L 12.40625 0  z "
                   id="DejaVuSans-49" />
              </defs>
              <use
                 xlink:href="#DejaVuSans-49"
                 id="use246" />
              <use
                 x="63.623047"
                 xlink:href="#DejaVuSans-48"
                 id="use248" />
            </g>
          </g>
        </g>
        <g
           id="ytick_7">
          <g
             id="line2d_12">
            <g
               id="g256">
              <use
                 style="stroke:#000000;stroke-width:0.8;"
                 x="40.603125"
                 xlink:href="#m7f8fab31bf"
                 y="82.201985"
                 id="use254" />
            </g>
          </g>
          <g
             id="text_13">
            <!-- 12 -->
            <g
               transform="translate(20.878125 86.001204)scale(0.1 -0.1)"
               id="g263">
              <use
                 xlink:href="#DejaVuSans-49"
                 id="use259" />
              <use
                 x="63.623047"
                 xlink:href="#DejaVuSans-50"
                 id="use261" />
            </g>
          </g>
        </g>
        <g
           id="ytick_8">
          <g
             id="line2d_13">
            <g
               id="g269">
              <use
                 style="stroke:#000000;stroke-width:0.8;"
                 x="40.603125"
                 xlink:href="#m7f8fab31bf"
                 y="57.589588"
                 id="use267" />
            </g>
          </g>
          <g
             id="text_14">
            <!-- 14 -->
            <g
               transform="translate(20.878125 61.388807)scale(0.1 -0.1)"
               id="g276">
              <use
                 xlink:href="#DejaVuSans-49"
                 id="use272" />
              <use
                 x="63.623047"
                 xlink:href="#DejaVuSans-52"
                 id="use274" />
            </g>
          </g>
        </g>
        <g
           id="ytick_9">
          <g
             id="line2d_14">
            <g
               id="g282">
              <use
                 style="stroke:#000000;stroke-width:0.8;"
                 x="40.603125"
                 xlink:href="#m7f8fab31bf"
                 y="32.977192"
                 id="use280" />
            </g>
          </g>
          <g
             id="text_15">
            <!-- 16 -->
            <g
               transform="translate(20.878125 36.776411)scale(0.1 -0.1)"
               id="g289">
              <use
                 xlink:href="#DejaVuSans-49"
                 id="use285" />
              <use
                 x="63.623047"
                 xlink:href="#DejaVuSans-54"
                 id="use287" />
            </g>
          </g>
        </g>
        <g
           id="text_16">
          <!-- Loss(a) -->
          <g
             transform="translate(14.798438 148.972812)rotate(-90)scale(0.1 -0.1)"
             id="g314">
            <defs
               id="defs298">
              <path
                 d="M 9.8125 72.90625  L 19.671875 72.90625  L 19.671875 8.296875  L 55.171875 8.296875  L 55.171875 0  L 9.8125 0  z "
                 id="DejaVuSans-76" />
              <path
                 d="M 30.609375 48.390625  Q 23.390625 48.390625 19.1875 42.75  Q 14.984375 37.109375 14.984375 27.296875  Q 14.984375 17.484375 19.15625 11.84375  Q 23.34375 6.203125 30.609375 6.203125  Q 37.796875 6.203125 41.984375 11.859375  Q 46.1875 17.53125 46.1875 27.296875  Q 46.1875 37.015625 41.984375 42.703125  Q 37.796875 48.390625 30.609375 48.390625  z M 30.609375 56  Q 42.328125 56 49.015625 48.375  Q 55.71875 40.765625 55.71875 27.296875  Q 55.71875 13.875 49.015625 6.21875  Q 42.328125 -1.421875 30.609375 -1.421875  Q 18.84375 -1.421875 12.171875 6.21875  Q 5.515625 13.875 5.515625 27.296875  Q 5.515625 40.765625 12.171875 48.375  Q 18.84375 56 30.609375 56  z "
                 id="DejaVuSans-111" />
              <path
                 d="M 44.28125 53.078125  L 44.28125 44.578125  Q 40.484375 46.53125 36.375 47.5  Q 32.28125 48.484375 27.875 48.484375  Q 21.1875 48.484375 17.84375 46.4375  Q 14.5 44.390625 14.5 40.28125  Q 14.5 37.15625 16.890625 35.375  Q 19.28125 33.59375 26.515625 31.984375  L 29.59375 31.296875  Q 39.15625 29.25 43.1875 25.515625  Q 47.21875 21.78125 47.21875 15.09375  Q 47.21875 7.46875 41.1875 3.015625  Q 35.15625 -1.421875 24.609375 -1.421875  Q 20.21875 -1.421875 15.453125 -0.5625  Q 10.6875 0.296875 5.421875 2  L 5.421875 11.28125  Q 10.40625 8.6875 15.234375 7.390625  Q 20.0625 6.109375 24.8125 6.109375  Q 31.15625 6.109375 34.5625 8.28125  Q 37.984375 10.453125 37.984375 14.40625  Q 37.984375 18.0625 35.515625 20.015625  Q 33.0625 21.96875 24.703125 23.78125  L 21.578125 24.515625  Q 13.234375 26.265625 9.515625 29.90625  Q 5.8125 33.546875 5.8125 39.890625  Q 5.8125 47.609375 11.28125 51.796875  Q 16.75 56 26.8125 56  Q 31.78125 56 36.171875 55.265625  Q 40.578125 54.546875 44.28125 53.078125  z "
                 id="DejaVuSans-115" />
              <path
                 d="M 31 75.875  Q 24.46875 64.65625 21.28125 53.65625  Q 18.109375 42.671875 18.109375 31.390625  Q 18.109375 20.125 21.3125 9.0625  Q 24.515625 -2 31 -13.1875  L 23.1875 -13.1875  Q 15.875 -1.703125 12.234375 9.375  Q 8.59375 20.453125 8.59375 31.390625  Q 8.59375 42.28125 12.203125 53.3125  Q 15.828125 64.359375 23.1875 75.875  z "
                 id="DejaVuSans-40" />
              <path
                 d="M 8.015625 75.875  L 15.828125 75.875  Q 23.140625 64.359375 26.78125 53.3125  Q 30.421875 42.28125 30.421875 31.390625  Q 30.421875 20.453125 26.78125 9.375  Q 23.140625 -1.703125 15.828125 -13.1875  L 8.015625 -13.1875  Q 14.5 -2 17.703125 9.0625  Q 20.90625 20.125 20.90625 31.390625  Q 20.90625 42.671875 17.703125 53.65625  Q 14.5 64.65625 8.015625 75.875  z "
                 id="DejaVuSans-41" />
            </defs>
            <use
               xlink:href="#DejaVuSans-76"
               id="use300" />
            <use
               x="53.962891"
               xlink:href="#DejaVuSans-111"
               id="use302" />
            <use
               x="115.144531"
               xlink:href="#DejaVuSans-115"
               id="use304" />
            <use
               x="167.244141"
               xlink:href="#DejaVuSans-115"
               id="use306" />
            <use
               x="219.34375"
               xlink:href="#DejaVuSans-40"
               id="use308" />
            <path
               id="use310"
               d="m 292.63867,27.484375 q -10.89062,0 -15.09375,-2.484375 -4.20312,-2.484375 -4.20312,-8.5 0,-4.78125 3.15625,-7.59375 3.15625,-2.796875 8.5625,-2.796875 7.48437,0 12,5.296875 4.51562,5.296875 4.51562,14.078125 v 2 z m 17.92188,3.71875 V 0 h -8.98438 v 8.296875 q -3.07812,-4.96875 -7.67187,-7.34375 -4.59375,-2.375 -11.23438,-2.375 -8.39062,0 -13.35937,4.71875 -4.95313,4.71875 -4.95313,12.625 0,9.21875 6.17188,13.90625 6.1875,4.6875 18.4375,4.6875 h 12.60937 v 0.890625 q 0,6.203125 -4.07812,9.59375 -4.07813,3.390625 -11.45313,3.390625 -4.6875,0 -9.14062,-1.125 -4.4375,-1.125 -8.53125,-3.375 v 8.3125 q 4.92187,1.90625 9.5625,2.84375 Q 282.57617,56 286.9668,56 q 11.875,0 17.73437,-6.15625 5.85938,-6.140625 5.85938,-18.640625 z"
               inkscape:connector-curvature="0"
               style="stroke-linecap:butt;stroke-linejoin:round" />
            <use
               x="319.636719"
               xlink:href="#DejaVuSans-41"
               id="use312" />
          </g>
        </g>
      </g>
      <g
         id="line2d_15">
        <path
           clip-path="url(#p42c1646e25)"
           d="M 55.821307 55.036264  L 60.696 59.941488  L 65.875361 65.473313  L 71.35939 71.655557  L 77.757425 79.222456  L 85.678801 88.963404  L 104.263567 111.962583  L 110.052265 118.703487  L 115.231626 124.39871  L 119.801651 129.102862  L 124.067007 133.185949  L 128.027695 136.689707  L 131.988383 139.902178  L 135.949071 142.814822  L 139.605091 145.234111  L 143.26111 147.395341  L 146.91713 149.301798  L 150.57315 150.959029  L 154.229169 152.374319  L 157.885189 153.556189  L 161.541209 154.513925  L 165.197228 155.257171  L 169.157916 155.831508  L 173.118604 156.177397  L 177.079292 156.306166  L 181.344648 156.214074  L 185.610005 155.894326  L 189.875361 155.357598  L 194.445385 154.552367  L 199.01541 153.518635  L 203.585435 152.264493  L 208.460127 150.690864  L 213.33482 148.878955  L 218.209513 146.831771  L 223.084206 144.550133  L 227.958899 142.03306  L 232.833592 139.278439  L 238.012953 136.088813  L 243.192314 132.626929  L 248.371675 128.894235  L 253.855705 124.653572  L 259.339734 120.130391  L 265.128432 115.074424  L 271.526467 109.193392  L 279.143174 101.875255  L 289.501896 91.579965  L 308.086663 73.077865  L 316.008039 65.530904  L 323.01541 59.159102  L 329.413444 53.647499  L 335.202142 48.946716  L 340.686172 44.765342  L 346.170201 40.862913  L 351.349562 37.441347  L 356.528924 34.279501  L 360.184943 32.203636  L 360.184943 32.203636  "
           style="fill:none;stroke:#1f77b4;stroke-linecap:square;stroke-width:1.5;"
           id="path318" />
      </g>
      <g
         id="patch_3">
        <path
           d="M 40.603125 239.76  L 40.603125 22.32  "
           style="fill:none;stroke:#000000;stroke-linecap:square;stroke-linejoin:miter;stroke-width:0.8;"
           id="path321" />
      </g>
      <g
         id="patch_4">
        <path
           d="M 375.403125 239.76  L 375.403125 22.32  "
           style="fill:none;stroke:#000000;stroke-linecap:square;stroke-linejoin:miter;stroke-width:0.8;"
           id="path324" />
      </g>
      <g
         id="patch_5">
        <path
           d="M 40.603125 239.76  L 375.403125 239.76  "
           style="fill:none;stroke:#000000;stroke-linecap:square;stroke-linejoin:miter;stroke-width:0.8;"
           id="path327" />
      </g>
      <g
         id="patch_6">
        <path
           d="M 40.603125 22.32  L 375.403125 22.32  "
           style="fill:none;stroke:#000000;stroke-linecap:square;stroke-linejoin:miter;stroke-width:0.8;"
           id="path330" />
      </g>
      <g
         id="text_17">
        <!-- Logistic Function Loss, $a=1$ -->
        <g
           transform="translate(123.463125 16.32)scale(0.12 -0.12)"
           id="g400">
          <defs
             id="defs344">
            <path
               d="M 45.40625 27.984375  Q 45.40625 37.75 41.375 43.109375  Q 37.359375 48.484375 30.078125 48.484375  Q 22.859375 48.484375 18.828125 43.109375  Q 14.796875 37.75 14.796875 27.984375  Q 14.796875 18.265625 18.828125 12.890625  Q 22.859375 7.515625 30.078125 7.515625  Q 37.359375 7.515625 41.375 12.890625  Q 45.40625 18.265625 45.40625 27.984375  z M 54.390625 6.78125  Q 54.390625 -7.171875 48.1875 -13.984375  Q 42 -20.796875 29.203125 -20.796875  Q 24.46875 -20.796875 20.265625 -20.09375  Q 16.0625 -19.390625 12.109375 -17.921875  L 12.109375 -9.1875  Q 16.0625 -11.328125 19.921875 -12.34375  Q 23.78125 -13.375 27.78125 -13.375  Q 36.625 -13.375 41.015625 -8.765625  Q 45.40625 -4.15625 45.40625 5.171875  L 45.40625 9.625  Q 42.625 4.78125 38.28125 2.390625  Q 33.9375 0 27.875 0  Q 17.828125 0 11.671875 7.65625  Q 5.515625 15.328125 5.515625 27.984375  Q 5.515625 40.671875 11.671875 48.328125  Q 17.828125 56 27.875 56  Q 33.9375 56 38.28125 53.609375  Q 42.625 51.21875 45.40625 46.390625  L 45.40625 54.6875  L 54.390625 54.6875  z "
               id="DejaVuSans-103" />
            <path
               d="M 9.421875 54.6875  L 18.40625 54.6875  L 18.40625 0  L 9.421875 0  z M 9.421875 75.984375  L 18.40625 75.984375  L 18.40625 64.59375  L 9.421875 64.59375  z "
               id="DejaVuSans-105" />
            <path
               d="M 18.3125 70.21875  L 18.3125 54.6875  L 36.8125 54.6875  L 36.8125 47.703125  L 18.3125 47.703125  L 18.3125 18.015625  Q 18.3125 11.328125 20.140625 9.421875  Q 21.96875 7.515625 27.59375 7.515625  L 36.8125 7.515625  L 36.8125 0  L 27.59375 0  Q 17.1875 0 13.234375 3.875  Q 9.28125 7.765625 9.28125 18.015625  L 9.28125 47.703125  L 2.6875 47.703125  L 2.6875 54.6875  L 9.28125 54.6875  L 9.28125 70.21875  z "
               id="DejaVuSans-116" />
            <path
               d="M 48.78125 52.59375  L 48.78125 44.1875  Q 44.96875 46.296875 41.140625 47.34375  Q 37.3125 48.390625 33.40625 48.390625  Q 24.65625 48.390625 19.8125 42.84375  Q 14.984375 37.3125 14.984375 27.296875  Q 14.984375 17.28125 19.8125 11.734375  Q 24.65625 6.203125 33.40625 6.203125  Q 37.3125 6.203125 41.140625 7.25  Q 44.96875 8.296875 48.78125 10.40625  L 48.78125 2.09375  Q 45.015625 0.34375 40.984375 -0.53125  Q 36.96875 -1.421875 32.421875 -1.421875  Q 20.0625 -1.421875 12.78125 6.34375  Q 5.515625 14.109375 5.515625 27.296875  Q 5.515625 40.671875 12.859375 48.328125  Q 20.21875 56 33.015625 56  Q 37.15625 56 41.109375 55.140625  Q 45.0625 54.296875 48.78125 52.59375  z "
               id="DejaVuSans-99" />
            <path
               id="DejaVuSans-32" />
            <path
               d="M 9.8125 72.90625  L 51.703125 72.90625  L 51.703125 64.59375  L 19.671875 64.59375  L 19.671875 43.109375  L 48.578125 43.109375  L 48.578125 34.8125  L 19.671875 34.8125  L 19.671875 0  L 9.8125 0  z "
               id="DejaVuSans-70" />
            <path
               d="M 8.5 21.578125  L 8.5 54.6875  L 17.484375 54.6875  L 17.484375 21.921875  Q 17.484375 14.15625 20.5 10.265625  Q 23.53125 6.390625 29.59375 6.390625  Q 36.859375 6.390625 41.078125 11.03125  Q 45.3125 15.671875 45.3125 23.6875  L 45.3125 54.6875  L 54.296875 54.6875  L 54.296875 0  L 45.3125 0  L 45.3125 8.40625  Q 42.046875 3.421875 37.71875 1  Q 33.40625 -1.421875 27.6875 -1.421875  Q 18.265625 -1.421875 13.375 4.4375  Q 8.5 10.296875 8.5 21.578125  z M 31.109375 56  z "
               id="DejaVuSans-117" />
            <path
               d="M 54.890625 33.015625  L 54.890625 0  L 45.90625 0  L 45.90625 32.71875  Q 45.90625 40.484375 42.875 44.328125  Q 39.84375 48.1875 33.796875 48.1875  Q 26.515625 48.1875 22.3125 43.546875  Q 18.109375 38.921875 18.109375 30.90625  L 18.109375 0  L 9.078125 0  L 9.078125 54.6875  L 18.109375 54.6875  L 18.109375 46.1875  Q 21.34375 51.125 25.703125 53.5625  Q 30.078125 56 35.796875 56  Q 45.21875 56 50.046875 50.171875  Q 54.890625 44.34375 54.890625 33.015625  z "
               id="DejaVuSans-110" />
            <path
               d="M 11.71875 12.40625  L 22.015625 12.40625  L 22.015625 4  L 14.015625 -11.625  L 7.71875 -11.625  L 11.71875 4  z "
               id="DejaVuSans-44" />
            <path
               d="M 53.71875 31.203125  L 47.609375 0  L 38.625 0  L 40.28125 8.296875  Q 36.328125 3.421875 31.265625 1  Q 26.21875 -1.421875 20.015625 -1.421875  Q 13.03125 -1.421875 8.5625 2.84375  Q 4.109375 7.125 4.109375 13.8125  Q 4.109375 23.390625 11.75 28.953125  Q 19.390625 34.515625 32.8125 34.515625  L 45.3125 34.515625  L 45.796875 36.921875  Q 45.90625 37.3125 45.953125 37.765625  Q 46 38.234375 46 39.203125  Q 46 43.5625 42.453125 45.96875  Q 38.921875 48.390625 32.515625 48.390625  Q 28.125 48.390625 23.5 47.265625  Q 18.890625 46.140625 14.015625 43.890625  L 15.578125 52.203125  Q 20.65625 54.109375 25.515625 55.046875  Q 30.375 56 34.90625 56  Q 44.578125 56 49.625 51.796875  Q 54.6875 47.609375 54.6875 39.59375  Q 54.6875 37.984375 54.4375 35.8125  Q 54.203125 33.640625 53.71875 31.203125  z M 44 27.484375  L 35.015625 27.484375  Q 23.96875 27.484375 18.671875 24.53125  Q 13.375 21.578125 13.375 15.375  Q 13.375 11.078125 16.078125 8.640625  Q 18.796875 6.203125 23.578125 6.203125  Q 30.90625 6.203125 36.375 11.453125  Q 41.84375 16.703125 43.609375 25.484375  z "
               id="DejaVuSans-Oblique-97" />
            <path
               d="M 10.59375 45.40625  L 73.1875 45.40625  L 73.1875 37.203125  L 10.59375 37.203125  z M 10.59375 25.484375  L 73.1875 25.484375  L 73.1875 17.1875  L 10.59375 17.1875  z "
               id="DejaVuSans-61" />
          </defs>
          <use
             transform="translate(0 0.015625)"
             xlink:href="#DejaVuSans-76"
             id="use346" />
          <use
             transform="translate(55.712891 0.015625)"
             xlink:href="#DejaVuSans-111"
             id="use348" />
          <use
             transform="translate(116.894531 0.015625)"
             xlink:href="#DejaVuSans-103"
             id="use350" />
          <use
             transform="translate(180.371094 0.015625)"
             xlink:href="#DejaVuSans-105"
             id="use352" />
          <use
             transform="translate(208.154297 0.015625)"
             xlink:href="#DejaVuSans-115"
             id="use354" />
          <use
             transform="translate(260.253906 0.015625)"
             xlink:href="#DejaVuSans-116"
             id="use356" />
          <use
             transform="translate(299.462891 0.015625)"
             xlink:href="#DejaVuSans-105"
             id="use358" />
          <use
             transform="translate(327.246094 0.015625)"
             xlink:href="#DejaVuSans-99"
             id="use360" />
          <use
             transform="translate(382.226562 0.015625)"
             xlink:href="#DejaVuSans-32"
             id="use362" />
          <use
             transform="translate(414.013672 0.015625)"
             xlink:href="#DejaVuSans-70"
             id="use364" />
          <use
             transform="translate(471.533203 0.015625)"
             xlink:href="#DejaVuSans-117"
             id="use366" />
          <use
             transform="translate(534.912109 0.015625)"
             xlink:href="#DejaVuSans-110"
             id="use368" />
          <use
             transform="translate(598.291016 0.015625)"
             xlink:href="#DejaVuSans-99"
             id="use370" />
          <use
             transform="translate(653.271484 0.015625)"
             xlink:href="#DejaVuSans-116"
             id="use372" />
          <use
             transform="translate(692.480469 0.015625)"
             xlink:href="#DejaVuSans-105"
             id="use374" />
          <use
             transform="translate(720.263672 0.015625)"
             xlink:href="#DejaVuSans-111"
             id="use376" />
          <use
             transform="translate(781.445312 0.015625)"
             xlink:href="#DejaVuSans-110"
             id="use378" />
          <use
             transform="translate(844.824219 0.015625)"
             xlink:href="#DejaVuSans-32"
             id="use380" />
          <use
             transform="translate(876.611328 0.015625)"
             xlink:href="#DejaVuSans-76"
             id="use382" />
          <use
             transform="translate(932.324219 0.015625)"
             xlink:href="#DejaVuSans-111"
             id="use384" />
          <use
             transform="translate(993.505859 0.015625)"
             xlink:href="#DejaVuSans-115"
             id="use386" />
          <use
             transform="translate(1045.605469 0.015625)"
             xlink:href="#DejaVuSans-115"
             id="use388" />
          <use
             transform="translate(1097.705078 0.015625)"
             xlink:href="#DejaVuSans-44"
             id="use390" />
          <use
             transform="translate(1129.492188 0.015625)"
             xlink:href="#DejaVuSans-32"
             id="use392" />
          <use
             transform="translate(1161.279297 0.015625)"
             xlink:href="#DejaVuSans-Oblique-97"
             id="use394" />
          <use
             transform="translate(1242.041016 0.015625)"
             xlink:href="#DejaVuSans-61"
             id="use396" />
          <use
             transform="translate(1345.3125 0.015625)"
             xlink:href="#DejaVuSans-49"
             id="use398" />
        </g>
      </g>
    </g>
  </g>
  <defs
     id="defs408">
    <clipPath
       id="p42c1646e25">
      <rect
         height="217.44"
         width="334.8"
         x="40.603125"
         y="22.32"
         id="rect405" />
    </clipPath>
  </defs>
</svg>
