<?xml version="1.0" encoding="UTF-8" standalone="no"?>
<!-- Created with matplotlib (https://matplotlib.org/) -->

<svg
   xmlns:dc="http://purl.org/dc/elements/1.1/"
   xmlns:cc="http://creativecommons.org/ns#"
   xmlns:rdf="http://www.w3.org/1999/02/22-rdf-syntax-ns#"
   xmlns:svg="http://www.w3.org/2000/svg"
   xmlns="http://www.w3.org/2000/svg"
   xmlns:xlink="http://www.w3.org/1999/xlink"
   xmlns:sodipodi="http://sodipodi.sourceforge.net/DTD/sodipodi-0.dtd"
   xmlns:inkscape="http://www.inkscape.org/namespaces/inkscape"
   height="263.638125pt"
   version="1.1"
   viewBox="0 0 483.703125 263.638125"
   width="483.703125pt"
   id="svg324"
   sodipodi:docname="SquaredLoss0Convex.svg"
   inkscape:version="0.92.5 (2060ec1f9f, 2020-04-08)">
  <sodipodi:namedview
     pagecolor="#ffffff"
     bordercolor="#666666"
     borderopacity="1"
     objecttolerance="10"
     gridtolerance="10"
     guidetolerance="10"
     inkscape:pageopacity="0"
     inkscape:pageshadow="2"
     inkscape:window-width="1526"
     inkscape:window-height="775"
     id="namedview326"
     showgrid="false"
     inkscape:zoom="1.1442969"
     inkscape:cx="338.07262"
     inkscape:cy="213.72771"
     inkscape:window-x="2241"
     inkscape:window-y="184"
     inkscape:window-maximized="0"
     inkscape:current-layer="svg324" />
  <metadata
     id="metadata2">
    <rdf:RDF>
      <cc:Work>
        <dc:type
           rdf:resource="http://purl.org/dc/dcmitype/StillImage" />
        <dc:date>2021-11-11T10:59:49.205485</dc:date>
        <dc:format>image/svg+xml</dc:format>
        <dc:creator>
          <cc:Agent>
            <dc:title>Matplotlib v3.3.4, https://matplotlib.org/</dc:title>
          </cc:Agent>
        </dc:creator>
      </cc:Work>
    </rdf:RDF>
  </metadata>
  <defs
     id="defs6">
    <marker
       inkscape:stockid="Arrow1Lend"
       orient="auto"
       refY="0.0"
       refX="0.0"
       id="Arrow1Lend"
       style="overflow:visible;"
       inkscape:isstock="true">
      <path
         id="path1174"
         d="M 0.0,0.0 L 5.0,-5.0 L -12.5,0.0 L 5.0,5.0 L 0.0,0.0 z "
         style="fill-rule:evenodd;stroke:#000000;stroke-width:1pt;stroke-opacity:1;fill:#000000;fill-opacity:1"
         transform="scale(0.8) rotate(180) translate(12.5,0)" />
    </marker>
    <style
       type="text/css"
       id="style4">*{stroke-linecap:butt;stroke-linejoin:round;}</style>
  </defs>
  <g
     id="figure_1">
    <g
       id="patch_1">
      <path
         d="M 0 263.638125  L 483.703125 263.638125  L 483.703125 0  L 0 0  z "
         style="fill:none;"
         id="path8" />
    </g>
    <g
       id="axes_1">
      <g
         id="patch_2">
        <path
           d="M 30.103125 239.76  L 476.503125 239.76  L 476.503125 22.32  L 30.103125 22.32  z "
           style="fill:#ffffff;"
           id="path11" />
      </g>
      <g
         id="matplotlib.axis_1">
        <g
           id="xtick_1">
          <g
             id="line2d_1">
            <defs
               id="defs15">
              <path
                 d="M 0 0  L 0 3.5  "
                 id="m5dea513999"
                 style="stroke:#000000;stroke-width:0.8;" />
            </defs>
            <g
               id="g19">
              <use
                 style="stroke:#000000;stroke-width:0.8;"
                 x="50.394034"
                 xlink:href="#m5dea513999"
                 y="239.76"
                 id="use17" />
            </g>
          </g>
          <g
             id="text_1">
            <!-- −4 -->
            <g
               transform="translate(43.02294 254.358438)scale(0.1 -0.1)"
               id="g30">
              <defs
                 id="defs24">
                <path
                   d="M 10.59375 35.5  L 73.1875 35.5  L 73.1875 27.203125  L 10.59375 27.203125  z "
                   id="DejaVuSans-8722" />
                <path
                   d="M 37.796875 64.3125  L 12.890625 25.390625  L 37.796875 25.390625  z M 35.203125 72.90625  L 47.609375 72.90625  L 47.609375 25.390625  L 58.015625 25.390625  L 58.015625 17.1875  L 47.609375 17.1875  L 47.609375 0  L 37.796875 0  L 37.796875 17.1875  L 4.890625 17.1875  L 4.890625 26.703125  z "
                   id="DejaVuSans-52" />
              </defs>
              <use
                 xlink:href="#DejaVuSans-8722"
                 id="use26" />
              <use
                 x="83.789062"
                 xlink:href="#DejaVuSans-52"
                 id="use28" />
            </g>
          </g>
        </g>
        <g
           id="xtick_2">
          <g
             id="line2d_2">
            <g
               id="g36">
              <use
                 style="stroke:#000000;stroke-width:0.8;"
                 x="101.121307"
                 xlink:href="#m5dea513999"
                 y="239.76"
                 id="use34" />
            </g>
          </g>
          <g
             id="text_2">
            <!-- −3 -->
            <g
               transform="translate(93.750213 254.358438)scale(0.1 -0.1)"
               id="g46">
              <defs
                 id="defs40">
                <path
                   d="M 40.578125 39.3125  Q 47.65625 37.796875 51.625 33  Q 55.609375 28.21875 55.609375 21.1875  Q 55.609375 10.40625 48.1875 4.484375  Q 40.765625 -1.421875 27.09375 -1.421875  Q 22.515625 -1.421875 17.65625 -0.515625  Q 12.796875 0.390625 7.625 2.203125  L 7.625 11.71875  Q 11.71875 9.328125 16.59375 8.109375  Q 21.484375 6.890625 26.8125 6.890625  Q 36.078125 6.890625 40.9375 10.546875  Q 45.796875 14.203125 45.796875 21.1875  Q 45.796875 27.640625 41.28125 31.265625  Q 36.765625 34.90625 28.71875 34.90625  L 20.21875 34.90625  L 20.21875 43.015625  L 29.109375 43.015625  Q 36.375 43.015625 40.234375 45.921875  Q 44.09375 48.828125 44.09375 54.296875  Q 44.09375 59.90625 40.109375 62.90625  Q 36.140625 65.921875 28.71875 65.921875  Q 24.65625 65.921875 20.015625 65.03125  Q 15.375 64.15625 9.8125 62.3125  L 9.8125 71.09375  Q 15.4375 72.65625 20.34375 73.4375  Q 25.25 74.21875 29.59375 74.21875  Q 40.828125 74.21875 47.359375 69.109375  Q 53.90625 64.015625 53.90625 55.328125  Q 53.90625 49.265625 50.4375 45.09375  Q 46.96875 40.921875 40.578125 39.3125  z "
                   id="DejaVuSans-51" />
              </defs>
              <use
                 xlink:href="#DejaVuSans-8722"
                 id="use42" />
              <use
                 x="83.789062"
                 xlink:href="#DejaVuSans-51"
                 id="use44" />
            </g>
          </g>
        </g>
        <g
           id="xtick_3">
          <g
             id="line2d_3">
            <g
               id="g52">
              <use
                 style="stroke:#000000;stroke-width:0.8;"
                 x="151.84858"
                 xlink:href="#m5dea513999"
                 y="239.76"
                 id="use50" />
            </g>
          </g>
          <g
             id="text_3">
            <!-- −2 -->
            <g
               transform="translate(144.477486 254.358438)scale(0.1 -0.1)"
               id="g62">
              <defs
                 id="defs56">
                <path
                   d="M 19.1875 8.296875  L 53.609375 8.296875  L 53.609375 0  L 7.328125 0  L 7.328125 8.296875  Q 12.9375 14.109375 22.625 23.890625  Q 32.328125 33.6875 34.8125 36.53125  Q 39.546875 41.84375 41.421875 45.53125  Q 43.3125 49.21875 43.3125 52.78125  Q 43.3125 58.59375 39.234375 62.25  Q 35.15625 65.921875 28.609375 65.921875  Q 23.96875 65.921875 18.8125 64.3125  Q 13.671875 62.703125 7.8125 59.421875  L 7.8125 69.390625  Q 13.765625 71.78125 18.9375 73  Q 24.125 74.21875 28.421875 74.21875  Q 39.75 74.21875 46.484375 68.546875  Q 53.21875 62.890625 53.21875 53.421875  Q 53.21875 48.921875 51.53125 44.890625  Q 49.859375 40.875 45.40625 35.40625  Q 44.1875 33.984375 37.640625 27.21875  Q 31.109375 20.453125 19.1875 8.296875  z "
                   id="DejaVuSans-50" />
              </defs>
              <use
                 xlink:href="#DejaVuSans-8722"
                 id="use58" />
              <use
                 x="83.789062"
                 xlink:href="#DejaVuSans-50"
                 id="use60" />
            </g>
          </g>
        </g>
        <g
           id="xtick_4">
          <g
             id="line2d_4">
            <g
               id="g68">
              <use
                 style="stroke:#000000;stroke-width:0.8;"
                 x="202.575852"
                 xlink:href="#m5dea513999"
                 y="239.76"
                 id="use66" />
            </g>
          </g>
          <g
             id="text_4">
            <!-- −1 -->
            <g
               transform="translate(195.204759 254.358438)scale(0.1 -0.1)"
               id="g78">
              <defs
                 id="defs72">
                <path
                   d="M 12.40625 8.296875  L 28.515625 8.296875  L 28.515625 63.921875  L 10.984375 60.40625  L 10.984375 69.390625  L 28.421875 72.90625  L 38.28125 72.90625  L 38.28125 8.296875  L 54.390625 8.296875  L 54.390625 0  L 12.40625 0  z "
                   id="DejaVuSans-49" />
              </defs>
              <use
                 xlink:href="#DejaVuSans-8722"
                 id="use74" />
              <use
                 x="83.789062"
                 xlink:href="#DejaVuSans-49"
                 id="use76" />
            </g>
          </g>
        </g>
        <g
           id="xtick_5">
          <g
             id="line2d_5">
            <g
               id="g84">
              <use
                 style="stroke:#000000;stroke-width:0.8;"
                 x="253.303125"
                 xlink:href="#m5dea513999"
                 y="239.76"
                 id="use82" />
            </g>
          </g>
          <g
             id="text_5">
            <!-- 0 -->
            <g
               transform="translate(250.121875 254.358438)scale(0.1 -0.1)"
               id="g92">
              <defs
                 id="defs88">
                <path
                   d="M 31.78125 66.40625  Q 24.171875 66.40625 20.328125 58.90625  Q 16.5 51.421875 16.5 36.375  Q 16.5 21.390625 20.328125 13.890625  Q 24.171875 6.390625 31.78125 6.390625  Q 39.453125 6.390625 43.28125 13.890625  Q 47.125 21.390625 47.125 36.375  Q 47.125 51.421875 43.28125 58.90625  Q 39.453125 66.40625 31.78125 66.40625  z M 31.78125 74.21875  Q 44.046875 74.21875 50.515625 64.515625  Q 56.984375 54.828125 56.984375 36.375  Q 56.984375 17.96875 50.515625 8.265625  Q 44.046875 -1.421875 31.78125 -1.421875  Q 19.53125 -1.421875 13.0625 8.265625  Q 6.59375 17.96875 6.59375 36.375  Q 6.59375 54.828125 13.0625 64.515625  Q 19.53125 74.21875 31.78125 74.21875  z "
                   id="DejaVuSans-48" />
              </defs>
              <use
                 xlink:href="#DejaVuSans-48"
                 id="use90" />
            </g>
          </g>
        </g>
        <g
           id="xtick_6">
          <g
             id="line2d_6">
            <g
               id="g98">
              <use
                 style="stroke:#000000;stroke-width:0.8;"
                 x="304.030398"
                 xlink:href="#m5dea513999"
                 y="239.76"
                 id="use96" />
            </g>
          </g>
          <g
             id="text_6">
            <!-- 1 -->
            <g
               transform="translate(300.849148 254.358438)scale(0.1 -0.1)"
               id="g103">
              <use
                 xlink:href="#DejaVuSans-49"
                 id="use101" />
            </g>
          </g>
        </g>
        <g
           id="xtick_7">
          <g
             id="line2d_7">
            <g
               id="g109">
              <use
                 style="stroke:#000000;stroke-width:0.8;"
                 x="354.75767"
                 xlink:href="#m5dea513999"
                 y="239.76"
                 id="use107" />
            </g>
          </g>
          <g
             id="text_7">
            <!-- 2 -->
            <g
               transform="translate(351.57642 254.358438)scale(0.1 -0.1)"
               id="g114">
              <use
                 xlink:href="#DejaVuSans-50"
                 id="use112" />
            </g>
          </g>
        </g>
        <g
           id="xtick_8">
          <g
             id="line2d_8">
            <g
               id="g120">
              <use
                 style="stroke:#000000;stroke-width:0.8;"
                 x="405.484943"
                 xlink:href="#m5dea513999"
                 y="239.76"
                 id="use118" />
            </g>
          </g>
          <g
             id="text_8">
            <!-- 3 -->
            <g
               transform="translate(402.303693 254.358438)scale(0.1 -0.1)"
               id="g125">
              <use
                 xlink:href="#DejaVuSans-51"
                 id="use123" />
            </g>
          </g>
        </g>
        <g
           id="xtick_9">
          <g
             id="line2d_9">
            <g
               id="g131">
              <use
                 style="stroke:#000000;stroke-width:0.8;"
                 x="456.212216"
                 xlink:href="#m5dea513999"
                 y="239.76"
                 id="use129" />
            </g>
          </g>
          <g
             id="text_9">
            <!-- 4 -->
            <g
               transform="translate(453.030966 254.358438)scale(0.1 -0.1)"
               id="g136">
              <use
                 xlink:href="#DejaVuSans-52"
                 id="use134" />
            </g>
          </g>
        </g>
      </g>
      <g
         id="matplotlib.axis_2">
        <g
           id="ytick_1">
          <g
             id="line2d_10">
            <defs
               id="defs142">
              <path
                 d="M 0 0  L -3.5 0  "
                 id="m7914e70991"
                 style="stroke:#000000;stroke-width:0.8;" />
            </defs>
            <g
               id="g146">
              <use
                 style="stroke:#000000;stroke-width:0.8;"
                 x="30.103125"
                 xlink:href="#m7914e70991"
                 y="229.942698"
                 id="use144" />
            </g>
          </g>
          <g
             id="text_10">
            <!-- 0.0 -->
            <g
               transform="translate(7.2 233.741916)scale(0.1 -0.1)"
               id="g158">
              <defs
                 id="defs150">
                <path
                   d="M 10.6875 12.40625  L 21 12.40625  L 21 0  L 10.6875 0  z "
                   id="DejaVuSans-46" />
              </defs>
              <use
                 xlink:href="#DejaVuSans-48"
                 id="use152" />
              <use
                 x="63.623047"
                 xlink:href="#DejaVuSans-46"
                 id="use154" />
              <use
                 x="95.410156"
                 xlink:href="#DejaVuSans-48"
                 id="use156" />
            </g>
          </g>
        </g>
        <g
           id="ytick_2">
          <g
             id="line2d_11">
            <g
               id="g164">
              <use
                 style="stroke:#000000;stroke-width:0.8;"
                 x="30.103125"
                 xlink:href="#m7914e70991"
                 y="188.932932"
                 id="use162" />
            </g>
          </g>
          <g
             id="text_11">
            <!-- 0.2 -->
            <g
               transform="translate(7.2 192.73215)scale(0.1 -0.1)"
               id="g173">
              <use
                 xlink:href="#DejaVuSans-48"
                 id="use167" />
              <use
                 x="63.623047"
                 xlink:href="#DejaVuSans-46"
                 id="use169" />
              <use
                 x="95.410156"
                 xlink:href="#DejaVuSans-50"
                 id="use171" />
            </g>
          </g>
        </g>
        <g
           id="ytick_3">
          <g
             id="line2d_12">
            <g
               id="g179">
              <use
                 style="stroke:#000000;stroke-width:0.8;"
                 x="30.103125"
                 xlink:href="#m7914e70991"
                 y="147.923166"
                 id="use177" />
            </g>
          </g>
          <g
             id="text_12">
            <!-- 0.4 -->
            <g
               transform="translate(7.2 151.722384)scale(0.1 -0.1)"
               id="g188">
              <use
                 xlink:href="#DejaVuSans-48"
                 id="use182" />
              <use
                 x="63.623047"
                 xlink:href="#DejaVuSans-46"
                 id="use184" />
              <use
                 x="95.410156"
                 xlink:href="#DejaVuSans-52"
                 id="use186" />
            </g>
          </g>
        </g>
        <g
           id="ytick_4">
          <g
             id="line2d_13">
            <g
               id="g194">
              <use
                 style="stroke:#000000;stroke-width:0.8;"
                 x="30.103125"
                 xlink:href="#m7914e70991"
                 y="106.9134"
                 id="use192" />
            </g>
          </g>
          <g
             id="text_13">
            <!-- 0.6 -->
            <g
               transform="translate(7.2 110.712619)scale(0.1 -0.1)"
               id="g206">
              <defs
                 id="defs198">
                <path
                   d="M 33.015625 40.375  Q 26.375 40.375 22.484375 35.828125  Q 18.609375 31.296875 18.609375 23.390625  Q 18.609375 15.53125 22.484375 10.953125  Q 26.375 6.390625 33.015625 6.390625  Q 39.65625 6.390625 43.53125 10.953125  Q 47.40625 15.53125 47.40625 23.390625  Q 47.40625 31.296875 43.53125 35.828125  Q 39.65625 40.375 33.015625 40.375  z M 52.59375 71.296875  L 52.59375 62.3125  Q 48.875 64.0625 45.09375 64.984375  Q 41.3125 65.921875 37.59375 65.921875  Q 27.828125 65.921875 22.671875 59.328125  Q 17.53125 52.734375 16.796875 39.40625  Q 19.671875 43.65625 24.015625 45.921875  Q 28.375 48.1875 33.59375 48.1875  Q 44.578125 48.1875 50.953125 41.515625  Q 57.328125 34.859375 57.328125 23.390625  Q 57.328125 12.15625 50.6875 5.359375  Q 44.046875 -1.421875 33.015625 -1.421875  Q 20.359375 -1.421875 13.671875 8.265625  Q 6.984375 17.96875 6.984375 36.375  Q 6.984375 53.65625 15.1875 63.9375  Q 23.390625 74.21875 37.203125 74.21875  Q 40.921875 74.21875 44.703125 73.484375  Q 48.484375 72.75 52.59375 71.296875  z "
                   id="DejaVuSans-54" />
              </defs>
              <use
                 xlink:href="#DejaVuSans-48"
                 id="use200" />
              <use
                 x="63.623047"
                 xlink:href="#DejaVuSans-46"
                 id="use202" />
              <use
                 x="95.410156"
                 xlink:href="#DejaVuSans-54"
                 id="use204" />
            </g>
          </g>
        </g>
        <g
           id="ytick_5">
          <g
             id="line2d_14">
            <g
               id="g212">
              <use
                 style="stroke:#000000;stroke-width:0.8;"
                 x="30.103125"
                 xlink:href="#m7914e70991"
                 y="65.903634"
                 id="use210" />
            </g>
          </g>
          <g
             id="text_14">
            <!-- 0.8 -->
            <g
               transform="translate(7.2 69.702853)scale(0.1 -0.1)"
               id="g224">
              <defs
                 id="defs216">
                <path
                   d="M 31.78125 34.625  Q 24.75 34.625 20.71875 30.859375  Q 16.703125 27.09375 16.703125 20.515625  Q 16.703125 13.921875 20.71875 10.15625  Q 24.75 6.390625 31.78125 6.390625  Q 38.8125 6.390625 42.859375 10.171875  Q 46.921875 13.96875 46.921875 20.515625  Q 46.921875 27.09375 42.890625 30.859375  Q 38.875 34.625 31.78125 34.625  z M 21.921875 38.8125  Q 15.578125 40.375 12.03125 44.71875  Q 8.5 49.078125 8.5 55.328125  Q 8.5 64.0625 14.71875 69.140625  Q 20.953125 74.21875 31.78125 74.21875  Q 42.671875 74.21875 48.875 69.140625  Q 55.078125 64.0625 55.078125 55.328125  Q 55.078125 49.078125 51.53125 44.71875  Q 48 40.375 41.703125 38.8125  Q 48.828125 37.15625 52.796875 32.3125  Q 56.78125 27.484375 56.78125 20.515625  Q 56.78125 9.90625 50.3125 4.234375  Q 43.84375 -1.421875 31.78125 -1.421875  Q 19.734375 -1.421875 13.25 4.234375  Q 6.78125 9.90625 6.78125 20.515625  Q 6.78125 27.484375 10.78125 32.3125  Q 14.796875 37.15625 21.921875 38.8125  z M 18.3125 54.390625  Q 18.3125 48.734375 21.84375 45.5625  Q 25.390625 42.390625 31.78125 42.390625  Q 38.140625 42.390625 41.71875 45.5625  Q 45.3125 48.734375 45.3125 54.390625  Q 45.3125 60.0625 41.71875 63.234375  Q 38.140625 66.40625 31.78125 66.40625  Q 25.390625 66.40625 21.84375 63.234375  Q 18.3125 60.0625 18.3125 54.390625  z "
                   id="DejaVuSans-56" />
              </defs>
              <use
                 xlink:href="#DejaVuSans-48"
                 id="use218" />
              <use
                 x="63.623047"
                 xlink:href="#DejaVuSans-46"
                 id="use220" />
              <use
                 x="95.410156"
                 xlink:href="#DejaVuSans-56"
                 id="use222" />
            </g>
          </g>
        </g>
        <g
           id="ytick_6">
          <g
             id="line2d_15">
            <g
               id="g230">
              <use
                 style="stroke:#000000;stroke-width:0.8;"
                 x="30.103125"
                 xlink:href="#m7914e70991"
                 y="24.893868"
                 id="use228" />
            </g>
          </g>
          <g
             id="text_15">
            <!-- 1.0 -->
            <g
               transform="translate(7.2 28.693087)scale(0.1 -0.1)"
               id="g239">
              <use
                 xlink:href="#DejaVuSans-49"
                 id="use233" />
              <use
                 x="63.623047"
                 xlink:href="#DejaVuSans-46"
                 id="use235" />
              <use
                 x="95.410156"
                 xlink:href="#DejaVuSans-48"
                 id="use237" />
            </g>
          </g>
        </g>
      </g>
      <g
         id="line2d_16">
        <path
           clip-path="url(#p168ead7a62)"
           d="M 50.394034 229.876364  L 86.954231 229.672672  L 108.0779 229.344328  L 123.108203 228.899668  L 135.294935 228.319748  L 145.450545 227.613342  L 153.981258 226.805702  L 161.699521 225.857687  L 168.605336 224.793475  L 175.104927 223.568617  L 181.198293 222.190526  L 186.885435 220.674532  L 192.166352 219.043625  L 197.447269 217.174915  L 202.321962 215.219829  L 207.196655 213.026755  L 212.071348 210.580343  L 216.946041 207.867065  L 221.414509 205.135924  L 225.882978 202.16483  L 230.75767 198.645524  L 235.632363 194.834981  L 240.507056 190.736465  L 245.381749 186.357934  L 250.662666 181.313484  L 256.349808 175.556404  L 262.443174 169.055149  L 269.348989 161.338091  L 277.473477 151.904243  L 290.472658 136.405273  L 303.878064 120.532103  L 312.002552 111.252102  L 318.908367 103.681725  L 325.407957 96.880612  L 331.501323 90.824635  L 337.188465 85.472284  L 342.875607 80.421711  L 348.562748 75.679166  L 353.843666 71.552391  L 359.124583 67.690113  L 364.4055 64.087389  L 369.686417 60.737076  L 375.373559 57.401093  L 381.060701 54.334683  L 386.747842 51.523752  L 392.434984 48.953408  L 398.52835 46.449062  L 404.621716 44.184429  L 411.121307 42.012036  L 417.620897 40.069229  L 424.526712 38.233126  L 431.838752 36.519436  L 439.557015 34.939407  L 447.681503 33.499899  L 456.212216 32.203636  L 456.212216 32.203636  "
           style="fill:none;stroke:#1f77b4;stroke-linecap:square;stroke-width:1.5;"
           id="path244" />
      </g>
      <g
         id="patch_3">
        <path
           d="M 30.103125 239.76  L 30.103125 22.32  "
           style="fill:none;stroke:#000000;stroke-linecap:square;stroke-linejoin:miter;stroke-width:0.8;"
           id="path247" />
      </g>
      <g
         id="patch_4">
        <path
           d="M 476.503125 239.76  L 476.503125 22.32  "
           style="fill:none;stroke:#000000;stroke-linecap:square;stroke-linejoin:miter;stroke-width:0.8;"
           id="path250" />
      </g>
      <g
         id="patch_5">
        <path
           d="M 30.103125 239.76  L 476.503125 239.76  "
           style="fill:none;stroke:#000000;stroke-linecap:square;stroke-linejoin:miter;stroke-width:0.8;"
           id="path253" />
      </g>
      <g
         id="patch_6">
        <path
           d="M 30.103125 22.32  L 476.503125 22.32  "
           style="fill:none;stroke:#000000;stroke-linecap:square;stroke-linejoin:miter;stroke-width:0.8;"
           id="path256" />
      </g>
      <g
         id="text_16">
        <!-- Squared Loss if $y = 0$ -->
        <g
           transform="translate(190.723125 16.32)scale(0.12 -0.12)"
           id="g314">
          <defs
             id="defs274">
            <path
               d="M 53.515625 70.515625  L 53.515625 60.890625  Q 47.90625 63.578125 42.921875 64.890625  Q 37.9375 66.21875 33.296875 66.21875  Q 25.25 66.21875 20.875 63.09375  Q 16.5 59.96875 16.5 54.203125  Q 16.5 49.359375 19.40625 46.890625  Q 22.3125 44.4375 30.421875 42.921875  L 36.375 41.703125  Q 47.40625 39.59375 52.65625 34.296875  Q 57.90625 29 57.90625 20.125  Q 57.90625 9.515625 50.796875 4.046875  Q 43.703125 -1.421875 29.984375 -1.421875  Q 24.8125 -1.421875 18.96875 -0.25  Q 13.140625 0.921875 6.890625 3.21875  L 6.890625 13.375  Q 12.890625 10.015625 18.65625 8.296875  Q 24.421875 6.59375 29.984375 6.59375  Q 38.421875 6.59375 43.015625 9.90625  Q 47.609375 13.234375 47.609375 19.390625  Q 47.609375 24.75 44.3125 27.78125  Q 41.015625 30.8125 33.5 32.328125  L 27.484375 33.5  Q 16.453125 35.6875 11.515625 40.375  Q 6.59375 45.0625 6.59375 53.421875  Q 6.59375 63.09375 13.40625 68.65625  Q 20.21875 74.21875 32.171875 74.21875  Q 37.3125 74.21875 42.625 73.28125  Q 47.953125 72.359375 53.515625 70.515625  z "
               id="DejaVuSans-83" />
            <path
               d="M 14.796875 27.296875  Q 14.796875 17.390625 18.875 11.75  Q 22.953125 6.109375 30.078125 6.109375  Q 37.203125 6.109375 41.296875 11.75  Q 45.40625 17.390625 45.40625 27.296875  Q 45.40625 37.203125 41.296875 42.84375  Q 37.203125 48.484375 30.078125 48.484375  Q 22.953125 48.484375 18.875 42.84375  Q 14.796875 37.203125 14.796875 27.296875  z M 45.40625 8.203125  Q 42.578125 3.328125 38.25 0.953125  Q 33.9375 -1.421875 27.875 -1.421875  Q 17.96875 -1.421875 11.734375 6.484375  Q 5.515625 14.40625 5.515625 27.296875  Q 5.515625 40.1875 11.734375 48.09375  Q 17.96875 56 27.875 56  Q 33.9375 56 38.25 53.625  Q 42.578125 51.265625 45.40625 46.390625  L 45.40625 54.6875  L 54.390625 54.6875  L 54.390625 -20.796875  L 45.40625 -20.796875  z "
               id="DejaVuSans-113" />
            <path
               d="M 8.5 21.578125  L 8.5 54.6875  L 17.484375 54.6875  L 17.484375 21.921875  Q 17.484375 14.15625 20.5 10.265625  Q 23.53125 6.390625 29.59375 6.390625  Q 36.859375 6.390625 41.078125 11.03125  Q 45.3125 15.671875 45.3125 23.6875  L 45.3125 54.6875  L 54.296875 54.6875  L 54.296875 0  L 45.3125 0  L 45.3125 8.40625  Q 42.046875 3.421875 37.71875 1  Q 33.40625 -1.421875 27.6875 -1.421875  Q 18.265625 -1.421875 13.375 4.4375  Q 8.5 10.296875 8.5 21.578125  z M 31.109375 56  z "
               id="DejaVuSans-117" />
            <path
               d="M 34.28125 27.484375  Q 23.390625 27.484375 19.1875 25  Q 14.984375 22.515625 14.984375 16.5  Q 14.984375 11.71875 18.140625 8.90625  Q 21.296875 6.109375 26.703125 6.109375  Q 34.1875 6.109375 38.703125 11.40625  Q 43.21875 16.703125 43.21875 25.484375  L 43.21875 27.484375  z M 52.203125 31.203125  L 52.203125 0  L 43.21875 0  L 43.21875 8.296875  Q 40.140625 3.328125 35.546875 0.953125  Q 30.953125 -1.421875 24.3125 -1.421875  Q 15.921875 -1.421875 10.953125 3.296875  Q 6 8.015625 6 15.921875  Q 6 25.140625 12.171875 29.828125  Q 18.359375 34.515625 30.609375 34.515625  L 43.21875 34.515625  L 43.21875 35.40625  Q 43.21875 41.609375 39.140625 45  Q 35.0625 48.390625 27.6875 48.390625  Q 23 48.390625 18.546875 47.265625  Q 14.109375 46.140625 10.015625 43.890625  L 10.015625 52.203125  Q 14.9375 54.109375 19.578125 55.046875  Q 24.21875 56 28.609375 56  Q 40.484375 56 46.34375 49.84375  Q 52.203125 43.703125 52.203125 31.203125  z "
               id="DejaVuSans-97" />
            <path
               d="M 41.109375 46.296875  Q 39.59375 47.171875 37.8125 47.578125  Q 36.03125 48 33.890625 48  Q 26.265625 48 22.1875 43.046875  Q 18.109375 38.09375 18.109375 28.8125  L 18.109375 0  L 9.078125 0  L 9.078125 54.6875  L 18.109375 54.6875  L 18.109375 46.1875  Q 20.953125 51.171875 25.484375 53.578125  Q 30.03125 56 36.53125 56  Q 37.453125 56 38.578125 55.875  Q 39.703125 55.765625 41.0625 55.515625  z "
               id="DejaVuSans-114" />
            <path
               d="M 56.203125 29.59375  L 56.203125 25.203125  L 14.890625 25.203125  Q 15.484375 15.921875 20.484375 11.0625  Q 25.484375 6.203125 34.421875 6.203125  Q 39.59375 6.203125 44.453125 7.46875  Q 49.3125 8.734375 54.109375 11.28125  L 54.109375 2.78125  Q 49.265625 0.734375 44.1875 -0.34375  Q 39.109375 -1.421875 33.890625 -1.421875  Q 20.796875 -1.421875 13.15625 6.1875  Q 5.515625 13.8125 5.515625 26.8125  Q 5.515625 40.234375 12.765625 48.109375  Q 20.015625 56 32.328125 56  Q 43.359375 56 49.78125 48.890625  Q 56.203125 41.796875 56.203125 29.59375  z M 47.21875 32.234375  Q 47.125 39.59375 43.09375 43.984375  Q 39.0625 48.390625 32.421875 48.390625  Q 24.90625 48.390625 20.390625 44.140625  Q 15.875 39.890625 15.1875 32.171875  z "
               id="DejaVuSans-101" />
            <path
               d="M 45.40625 46.390625  L 45.40625 75.984375  L 54.390625 75.984375  L 54.390625 0  L 45.40625 0  L 45.40625 8.203125  Q 42.578125 3.328125 38.25 0.953125  Q 33.9375 -1.421875 27.875 -1.421875  Q 17.96875 -1.421875 11.734375 6.484375  Q 5.515625 14.40625 5.515625 27.296875  Q 5.515625 40.1875 11.734375 48.09375  Q 17.96875 56 27.875 56  Q 33.9375 56 38.25 53.625  Q 42.578125 51.265625 45.40625 46.390625  z M 14.796875 27.296875  Q 14.796875 17.390625 18.875 11.75  Q 22.953125 6.109375 30.078125 6.109375  Q 37.203125 6.109375 41.296875 11.75  Q 45.40625 17.390625 45.40625 27.296875  Q 45.40625 37.203125 41.296875 42.84375  Q 37.203125 48.484375 30.078125 48.484375  Q 22.953125 48.484375 18.875 42.84375  Q 14.796875 37.203125 14.796875 27.296875  z "
               id="DejaVuSans-100" />
            <path
               id="DejaVuSans-32" />
            <path
               d="M 9.8125 72.90625  L 19.671875 72.90625  L 19.671875 8.296875  L 55.171875 8.296875  L 55.171875 0  L 9.8125 0  z "
               id="DejaVuSans-76" />
            <path
               d="M 30.609375 48.390625  Q 23.390625 48.390625 19.1875 42.75  Q 14.984375 37.109375 14.984375 27.296875  Q 14.984375 17.484375 19.15625 11.84375  Q 23.34375 6.203125 30.609375 6.203125  Q 37.796875 6.203125 41.984375 11.859375  Q 46.1875 17.53125 46.1875 27.296875  Q 46.1875 37.015625 41.984375 42.703125  Q 37.796875 48.390625 30.609375 48.390625  z M 30.609375 56  Q 42.328125 56 49.015625 48.375  Q 55.71875 40.765625 55.71875 27.296875  Q 55.71875 13.875 49.015625 6.21875  Q 42.328125 -1.421875 30.609375 -1.421875  Q 18.84375 -1.421875 12.171875 6.21875  Q 5.515625 13.875 5.515625 27.296875  Q 5.515625 40.765625 12.171875 48.375  Q 18.84375 56 30.609375 56  z "
               id="DejaVuSans-111" />
            <path
               d="M 44.28125 53.078125  L 44.28125 44.578125  Q 40.484375 46.53125 36.375 47.5  Q 32.28125 48.484375 27.875 48.484375  Q 21.1875 48.484375 17.84375 46.4375  Q 14.5 44.390625 14.5 40.28125  Q 14.5 37.15625 16.890625 35.375  Q 19.28125 33.59375 26.515625 31.984375  L 29.59375 31.296875  Q 39.15625 29.25 43.1875 25.515625  Q 47.21875 21.78125 47.21875 15.09375  Q 47.21875 7.46875 41.1875 3.015625  Q 35.15625 -1.421875 24.609375 -1.421875  Q 20.21875 -1.421875 15.453125 -0.5625  Q 10.6875 0.296875 5.421875 2  L 5.421875 11.28125  Q 10.40625 8.6875 15.234375 7.390625  Q 20.0625 6.109375 24.8125 6.109375  Q 31.15625 6.109375 34.5625 8.28125  Q 37.984375 10.453125 37.984375 14.40625  Q 37.984375 18.0625 35.515625 20.015625  Q 33.0625 21.96875 24.703125 23.78125  L 21.578125 24.515625  Q 13.234375 26.265625 9.515625 29.90625  Q 5.8125 33.546875 5.8125 39.890625  Q 5.8125 47.609375 11.28125 51.796875  Q 16.75 56 26.8125 56  Q 31.78125 56 36.171875 55.265625  Q 40.578125 54.546875 44.28125 53.078125  z "
               id="DejaVuSans-115" />
            <path
               d="M 9.421875 54.6875  L 18.40625 54.6875  L 18.40625 0  L 9.421875 0  z M 9.421875 75.984375  L 18.40625 75.984375  L 18.40625 64.59375  L 9.421875 64.59375  z "
               id="DejaVuSans-105" />
            <path
               d="M 37.109375 75.984375  L 37.109375 68.5  L 28.515625 68.5  Q 23.6875 68.5 21.796875 66.546875  Q 19.921875 64.59375 19.921875 59.515625  L 19.921875 54.6875  L 34.71875 54.6875  L 34.71875 47.703125  L 19.921875 47.703125  L 19.921875 0  L 10.890625 0  L 10.890625 47.703125  L 2.296875 47.703125  L 2.296875 54.6875  L 10.890625 54.6875  L 10.890625 58.5  Q 10.890625 67.625 15.140625 71.796875  Q 19.390625 75.984375 28.609375 75.984375  z "
               id="DejaVuSans-102" />
            <path
               d="M 24.8125 -5.078125  Q 18.5625 -15.578125 14.625 -18.1875  Q 10.6875 -20.796875 4.59375 -20.796875  L -2.484375 -20.796875  L -0.984375 -13.28125  L 4.203125 -13.28125  Q 7.953125 -13.28125 10.59375 -11.234375  Q 13.234375 -9.1875 16.5 -3.21875  L 19.28125 2  L 7.171875 54.6875  L 16.703125 54.6875  L 25.78125 12.796875  L 50.875 54.6875  L 60.296875 54.6875  z "
               id="DejaVuSans-Oblique-121" />
            <path
               d="M 10.59375 45.40625  L 73.1875 45.40625  L 73.1875 37.203125  L 10.59375 37.203125  z M 10.59375 25.484375  L 73.1875 25.484375  L 73.1875 17.1875  L 10.59375 17.1875  z "
               id="DejaVuSans-61" />
          </defs>
          <use
             transform="translate(0 0.015625)"
             xlink:href="#DejaVuSans-83"
             id="use276" />
          <use
             transform="translate(63.476562 0.015625)"
             xlink:href="#DejaVuSans-113"
             id="use278" />
          <use
             transform="translate(126.953125 0.015625)"
             xlink:href="#DejaVuSans-117"
             id="use280" />
          <use
             transform="translate(190.332031 0.015625)"
             xlink:href="#DejaVuSans-97"
             id="use282" />
          <use
             transform="translate(251.611328 0.015625)"
             xlink:href="#DejaVuSans-114"
             id="use284" />
          <use
             transform="translate(292.724609 0.015625)"
             xlink:href="#DejaVuSans-101"
             id="use286" />
          <use
             transform="translate(354.248047 0.015625)"
             xlink:href="#DejaVuSans-100"
             id="use288" />
          <use
             transform="translate(417.724609 0.015625)"
             xlink:href="#DejaVuSans-32"
             id="use290" />
          <use
             transform="translate(449.511719 0.015625)"
             xlink:href="#DejaVuSans-76"
             id="use292" />
          <use
             transform="translate(505.224609 0.015625)"
             xlink:href="#DejaVuSans-111"
             id="use294" />
          <use
             transform="translate(566.40625 0.015625)"
             xlink:href="#DejaVuSans-115"
             id="use296" />
          <use
             transform="translate(618.505859 0.015625)"
             xlink:href="#DejaVuSans-115"
             id="use298" />
          <use
             transform="translate(670.605469 0.015625)"
             xlink:href="#DejaVuSans-32"
             id="use300" />
          <use
             transform="translate(702.392578 0.015625)"
             xlink:href="#DejaVuSans-105"
             id="use302" />
          <use
             transform="translate(730.175781 0.015625)"
             xlink:href="#DejaVuSans-102"
             id="use304" />
          <use
             transform="translate(765.380859 0.015625)"
             xlink:href="#DejaVuSans-32"
             id="use306" />
          <use
             transform="translate(797.167969 0.015625)"
             xlink:href="#DejaVuSans-Oblique-121"
             id="use308" />
          <use
             transform="translate(875.830078 0.015625)"
             xlink:href="#DejaVuSans-61"
             id="use310" />
          <use
             transform="translate(979.101562 0.015625)"
             xlink:href="#DejaVuSans-48"
             id="use312" />
        </g>
      </g>
    </g>
  </g>
  <defs
     id="defs322">
    <clipPath
       id="p168ead7a62">
      <rect
         height="217.44"
         width="446.4"
         x="30.103125"
         y="22.32"
         id="rect319" />
    </clipPath>
  </defs>
  <circle
     style="fill:#000000;fill-opacity:1;stroke:#000000;stroke-width:0.52416945;stroke-linecap:butt;stroke-linejoin:round;stroke-miterlimit:4;stroke-dasharray:none;stroke-dashoffset:0;stroke-opacity:1;paint-order:stroke markers fill"
     id="path1133"
     cx="419.47757"
     cy="39.476994"
     r="5.3629155" />
  <circle
     style="fill:#000000;fill-opacity:1;stroke:#000000;stroke-width:0.52416945;stroke-linecap:butt;stroke-linejoin:round;stroke-miterlimit:4;stroke-dasharray:none;stroke-dashoffset:0;stroke-opacity:1;paint-order:stroke markers fill"
     id="path1133-3"
     cx="196.73663"
     cy="217.52435"
     r="5.3629155" />
  <path
     style="fill:none;stroke:#000000;stroke-width:0.75px;stroke-linecap:butt;stroke-linejoin:miter;stroke-opacity:1"
     d="M 50.394034,229.87636 50.980046,20.787724"
     id="path1161"
     inkscape:connector-curvature="0" />
  <path
     style="fill:none;stroke:#000000;stroke-width:0.75px;stroke-linecap:butt;stroke-linejoin:miter;stroke-opacity:1"
     d="m 456.21221,32.203636 -0.0369,-11.0725"
     id="path1163"
     inkscape:connector-curvature="0" />
  <path
     style="fill:#9d3400;fill-opacity:0.14761905;stroke:#000000;stroke-width:0.87527525;stroke-linecap:butt;stroke-linejoin:round;stroke-miterlimit:4;stroke-dasharray:none;stroke-dashoffset:0;stroke-opacity:1;paint-order:stroke markers fill"
     d="m 68.158249,250.1602 c 0.318278,-30.23969 0.578687,-92.07897 0.578687,-137.42063 V 30.300206 H 337.89784 607.05875 v 5.640745 5.640745 l -2.84017,0.489859 c -11.90868,2.053949 -27.56143,5.013762 -32.03937,6.058393 -5.30821,1.238322 -5.40972,1.226688 -7.49547,-0.859068 -4.31049,-4.310493 -11.59629,-2.030919 -13.11817,4.104404 -0.48395,1.950981 -1.61281,2.630768 -7.69791,4.635587 -25.20626,8.30456 -50.12956,21.368514 -71.82631,37.648945 -26.20576,19.663824 -46.18987,40.135194 -89.1469,91.320524 -24.7239,29.45969 -33.53451,39.32655 -48.00568,53.76076 -20.17729,20.12574 -36.79575,32.7159 -55.81526,42.28569 l -9.09402,4.57571 -2.96306,-1.80641 c -3.54644,-2.16208 -5.25708,-2.25324 -8.71617,-0.46448 -2.38598,1.23384 -4.2693,5.26762 -3.30938,7.08815 0.17792,0.33747 -0.85626,0.94742 -2.29819,1.35547 -33.8182,9.57015 -59.00495,11.95324 -135.37762,12.80896 l -49.735508,0.55727 z"
     id="path1165"
     inkscape:connector-curvature="0"
     transform="scale(0.75000001)" />
  <path
     style="fill:none;stroke:#000000;stroke-width:2.25000004;stroke-linecap:butt;stroke-linejoin:miter;stroke-opacity:1;stroke-miterlimit:4;stroke-dasharray:none"
     d="M 195.97187,218.41385 420.12697,37.516744"
     id="path1167"
     inkscape:connector-curvature="0" />
  <path
     style="fill:none;stroke:#000000;stroke-width:0.75px;stroke-linecap:butt;stroke-linejoin:miter;stroke-opacity:1;marker-end:url(#Arrow1Lend)"
     d="M 405.70764,154.83769 352.61827,97.160356"
     id="path1169"
     inkscape:connector-curvature="0" />
  <text
     xml:space="preserve"
     style="font-style:normal;font-weight:normal;font-size:14px;line-height:1.25;font-family:sans-serif;letter-spacing:0px;word-spacing:0px;fill:#000000;fill-opacity:1;stroke:none;stroke-width:0.75;stroke-linecap:butt;stroke-linejoin:round"
     x="339.5098"
     y="169.25702"
     id="text1455"><tspan
       sodipodi:role="line"
       id="tspan1453"
       style="stroke-width:0.75;stroke-linecap:butt;stroke-linejoin:round"
       x="339.5098"
       y="169.25702">This is where</tspan><tspan
       sodipodi:role="line"
       style="stroke-width:0.75;stroke-linecap:butt;stroke-linejoin:round"
       x="339.5098"
       y="186.75702"
       id="tspan1457">we fail convexity</tspan><tspan
       sodipodi:role="line"
       style="stroke-width:0.75;stroke-linecap:butt;stroke-linejoin:round"
       x="339.5098"
       y="204.25702"
       id="tspan1459">in this example!</tspan></text>
</svg>
