<?xml version="1.0" encoding="utf-8" standalone="no"?>
<!DOCTYPE svg PUBLIC "-//W3C//DTD SVG 1.1//EN"
  "http://www.w3.org/Graphics/SVG/1.1/DTD/svg11.dtd">
<!-- Created with matplotlib (https://matplotlib.org/) -->
<svg height="372.35625pt" version="1.1" viewBox="0 0 370.942187 372.35625" width="370.942187pt" xmlns="http://www.w3.org/2000/svg" xmlns:xlink="http://www.w3.org/1999/xlink">
 <metadata>
  <rdf:RDF xmlns:cc="http://creativecommons.org/ns#" xmlns:dc="http://purl.org/dc/elements/1.1/" xmlns:rdf="http://www.w3.org/1999/02/22-rdf-syntax-ns#">
   <cc:Work>
    <dc:type rdf:resource="http://purl.org/dc/dcmitype/StillImage"/>
    <dc:date>2021-10-25T09:59:09.064178</dc:date>
    <dc:format>image/svg+xml</dc:format>
    <dc:creator>
     <cc:Agent>
      <dc:title>Matplotlib v3.3.4, https://matplotlib.org/</dc:title>
     </cc:Agent>
    </dc:creator>
   </cc:Work>
  </rdf:RDF>
 </metadata>
 <defs>
  <style type="text/css">*{stroke-linecap:butt;stroke-linejoin:round;}</style>
 </defs>
 <g id="figure_1">
  <g id="patch_1">
   <path d="M 0 372.35625 
L 370.942187 372.35625 
L 370.942187 0 
L 0 0 
z
" style="fill:#ffffff;"/>
  </g>
  <g id="axes_1">
   <g id="patch_2">
    <path d="M 28.942188 348.478125 
L 363.742188 348.478125 
L 363.742188 22.318125 
L 28.942188 22.318125 
z
" style="fill:#ffffff;"/>
   </g>
   <g id="PathCollection_1">
    <defs>
     <path d="M 0 3 
C 0.795609 3 1.55874 2.683901 2.12132 2.12132 
C 2.683901 1.55874 3 0.795609 3 0 
C 3 -0.795609 2.683901 -1.55874 2.12132 -2.12132 
C 1.55874 -2.683901 0.795609 -3 0 -3 
C -0.795609 -3 -1.55874 -2.683901 -2.12132 -2.12132 
C -2.683901 -1.55874 -3 -0.795609 -3 0 
C -3 0.795609 -2.683901 1.55874 -2.12132 2.12132 
C -1.55874 2.683901 -0.795609 3 0 3 
z
" id="ma8dcbd5c5d" style="stroke:#1f77b4;"/>
    </defs>
    <g clip-path="url(#pfb2867000d)">
     <use style="fill:#1f77b4;stroke:#1f77b4;" x="335.436919" xlink:href="#ma8dcbd5c5d" y="224.744289"/>
     <use style="fill:#1f77b4;stroke:#1f77b4;" x="315.113742" xlink:href="#ma8dcbd5c5d" y="177.107819"/>
     <use style="fill:#1f77b4;stroke:#1f77b4;" x="338.115545" xlink:href="#ma8dcbd5c5d" y="260.390978"/>
     <use style="fill:#1f77b4;stroke:#1f77b4;" x="314.372319" xlink:href="#ma8dcbd5c5d" y="239.016949"/>
     <use style="fill:#1f77b4;stroke:#1f77b4;" x="287.113744" xlink:href="#ma8dcbd5c5d" y="224.474078"/>
     <use style="fill:#1f77b4;stroke:#1f77b4;" x="293.512657" xlink:href="#ma8dcbd5c5d" y="197.464777"/>
     <use style="fill:#1f77b4;stroke:#1f77b4;" x="309.47987" xlink:href="#ma8dcbd5c5d" y="231.951139"/>
     <use style="fill:#1f77b4;stroke:#1f77b4;" x="301.2717" xlink:href="#ma8dcbd5c5d" y="226.464802"/>
     <use style="fill:#1f77b4;stroke:#1f77b4;" x="328.450272" xlink:href="#ma8dcbd5c5d" y="240.409269"/>
     <use style="fill:#1f77b4;stroke:#1f77b4;" x="297.886838" xlink:href="#ma8dcbd5c5d" y="257.203144"/>
     <use style="fill:#1f77b4;stroke:#1f77b4;" x="223.716038" xlink:href="#ma8dcbd5c5d" y="218.184953"/>
     <use style="fill:#1f77b4;stroke:#1f77b4;" x="312.155722" xlink:href="#ma8dcbd5c5d" y="254.306485"/>
     <use style="fill:#1f77b4;stroke:#1f77b4;" x="348.524006" xlink:href="#ma8dcbd5c5d" y="272.73755"/>
     <use style="fill:#1f77b4;stroke:#1f77b4;" x="290.969135" xlink:href="#ma8dcbd5c5d" y="239.944108"/>
     <use style="fill:#1f77b4;stroke:#1f77b4;" x="329.451794" xlink:href="#ma8dcbd5c5d" y="197.074385"/>
     <use style="fill:#1f77b4;stroke:#1f77b4;" x="293.794838" xlink:href="#ma8dcbd5c5d" y="225.31349"/>
     <use style="fill:#1f77b4;stroke:#1f77b4;" x="266.809911" xlink:href="#ma8dcbd5c5d" y="286.36107"/>
     <use style="fill:#1f77b4;stroke:#1f77b4;" x="280.781318" xlink:href="#ma8dcbd5c5d" y="231.053811"/>
     <use style="fill:#1f77b4;stroke:#1f77b4;" x="321.623683" xlink:href="#ma8dcbd5c5d" y="203.983542"/>
     <use style="fill:#1f77b4;stroke:#1f77b4;" x="279.761304" xlink:href="#ma8dcbd5c5d" y="242.923274"/>
     <use style="fill:#1f77b4;stroke:#1f77b4;" x="262.64941" xlink:href="#ma8dcbd5c5d" y="271.848663"/>
     <use style="fill:#1f77b4;stroke:#1f77b4;" x="245.628324" xlink:href="#ma8dcbd5c5d" y="184.615788"/>
     <use style="fill:#1f77b4;stroke:#1f77b4;" x="276.595642" xlink:href="#ma8dcbd5c5d" y="246.436911"/>
     <use style="fill:#1f77b4;stroke:#1f77b4;" x="257.363814" xlink:href="#ma8dcbd5c5d" y="214.979271"/>
     <use style="fill:#1f77b4;stroke:#1f77b4;" x="248.018831" xlink:href="#ma8dcbd5c5d" y="240.605484"/>
     <use style="fill:#1f77b4;stroke:#1f77b4;" x="266.611139" xlink:href="#ma8dcbd5c5d" y="225.087308"/>
     <use style="fill:#1f77b4;stroke:#1f77b4;" x="276.565805" xlink:href="#ma8dcbd5c5d" y="265.653591"/>
     <use style="fill:#1f77b4;stroke:#1f77b4;" x="289.055619" xlink:href="#ma8dcbd5c5d" y="224.015156"/>
     <use style="fill:#1f77b4;stroke:#1f77b4;" x="291.50635" xlink:href="#ma8dcbd5c5d" y="227.27229"/>
     <use style="fill:#1f77b4;stroke:#1f77b4;" x="273.369305" xlink:href="#ma8dcbd5c5d" y="244.487362"/>
     <use style="fill:#1f77b4;stroke:#1f77b4;" x="272.382321" xlink:href="#ma8dcbd5c5d" y="244.404859"/>
     <use style="fill:#1f77b4;stroke:#1f77b4;" x="268.741508" xlink:href="#ma8dcbd5c5d" y="279.774497"/>
     <use style="fill:#1f77b4;stroke:#1f77b4;" x="294.376566" xlink:href="#ma8dcbd5c5d" y="245.497673"/>
     <use style="fill:#1f77b4;stroke:#1f77b4;" x="247.59699" xlink:href="#ma8dcbd5c5d" y="223.123613"/>
     <use style="fill:#1f77b4;stroke:#1f77b4;" x="266.304943" xlink:href="#ma8dcbd5c5d" y="233.755674"/>
     <use style="fill:#1f77b4;stroke:#1f77b4;" x="308.653108" xlink:href="#ma8dcbd5c5d" y="231.762018"/>
     <use style="fill:#1f77b4;stroke:#1f77b4;" x="319.271538" xlink:href="#ma8dcbd5c5d" y="267.05607"/>
     <use style="fill:#1f77b4;stroke:#1f77b4;" x="300.197161" xlink:href="#ma8dcbd5c5d" y="252.822195"/>
     <use style="fill:#1f77b4;stroke:#1f77b4;" x="267.249559" xlink:href="#ma8dcbd5c5d" y="250.080041"/>
     <use style="fill:#1f77b4;stroke:#1f77b4;" x="281.72227" xlink:href="#ma8dcbd5c5d" y="233.646466"/>
     <use style="fill:#1f77b4;stroke:#1f77b4;" x="259.631996" xlink:href="#ma8dcbd5c5d" y="211.787451"/>
     <use style="fill:#1f77b4;stroke:#1f77b4;" x="301.835843" xlink:href="#ma8dcbd5c5d" y="274.856474"/>
     <use style="fill:#1f77b4;stroke:#1f77b4;" x="328.299478" xlink:href="#ma8dcbd5c5d" y="186.03619"/>
     <use style="fill:#1f77b4;stroke:#1f77b4;" x="320.290625" xlink:href="#ma8dcbd5c5d" y="239.756252"/>
     <use style="fill:#1f77b4;stroke:#1f77b4;" x="262.074905" xlink:href="#ma8dcbd5c5d" y="207.811779"/>
     <use style="fill:#1f77b4;stroke:#1f77b4;" x="279.351118" xlink:href="#ma8dcbd5c5d" y="203.464273"/>
     <use style="fill:#1f77b4;stroke:#1f77b4;" x="295.174904" xlink:href="#ma8dcbd5c5d" y="209.825496"/>
     <use style="fill:#1f77b4;stroke:#1f77b4;" x="299.007366" xlink:href="#ma8dcbd5c5d" y="216.81454"/>
     <use style="fill:#1f77b4;stroke:#1f77b4;" x="290.056679" xlink:href="#ma8dcbd5c5d" y="188.883367"/>
     <use style="fill:#1f77b4;stroke:#1f77b4;" x="293.069311" xlink:href="#ma8dcbd5c5d" y="224.696874"/>
    </g>
   </g>
   <g id="PathCollection_2">
    <defs>
     <path d="M 0 5 
C 1.326016 5 2.597899 4.473168 3.535534 3.535534 
C 4.473168 2.597899 5 1.326016 5 0 
C 5 -1.326016 4.473168 -2.597899 3.535534 -3.535534 
C 2.597899 -4.473168 1.326016 -5 0 -5 
C -1.326016 -5 -2.597899 -4.473168 -3.535534 -3.535534 
C -4.473168 -2.597899 -5 -1.326016 -5 0 
C -5 1.326016 -4.473168 2.597899 -3.535534 3.535534 
C -2.597899 4.473168 -1.326016 5 0 5 
z
" id="me80b624d2f" style="stroke:#000000;"/>
    </defs>
    <g clip-path="url(#pfb2867000d)">
     <use style="fill:#1f77b4;stroke:#000000;" x="290.219876" xlink:href="#me80b624d2f" y="232.439351"/>
    </g>
   </g>
   <g id="PathCollection_3">
    <defs>
     <path d="M 0 3 
C 0.795609 3 1.55874 2.683901 2.12132 2.12132 
C 2.683901 1.55874 3 0.795609 3 0 
C 3 -0.795609 2.683901 -1.55874 2.12132 -2.12132 
C 1.55874 -2.683901 0.795609 -3 0 -3 
C -0.795609 -3 -1.55874 -2.683901 -2.12132 -2.12132 
C -2.683901 -1.55874 -3 -0.795609 -3 0 
C -3 0.795609 -2.683901 1.55874 -2.12132 2.12132 
C -1.55874 2.683901 -0.795609 3 0 3 
z
" id="me057df4583" style="stroke:#ff7f0e;"/>
    </defs>
    <g clip-path="url(#pfb2867000d)">
     <use style="fill:#ff7f0e;stroke:#ff7f0e;" x="176.714743" xlink:href="#me057df4583" y="137.778736"/>
     <use style="fill:#ff7f0e;stroke:#ff7f0e;" x="214.72694" xlink:href="#me057df4583" y="114.626242"/>
     <use style="fill:#ff7f0e;stroke:#ff7f0e;" x="202.834797" xlink:href="#me057df4583" y="173.429095"/>
     <use style="fill:#ff7f0e;stroke:#ff7f0e;" x="185.639275" xlink:href="#me057df4583" y="150.683361"/>
     <use style="fill:#ff7f0e;stroke:#ff7f0e;" x="193.51299" xlink:href="#me057df4583" y="134.123872"/>
     <use style="fill:#ff7f0e;stroke:#ff7f0e;" x="209.823363" xlink:href="#me057df4583" y="123.374533"/>
     <use style="fill:#ff7f0e;stroke:#ff7f0e;" x="206.61822" xlink:href="#me057df4583" y="143.65431"/>
     <use style="fill:#ff7f0e;stroke:#ff7f0e;" x="161.827455" xlink:href="#me057df4583" y="142.195524"/>
     <use style="fill:#ff7f0e;stroke:#ff7f0e;" x="185.82834" xlink:href="#me057df4583" y="121.771754"/>
     <use style="fill:#ff7f0e;stroke:#ff7f0e;" x="244.737545" xlink:href="#me057df4583" y="132.677409"/>
     <use style="fill:#ff7f0e;stroke:#ff7f0e;" x="161.529879" xlink:href="#me057df4583" y="140.537509"/>
     <use style="fill:#ff7f0e;stroke:#ff7f0e;" x="174.271396" xlink:href="#me057df4583" y="119.123559"/>
     <use style="fill:#ff7f0e;stroke:#ff7f0e;" x="146.394473" xlink:href="#me057df4583" y="129.946675"/>
     <use style="fill:#ff7f0e;stroke:#ff7f0e;" x="190.31905" xlink:href="#me057df4583" y="125.575213"/>
     <use style="fill:#ff7f0e;stroke:#ff7f0e;" x="170.810849" xlink:href="#me057df4583" y="137.741019"/>
     <use style="fill:#ff7f0e;stroke:#ff7f0e;" x="149.415491" xlink:href="#me057df4583" y="144.350476"/>
     <use style="fill:#ff7f0e;stroke:#ff7f0e;" x="172.220081" xlink:href="#me057df4583" y="120.816861"/>
     <use style="fill:#ff7f0e;stroke:#ff7f0e;" x="156.347927" xlink:href="#me057df4583" y="111.367182"/>
     <use style="fill:#ff7f0e;stroke:#ff7f0e;" x="224.944628" xlink:href="#me057df4583" y="185.153047"/>
     <use style="fill:#ff7f0e;stroke:#ff7f0e;" x="197.299976" xlink:href="#me057df4583" y="114.066108"/>
     <use style="fill:#ff7f0e;stroke:#ff7f0e;" x="169.772557" xlink:href="#me057df4583" y="141.864845"/>
     <use style="fill:#ff7f0e;stroke:#ff7f0e;" x="182.829991" xlink:href="#me057df4583" y="139.290375"/>
     <use style="fill:#ff7f0e;stroke:#ff7f0e;" x="178.271855" xlink:href="#me057df4583" y="174.957194"/>
     <use style="fill:#ff7f0e;stroke:#ff7f0e;" x="216.09004" xlink:href="#me057df4583" y="103.644348"/>
     <use style="fill:#ff7f0e;stroke:#ff7f0e;" x="165.21973" xlink:href="#me057df4583" y="169.53348"/>
     <use style="fill:#ff7f0e;stroke:#ff7f0e;" x="199.753468" xlink:href="#me057df4583" y="146.484671"/>
     <use style="fill:#ff7f0e;stroke:#ff7f0e;" x="189.942423" xlink:href="#me057df4583" y="139.847745"/>
     <use style="fill:#ff7f0e;stroke:#ff7f0e;" x="204.165167" xlink:href="#me057df4583" y="113.604398"/>
     <use style="fill:#ff7f0e;stroke:#ff7f0e;" x="167.491053" xlink:href="#me057df4583" y="167.383957"/>
     <use style="fill:#ff7f0e;stroke:#ff7f0e;" x="145.303895" xlink:href="#me057df4583" y="115.787806"/>
     <use style="fill:#ff7f0e;stroke:#ff7f0e;" x="155.502283" xlink:href="#me057df4583" y="144.699752"/>
     <use style="fill:#ff7f0e;stroke:#ff7f0e;" x="170.836781" xlink:href="#me057df4583" y="132.944225"/>
     <use style="fill:#ff7f0e;stroke:#ff7f0e;" x="136.159761" xlink:href="#me057df4583" y="126.698427"/>
     <use style="fill:#ff7f0e;stroke:#ff7f0e;" x="199.826606" xlink:href="#me057df4583" y="129.295556"/>
     <use style="fill:#ff7f0e;stroke:#ff7f0e;" x="178.223378" xlink:href="#me057df4583" y="129.063212"/>
     <use style="fill:#ff7f0e;stroke:#ff7f0e;" x="196.595746" xlink:href="#me057df4583" y="203.335857"/>
     <use style="fill:#ff7f0e;stroke:#ff7f0e;" x="236.885933" xlink:href="#me057df4583" y="121.488596"/>
     <use style="fill:#ff7f0e;stroke:#ff7f0e;" x="169.385108" xlink:href="#me057df4583" y="141.70133"/>
     <use style="fill:#ff7f0e;stroke:#ff7f0e;" x="199.046372" xlink:href="#me057df4583" y="134.588492"/>
     <use style="fill:#ff7f0e;stroke:#ff7f0e;" x="133.716659" xlink:href="#me057df4583" y="78.156753"/>
     <use style="fill:#ff7f0e;stroke:#ff7f0e;" x="183.408126" xlink:href="#me057df4583" y="105.18275"/>
     <use style="fill:#ff7f0e;stroke:#ff7f0e;" x="168.35923" xlink:href="#me057df4583" y="91.82388"/>
     <use style="fill:#ff7f0e;stroke:#ff7f0e;" x="193.67911" xlink:href="#me057df4583" y="115.827544"/>
     <use style="fill:#ff7f0e;stroke:#ff7f0e;" x="159.218664" xlink:href="#me057df4583" y="100.240564"/>
     <use style="fill:#ff7f0e;stroke:#ff7f0e;" x="204.12064" xlink:href="#me057df4583" y="97.893311"/>
     <use style="fill:#ff7f0e;stroke:#ff7f0e;" x="170.014513" xlink:href="#me057df4583" y="144.032352"/>
     <use style="fill:#ff7f0e;stroke:#ff7f0e;" x="245.891951" xlink:href="#me057df4583" y="159.01602"/>
     <use style="fill:#ff7f0e;stroke:#ff7f0e;" x="182.750565" xlink:href="#me057df4583" y="102.162184"/>
     <use style="fill:#ff7f0e;stroke:#ff7f0e;" x="188.79784" xlink:href="#me057df4583" y="116.497556"/>
     <use style="fill:#ff7f0e;stroke:#ff7f0e;" x="175.931457" xlink:href="#me057df4583" y="122.007145"/>
    </g>
   </g>
   <g id="PathCollection_4">
    <defs>
     <path d="M 0 5 
C 1.326016 5 2.597899 4.473168 3.535534 3.535534 
C 4.473168 2.597899 5 1.326016 5 0 
C 5 -1.326016 4.473168 -2.597899 3.535534 -3.535534 
C 2.597899 -4.473168 1.326016 -5 0 -5 
C -1.326016 -5 -2.597899 -4.473168 -3.535534 -3.535534 
C -4.473168 -2.597899 -5 -1.326016 -5 0 
C -5 1.326016 -4.473168 2.597899 -3.535534 3.535534 
C -2.597899 4.473168 -1.326016 5 0 5 
z
" id="mac0b142c21" style="stroke:#000000;"/>
    </defs>
    <g clip-path="url(#pfb2867000d)">
     <use style="fill:#ff7f0e;stroke:#000000;" x="183.860166" xlink:href="#mac0b142c21" y="132.240936"/>
    </g>
   </g>
   <g id="PathCollection_5">
    <defs>
     <path d="M 0 3 
C 0.795609 3 1.55874 2.683901 2.12132 2.12132 
C 2.683901 1.55874 3 0.795609 3 0 
C 3 -0.795609 2.683901 -1.55874 2.12132 -2.12132 
C 1.55874 -2.683901 0.795609 -3 0 -3 
C -0.795609 -3 -1.55874 -2.683901 -2.12132 -2.12132 
C -2.683901 -1.55874 -3 -0.795609 -3 0 
C -3 0.795609 -2.683901 1.55874 -2.12132 2.12132 
C -1.55874 2.683901 -0.795609 3 0 3 
z
" id="m50def7999a" style="stroke:#2ca02c;"/>
    </defs>
    <g clip-path="url(#pfb2867000d)">
     <use style="fill:#2ca02c;stroke:#2ca02c;" x="131.486797" xlink:href="#m50def7999a" y="269.978674"/>
     <use style="fill:#2ca02c;stroke:#2ca02c;" x="49.873751" xlink:href="#m50def7999a" y="210.01292"/>
     <use style="fill:#2ca02c;stroke:#2ca02c;" x="52.393375" xlink:href="#m50def7999a" y="184.800932"/>
     <use style="fill:#2ca02c;stroke:#2ca02c;" x="72.048616" xlink:href="#m50def7999a" y="254.443379"/>
     <use style="fill:#2ca02c;stroke:#2ca02c;" x="132.516558" xlink:href="#m50def7999a" y="196.785678"/>
     <use style="fill:#2ca02c;stroke:#2ca02c;" x="131.083297" xlink:href="#m50def7999a" y="211.65241"/>
     <use style="fill:#2ca02c;stroke:#2ca02c;" x="60.464987" xlink:href="#m50def7999a" y="185.669335"/>
     <use style="fill:#2ca02c;stroke:#2ca02c;" x="75.817007" xlink:href="#m50def7999a" y="214.333174"/>
     <use style="fill:#2ca02c;stroke:#2ca02c;" x="107.266641" xlink:href="#m50def7999a" y="239.111482"/>
     <use style="fill:#2ca02c;stroke:#2ca02c;" x="98.644456" xlink:href="#m50def7999a" y="211.234153"/>
     <use style="fill:#2ca02c;stroke:#2ca02c;" x="92.494205" xlink:href="#m50def7999a" y="263.551401"/>
     <use style="fill:#2ca02c;stroke:#2ca02c;" x="90.470791" xlink:href="#m50def7999a" y="200.774385"/>
     <use style="fill:#2ca02c;stroke:#2ca02c;" x="64.77793" xlink:href="#m50def7999a" y="238.972368"/>
     <use style="fill:#2ca02c;stroke:#2ca02c;" x="71.491322" xlink:href="#m50def7999a" y="187.242812"/>
     <use style="fill:#2ca02c;stroke:#2ca02c;" x="100.151014" xlink:href="#m50def7999a" y="224.555252"/>
     <use style="fill:#2ca02c;stroke:#2ca02c;" x="62.827991" xlink:href="#m50def7999a" y="221.144723"/>
     <use style="fill:#2ca02c;stroke:#2ca02c;" x="65.301598" xlink:href="#m50def7999a" y="234.276227"/>
     <use style="fill:#2ca02c;stroke:#2ca02c;" x="66.297593" xlink:href="#m50def7999a" y="217.59453"/>
     <use style="fill:#2ca02c;stroke:#2ca02c;" x="97.674289" xlink:href="#m50def7999a" y="240.490541"/>
     <use style="fill:#2ca02c;stroke:#2ca02c;" x="93.000947" xlink:href="#m50def7999a" y="263.387347"/>
     <use style="fill:#2ca02c;stroke:#2ca02c;" x="44.160369" xlink:href="#m50def7999a" y="223.728938"/>
     <use style="fill:#2ca02c;stroke:#2ca02c;" x="87.066025" xlink:href="#m50def7999a" y="218.665971"/>
     <use style="fill:#2ca02c;stroke:#2ca02c;" x="144.42616" xlink:href="#m50def7999a" y="210.657754"/>
     <use style="fill:#2ca02c;stroke:#2ca02c;" x="59.129718" xlink:href="#m50def7999a" y="206.192668"/>
     <use style="fill:#2ca02c;stroke:#2ca02c;" x="48.698263" xlink:href="#m50def7999a" y="247.045335"/>
     <use style="fill:#2ca02c;stroke:#2ca02c;" x="80.986649" xlink:href="#m50def7999a" y="190.760316"/>
     <use style="fill:#2ca02c;stroke:#2ca02c;" x="63.47914" xlink:href="#m50def7999a" y="256.487402"/>
     <use style="fill:#2ca02c;stroke:#2ca02c;" x="80.204819" xlink:href="#m50def7999a" y="252.270148"/>
     <use style="fill:#2ca02c;stroke:#2ca02c;" x="111.908925" xlink:href="#m50def7999a" y="263.047555"/>
     <use style="fill:#2ca02c;stroke:#2ca02c;" x="53.057295" xlink:href="#m50def7999a" y="246.430331"/>
     <use style="fill:#2ca02c;stroke:#2ca02c;" x="69.864077" xlink:href="#m50def7999a" y="185.165545"/>
     <use style="fill:#2ca02c;stroke:#2ca02c;" x="107.322769" xlink:href="#m50def7999a" y="232.834229"/>
     <use style="fill:#2ca02c;stroke:#2ca02c;" x="51.039588" xlink:href="#m50def7999a" y="213.248673"/>
     <use style="fill:#2ca02c;stroke:#2ca02c;" x="56.868068" xlink:href="#m50def7999a" y="275.077155"/>
     <use style="fill:#2ca02c;stroke:#2ca02c;" x="113.497739" xlink:href="#m50def7999a" y="226.897802"/>
     <use style="fill:#2ca02c;stroke:#2ca02c;" x="106.583612" xlink:href="#m50def7999a" y="226.851607"/>
     <use style="fill:#2ca02c;stroke:#2ca02c;" x="104.926624" xlink:href="#m50def7999a" y="251.947884"/>
     <use style="fill:#2ca02c;stroke:#2ca02c;" x="55.98747" xlink:href="#m50def7999a" y="217.460963"/>
     <use style="fill:#2ca02c;stroke:#2ca02c;" x="61.961209" xlink:href="#m50def7999a" y="252.944853"/>
     <use style="fill:#2ca02c;stroke:#2ca02c;" x="70.963934" xlink:href="#m50def7999a" y="234.647627"/>
     <use style="fill:#2ca02c;stroke:#2ca02c;" x="73.591655" xlink:href="#m50def7999a" y="270.682382"/>
     <use style="fill:#2ca02c;stroke:#2ca02c;" x="66.096453" xlink:href="#m50def7999a" y="292.639497"/>
     <use style="fill:#2ca02c;stroke:#2ca02c;" x="98.933061" xlink:href="#m50def7999a" y="276.559676"/>
     <use style="fill:#2ca02c;stroke:#2ca02c;" x="54.172301" xlink:href="#m50def7999a" y="233.749989"/>
     <use style="fill:#2ca02c;stroke:#2ca02c;" x="63.613499" xlink:href="#m50def7999a" y="195.168243"/>
     <use style="fill:#2ca02c;stroke:#2ca02c;" x="49.294787" xlink:href="#m50def7999a" y="228.188952"/>
     <use style="fill:#2ca02c;stroke:#2ca02c;" x="81.736074" xlink:href="#m50def7999a" y="265.329102"/>
     <use style="fill:#2ca02c;stroke:#2ca02c;" x="96.29457" xlink:href="#m50def7999a" y="239.539424"/>
     <use style="fill:#2ca02c;stroke:#2ca02c;" x="102.725869" xlink:href="#m50def7999a" y="213.788479"/>
     <use style="fill:#2ca02c;stroke:#2ca02c;" x="138.735132" xlink:href="#m50def7999a" y="200.511918"/>
    </g>
   </g>
   <g id="PathCollection_6">
    <defs>
     <path d="M 0 5 
C 1.326016 5 2.597899 4.473168 3.535534 3.535534 
C 4.473168 2.597899 5 1.326016 5 0 
C 5 -1.326016 4.473168 -2.597899 3.535534 -3.535534 
C 2.597899 -4.473168 1.326016 -5 0 -5 
C -1.326016 -5 -2.597899 -4.473168 -3.535534 -3.535534 
C -4.473168 -2.597899 -5 -1.326016 -5 0 
C -5 1.326016 -4.473168 2.597899 -3.535534 3.535534 
C -2.597899 4.473168 -1.326016 5 0 5 
z
" id="me3cf844fdf" style="stroke:#000000;"/>
    </defs>
    <g clip-path="url(#pfb2867000d)">
     <use style="fill:#2ca02c;stroke:#000000;" x="82.26818" xlink:href="#me3cf844fdf" y="230.370643"/>
    </g>
   </g>
   <g id="matplotlib.axis_1">
    <g id="xtick_1">
     <g id="line2d_1">
      <defs>
       <path d="M 0 0 
L 0 3.5 
" id="m36376e166e" style="stroke:#000000;stroke-width:0.8;"/>
      </defs>
      <g>
       <use style="stroke:#000000;stroke-width:0.8;" x="30.994607" xlink:href="#m36376e166e" y="348.478125"/>
      </g>
     </g>
     <g id="text_1">
      <!-- −2 -->
      <g transform="translate(23.623513 363.076563)scale(0.1 -0.1)">
       <defs>
        <path d="M 10.59375 35.5 
L 73.1875 35.5 
L 73.1875 27.203125 
L 10.59375 27.203125 
z
" id="DejaVuSans-8722"/>
        <path d="M 19.1875 8.296875 
L 53.609375 8.296875 
L 53.609375 0 
L 7.328125 0 
L 7.328125 8.296875 
Q 12.9375 14.109375 22.625 23.890625 
Q 32.328125 33.6875 34.8125 36.53125 
Q 39.546875 41.84375 41.421875 45.53125 
Q 43.3125 49.21875 43.3125 52.78125 
Q 43.3125 58.59375 39.234375 62.25 
Q 35.15625 65.921875 28.609375 65.921875 
Q 23.96875 65.921875 18.8125 64.3125 
Q 13.671875 62.703125 7.8125 59.421875 
L 7.8125 69.390625 
Q 13.765625 71.78125 18.9375 73 
Q 24.125 74.21875 28.421875 74.21875 
Q 39.75 74.21875 46.484375 68.546875 
Q 53.21875 62.890625 53.21875 53.421875 
Q 53.21875 48.921875 51.53125 44.890625 
Q 49.859375 40.875 45.40625 35.40625 
Q 44.1875 33.984375 37.640625 27.21875 
Q 31.109375 20.453125 19.1875 8.296875 
z
" id="DejaVuSans-50"/>
       </defs>
       <use xlink:href="#DejaVuSans-8722"/>
       <use x="83.789062" xlink:href="#DejaVuSans-50"/>
      </g>
     </g>
    </g>
    <g id="xtick_2">
     <g id="line2d_2">
      <g>
       <use style="stroke:#000000;stroke-width:0.8;" x="82.752675" xlink:href="#m36376e166e" y="348.478125"/>
      </g>
     </g>
     <g id="text_2">
      <!-- 0 -->
      <g transform="translate(79.571425 363.076563)scale(0.1 -0.1)">
       <defs>
        <path d="M 31.78125 66.40625 
Q 24.171875 66.40625 20.328125 58.90625 
Q 16.5 51.421875 16.5 36.375 
Q 16.5 21.390625 20.328125 13.890625 
Q 24.171875 6.390625 31.78125 6.390625 
Q 39.453125 6.390625 43.28125 13.890625 
Q 47.125 21.390625 47.125 36.375 
Q 47.125 51.421875 43.28125 58.90625 
Q 39.453125 66.40625 31.78125 66.40625 
z
M 31.78125 74.21875 
Q 44.046875 74.21875 50.515625 64.515625 
Q 56.984375 54.828125 56.984375 36.375 
Q 56.984375 17.96875 50.515625 8.265625 
Q 44.046875 -1.421875 31.78125 -1.421875 
Q 19.53125 -1.421875 13.0625 8.265625 
Q 6.59375 17.96875 6.59375 36.375 
Q 6.59375 54.828125 13.0625 64.515625 
Q 19.53125 74.21875 31.78125 74.21875 
z
" id="DejaVuSans-48"/>
       </defs>
       <use xlink:href="#DejaVuSans-48"/>
      </g>
     </g>
    </g>
    <g id="xtick_3">
     <g id="line2d_3">
      <g>
       <use style="stroke:#000000;stroke-width:0.8;" x="134.510744" xlink:href="#m36376e166e" y="348.478125"/>
      </g>
     </g>
     <g id="text_3">
      <!-- 2 -->
      <g transform="translate(131.329494 363.076563)scale(0.1 -0.1)">
       <use xlink:href="#DejaVuSans-50"/>
      </g>
     </g>
    </g>
    <g id="xtick_4">
     <g id="line2d_4">
      <g>
       <use style="stroke:#000000;stroke-width:0.8;" x="186.268812" xlink:href="#m36376e166e" y="348.478125"/>
      </g>
     </g>
     <g id="text_4">
      <!-- 4 -->
      <g transform="translate(183.087562 363.076563)scale(0.1 -0.1)">
       <defs>
        <path d="M 37.796875 64.3125 
L 12.890625 25.390625 
L 37.796875 25.390625 
z
M 35.203125 72.90625 
L 47.609375 72.90625 
L 47.609375 25.390625 
L 58.015625 25.390625 
L 58.015625 17.1875 
L 47.609375 17.1875 
L 47.609375 0 
L 37.796875 0 
L 37.796875 17.1875 
L 4.890625 17.1875 
L 4.890625 26.703125 
z
" id="DejaVuSans-52"/>
       </defs>
       <use xlink:href="#DejaVuSans-52"/>
      </g>
     </g>
    </g>
    <g id="xtick_5">
     <g id="line2d_5">
      <g>
       <use style="stroke:#000000;stroke-width:0.8;" x="238.02688" xlink:href="#m36376e166e" y="348.478125"/>
      </g>
     </g>
     <g id="text_5">
      <!-- 6 -->
      <g transform="translate(234.84563 363.076563)scale(0.1 -0.1)">
       <defs>
        <path d="M 33.015625 40.375 
Q 26.375 40.375 22.484375 35.828125 
Q 18.609375 31.296875 18.609375 23.390625 
Q 18.609375 15.53125 22.484375 10.953125 
Q 26.375 6.390625 33.015625 6.390625 
Q 39.65625 6.390625 43.53125 10.953125 
Q 47.40625 15.53125 47.40625 23.390625 
Q 47.40625 31.296875 43.53125 35.828125 
Q 39.65625 40.375 33.015625 40.375 
z
M 52.59375 71.296875 
L 52.59375 62.3125 
Q 48.875 64.0625 45.09375 64.984375 
Q 41.3125 65.921875 37.59375 65.921875 
Q 27.828125 65.921875 22.671875 59.328125 
Q 17.53125 52.734375 16.796875 39.40625 
Q 19.671875 43.65625 24.015625 45.921875 
Q 28.375 48.1875 33.59375 48.1875 
Q 44.578125 48.1875 50.953125 41.515625 
Q 57.328125 34.859375 57.328125 23.390625 
Q 57.328125 12.15625 50.6875 5.359375 
Q 44.046875 -1.421875 33.015625 -1.421875 
Q 20.359375 -1.421875 13.671875 8.265625 
Q 6.984375 17.96875 6.984375 36.375 
Q 6.984375 53.65625 15.1875 63.9375 
Q 23.390625 74.21875 37.203125 74.21875 
Q 40.921875 74.21875 44.703125 73.484375 
Q 48.484375 72.75 52.59375 71.296875 
z
" id="DejaVuSans-54"/>
       </defs>
       <use xlink:href="#DejaVuSans-54"/>
      </g>
     </g>
    </g>
    <g id="xtick_6">
     <g id="line2d_6">
      <g>
       <use style="stroke:#000000;stroke-width:0.8;" x="289.784948" xlink:href="#m36376e166e" y="348.478125"/>
      </g>
     </g>
     <g id="text_6">
      <!-- 8 -->
      <g transform="translate(286.603698 363.076563)scale(0.1 -0.1)">
       <defs>
        <path d="M 31.78125 34.625 
Q 24.75 34.625 20.71875 30.859375 
Q 16.703125 27.09375 16.703125 20.515625 
Q 16.703125 13.921875 20.71875 10.15625 
Q 24.75 6.390625 31.78125 6.390625 
Q 38.8125 6.390625 42.859375 10.171875 
Q 46.921875 13.96875 46.921875 20.515625 
Q 46.921875 27.09375 42.890625 30.859375 
Q 38.875 34.625 31.78125 34.625 
z
M 21.921875 38.8125 
Q 15.578125 40.375 12.03125 44.71875 
Q 8.5 49.078125 8.5 55.328125 
Q 8.5 64.0625 14.71875 69.140625 
Q 20.953125 74.21875 31.78125 74.21875 
Q 42.671875 74.21875 48.875 69.140625 
Q 55.078125 64.0625 55.078125 55.328125 
Q 55.078125 49.078125 51.53125 44.71875 
Q 48 40.375 41.703125 38.8125 
Q 48.828125 37.15625 52.796875 32.3125 
Q 56.78125 27.484375 56.78125 20.515625 
Q 56.78125 9.90625 50.3125 4.234375 
Q 43.84375 -1.421875 31.78125 -1.421875 
Q 19.734375 -1.421875 13.25 4.234375 
Q 6.78125 9.90625 6.78125 20.515625 
Q 6.78125 27.484375 10.78125 32.3125 
Q 14.796875 37.15625 21.921875 38.8125 
z
M 18.3125 54.390625 
Q 18.3125 48.734375 21.84375 45.5625 
Q 25.390625 42.390625 31.78125 42.390625 
Q 38.140625 42.390625 41.71875 45.5625 
Q 45.3125 48.734375 45.3125 54.390625 
Q 45.3125 60.0625 41.71875 63.234375 
Q 38.140625 66.40625 31.78125 66.40625 
Q 25.390625 66.40625 21.84375 63.234375 
Q 18.3125 60.0625 18.3125 54.390625 
z
" id="DejaVuSans-56"/>
       </defs>
       <use xlink:href="#DejaVuSans-56"/>
      </g>
     </g>
    </g>
    <g id="xtick_7">
     <g id="line2d_7">
      <g>
       <use style="stroke:#000000;stroke-width:0.8;" x="341.543017" xlink:href="#m36376e166e" y="348.478125"/>
      </g>
     </g>
     <g id="text_7">
      <!-- 10 -->
      <g transform="translate(335.180517 363.076563)scale(0.1 -0.1)">
       <defs>
        <path d="M 12.40625 8.296875 
L 28.515625 8.296875 
L 28.515625 63.921875 
L 10.984375 60.40625 
L 10.984375 69.390625 
L 28.421875 72.90625 
L 38.28125 72.90625 
L 38.28125 8.296875 
L 54.390625 8.296875 
L 54.390625 0 
L 12.40625 0 
z
" id="DejaVuSans-49"/>
       </defs>
       <use xlink:href="#DejaVuSans-49"/>
       <use x="63.623047" xlink:href="#DejaVuSans-48"/>
      </g>
     </g>
    </g>
   </g>
   <g id="matplotlib.axis_2">
    <g id="ytick_1">
     <g id="line2d_8">
      <defs>
       <path d="M 0 0 
L -3.5 0 
" id="mf331770a28" style="stroke:#000000;stroke-width:0.8;"/>
      </defs>
      <g>
       <use style="stroke:#000000;stroke-width:0.8;" x="28.942188" xlink:href="#mf331770a28" y="338.616107"/>
      </g>
     </g>
     <g id="text_8">
      <!-- −4 -->
      <g transform="translate(7.2 342.415326)scale(0.1 -0.1)">
       <use xlink:href="#DejaVuSans-8722"/>
       <use x="83.789062" xlink:href="#DejaVuSans-52"/>
      </g>
     </g>
    </g>
    <g id="ytick_2">
     <g id="line2d_9">
      <g>
       <use style="stroke:#000000;stroke-width:0.8;" x="28.942188" xlink:href="#mf331770a28" y="286.858039"/>
      </g>
     </g>
     <g id="text_9">
      <!-- −2 -->
      <g transform="translate(7.2 290.657258)scale(0.1 -0.1)">
       <use xlink:href="#DejaVuSans-8722"/>
       <use x="83.789062" xlink:href="#DejaVuSans-50"/>
      </g>
     </g>
    </g>
    <g id="ytick_3">
     <g id="line2d_10">
      <g>
       <use style="stroke:#000000;stroke-width:0.8;" x="28.942188" xlink:href="#mf331770a28" y="235.099971"/>
      </g>
     </g>
     <g id="text_10">
      <!-- 0 -->
      <g transform="translate(15.579688 238.89919)scale(0.1 -0.1)">
       <use xlink:href="#DejaVuSans-48"/>
      </g>
     </g>
    </g>
    <g id="ytick_4">
     <g id="line2d_11">
      <g>
       <use style="stroke:#000000;stroke-width:0.8;" x="28.942188" xlink:href="#mf331770a28" y="183.341903"/>
      </g>
     </g>
     <g id="text_11">
      <!-- 2 -->
      <g transform="translate(15.579688 187.141121)scale(0.1 -0.1)">
       <use xlink:href="#DejaVuSans-50"/>
      </g>
     </g>
    </g>
    <g id="ytick_5">
     <g id="line2d_12">
      <g>
       <use style="stroke:#000000;stroke-width:0.8;" x="28.942188" xlink:href="#mf331770a28" y="131.583834"/>
      </g>
     </g>
     <g id="text_12">
      <!-- 4 -->
      <g transform="translate(15.579688 135.383053)scale(0.1 -0.1)">
       <use xlink:href="#DejaVuSans-52"/>
      </g>
     </g>
    </g>
    <g id="ytick_6">
     <g id="line2d_13">
      <g>
       <use style="stroke:#000000;stroke-width:0.8;" x="28.942188" xlink:href="#mf331770a28" y="79.825766"/>
      </g>
     </g>
     <g id="text_13">
      <!-- 6 -->
      <g transform="translate(15.579688 83.624985)scale(0.1 -0.1)">
       <use xlink:href="#DejaVuSans-54"/>
      </g>
     </g>
    </g>
    <g id="ytick_7">
     <g id="line2d_14">
      <g>
       <use style="stroke:#000000;stroke-width:0.8;" x="28.942188" xlink:href="#mf331770a28" y="28.067698"/>
      </g>
     </g>
     <g id="text_14">
      <!-- 8 -->
      <g transform="translate(15.579688 31.866917)scale(0.1 -0.1)">
       <use xlink:href="#DejaVuSans-56"/>
      </g>
     </g>
    </g>
   </g>
   <g id="patch_3">
    <path d="M 28.942188 348.478125 
L 28.942188 22.318125 
" style="fill:none;stroke:#000000;stroke-linecap:square;stroke-linejoin:miter;stroke-width:0.8;"/>
   </g>
   <g id="patch_4">
    <path d="M 363.742188 348.478125 
L 363.742188 22.318125 
" style="fill:none;stroke:#000000;stroke-linecap:square;stroke-linejoin:miter;stroke-width:0.8;"/>
   </g>
   <g id="patch_5">
    <path d="M 28.942188 348.478125 
L 363.742188 348.478125 
" style="fill:none;stroke:#000000;stroke-linecap:square;stroke-linejoin:miter;stroke-width:0.8;"/>
   </g>
   <g id="patch_6">
    <path d="M 28.942188 22.318125 
L 363.742188 22.318125 
" style="fill:none;stroke:#000000;stroke-linecap:square;stroke-linejoin:miter;stroke-width:0.8;"/>
   </g>
   <g id="text_15">
    <!-- Iteration 3 Update Centers -->
    <g transform="translate(116.303125 16.318125)scale(0.12 -0.12)">
     <defs>
      <path d="M 9.8125 72.90625 
L 19.671875 72.90625 
L 19.671875 0 
L 9.8125 0 
z
" id="DejaVuSans-73"/>
      <path d="M 18.3125 70.21875 
L 18.3125 54.6875 
L 36.8125 54.6875 
L 36.8125 47.703125 
L 18.3125 47.703125 
L 18.3125 18.015625 
Q 18.3125 11.328125 20.140625 9.421875 
Q 21.96875 7.515625 27.59375 7.515625 
L 36.8125 7.515625 
L 36.8125 0 
L 27.59375 0 
Q 17.1875 0 13.234375 3.875 
Q 9.28125 7.765625 9.28125 18.015625 
L 9.28125 47.703125 
L 2.6875 47.703125 
L 2.6875 54.6875 
L 9.28125 54.6875 
L 9.28125 70.21875 
z
" id="DejaVuSans-116"/>
      <path d="M 56.203125 29.59375 
L 56.203125 25.203125 
L 14.890625 25.203125 
Q 15.484375 15.921875 20.484375 11.0625 
Q 25.484375 6.203125 34.421875 6.203125 
Q 39.59375 6.203125 44.453125 7.46875 
Q 49.3125 8.734375 54.109375 11.28125 
L 54.109375 2.78125 
Q 49.265625 0.734375 44.1875 -0.34375 
Q 39.109375 -1.421875 33.890625 -1.421875 
Q 20.796875 -1.421875 13.15625 6.1875 
Q 5.515625 13.8125 5.515625 26.8125 
Q 5.515625 40.234375 12.765625 48.109375 
Q 20.015625 56 32.328125 56 
Q 43.359375 56 49.78125 48.890625 
Q 56.203125 41.796875 56.203125 29.59375 
z
M 47.21875 32.234375 
Q 47.125 39.59375 43.09375 43.984375 
Q 39.0625 48.390625 32.421875 48.390625 
Q 24.90625 48.390625 20.390625 44.140625 
Q 15.875 39.890625 15.1875 32.171875 
z
" id="DejaVuSans-101"/>
      <path d="M 41.109375 46.296875 
Q 39.59375 47.171875 37.8125 47.578125 
Q 36.03125 48 33.890625 48 
Q 26.265625 48 22.1875 43.046875 
Q 18.109375 38.09375 18.109375 28.8125 
L 18.109375 0 
L 9.078125 0 
L 9.078125 54.6875 
L 18.109375 54.6875 
L 18.109375 46.1875 
Q 20.953125 51.171875 25.484375 53.578125 
Q 30.03125 56 36.53125 56 
Q 37.453125 56 38.578125 55.875 
Q 39.703125 55.765625 41.0625 55.515625 
z
" id="DejaVuSans-114"/>
      <path d="M 34.28125 27.484375 
Q 23.390625 27.484375 19.1875 25 
Q 14.984375 22.515625 14.984375 16.5 
Q 14.984375 11.71875 18.140625 8.90625 
Q 21.296875 6.109375 26.703125 6.109375 
Q 34.1875 6.109375 38.703125 11.40625 
Q 43.21875 16.703125 43.21875 25.484375 
L 43.21875 27.484375 
z
M 52.203125 31.203125 
L 52.203125 0 
L 43.21875 0 
L 43.21875 8.296875 
Q 40.140625 3.328125 35.546875 0.953125 
Q 30.953125 -1.421875 24.3125 -1.421875 
Q 15.921875 -1.421875 10.953125 3.296875 
Q 6 8.015625 6 15.921875 
Q 6 25.140625 12.171875 29.828125 
Q 18.359375 34.515625 30.609375 34.515625 
L 43.21875 34.515625 
L 43.21875 35.40625 
Q 43.21875 41.609375 39.140625 45 
Q 35.0625 48.390625 27.6875 48.390625 
Q 23 48.390625 18.546875 47.265625 
Q 14.109375 46.140625 10.015625 43.890625 
L 10.015625 52.203125 
Q 14.9375 54.109375 19.578125 55.046875 
Q 24.21875 56 28.609375 56 
Q 40.484375 56 46.34375 49.84375 
Q 52.203125 43.703125 52.203125 31.203125 
z
" id="DejaVuSans-97"/>
      <path d="M 9.421875 54.6875 
L 18.40625 54.6875 
L 18.40625 0 
L 9.421875 0 
z
M 9.421875 75.984375 
L 18.40625 75.984375 
L 18.40625 64.59375 
L 9.421875 64.59375 
z
" id="DejaVuSans-105"/>
      <path d="M 30.609375 48.390625 
Q 23.390625 48.390625 19.1875 42.75 
Q 14.984375 37.109375 14.984375 27.296875 
Q 14.984375 17.484375 19.15625 11.84375 
Q 23.34375 6.203125 30.609375 6.203125 
Q 37.796875 6.203125 41.984375 11.859375 
Q 46.1875 17.53125 46.1875 27.296875 
Q 46.1875 37.015625 41.984375 42.703125 
Q 37.796875 48.390625 30.609375 48.390625 
z
M 30.609375 56 
Q 42.328125 56 49.015625 48.375 
Q 55.71875 40.765625 55.71875 27.296875 
Q 55.71875 13.875 49.015625 6.21875 
Q 42.328125 -1.421875 30.609375 -1.421875 
Q 18.84375 -1.421875 12.171875 6.21875 
Q 5.515625 13.875 5.515625 27.296875 
Q 5.515625 40.765625 12.171875 48.375 
Q 18.84375 56 30.609375 56 
z
" id="DejaVuSans-111"/>
      <path d="M 54.890625 33.015625 
L 54.890625 0 
L 45.90625 0 
L 45.90625 32.71875 
Q 45.90625 40.484375 42.875 44.328125 
Q 39.84375 48.1875 33.796875 48.1875 
Q 26.515625 48.1875 22.3125 43.546875 
Q 18.109375 38.921875 18.109375 30.90625 
L 18.109375 0 
L 9.078125 0 
L 9.078125 54.6875 
L 18.109375 54.6875 
L 18.109375 46.1875 
Q 21.34375 51.125 25.703125 53.5625 
Q 30.078125 56 35.796875 56 
Q 45.21875 56 50.046875 50.171875 
Q 54.890625 44.34375 54.890625 33.015625 
z
" id="DejaVuSans-110"/>
      <path id="DejaVuSans-32"/>
      <path d="M 40.578125 39.3125 
Q 47.65625 37.796875 51.625 33 
Q 55.609375 28.21875 55.609375 21.1875 
Q 55.609375 10.40625 48.1875 4.484375 
Q 40.765625 -1.421875 27.09375 -1.421875 
Q 22.515625 -1.421875 17.65625 -0.515625 
Q 12.796875 0.390625 7.625 2.203125 
L 7.625 11.71875 
Q 11.71875 9.328125 16.59375 8.109375 
Q 21.484375 6.890625 26.8125 6.890625 
Q 36.078125 6.890625 40.9375 10.546875 
Q 45.796875 14.203125 45.796875 21.1875 
Q 45.796875 27.640625 41.28125 31.265625 
Q 36.765625 34.90625 28.71875 34.90625 
L 20.21875 34.90625 
L 20.21875 43.015625 
L 29.109375 43.015625 
Q 36.375 43.015625 40.234375 45.921875 
Q 44.09375 48.828125 44.09375 54.296875 
Q 44.09375 59.90625 40.109375 62.90625 
Q 36.140625 65.921875 28.71875 65.921875 
Q 24.65625 65.921875 20.015625 65.03125 
Q 15.375 64.15625 9.8125 62.3125 
L 9.8125 71.09375 
Q 15.4375 72.65625 20.34375 73.4375 
Q 25.25 74.21875 29.59375 74.21875 
Q 40.828125 74.21875 47.359375 69.109375 
Q 53.90625 64.015625 53.90625 55.328125 
Q 53.90625 49.265625 50.4375 45.09375 
Q 46.96875 40.921875 40.578125 39.3125 
z
" id="DejaVuSans-51"/>
      <path d="M 8.6875 72.90625 
L 18.609375 72.90625 
L 18.609375 28.609375 
Q 18.609375 16.890625 22.84375 11.734375 
Q 27.09375 6.59375 36.625 6.59375 
Q 46.09375 6.59375 50.34375 11.734375 
Q 54.59375 16.890625 54.59375 28.609375 
L 54.59375 72.90625 
L 64.5 72.90625 
L 64.5 27.390625 
Q 64.5 13.140625 57.4375 5.859375 
Q 50.390625 -1.421875 36.625 -1.421875 
Q 22.796875 -1.421875 15.734375 5.859375 
Q 8.6875 13.140625 8.6875 27.390625 
z
" id="DejaVuSans-85"/>
      <path d="M 18.109375 8.203125 
L 18.109375 -20.796875 
L 9.078125 -20.796875 
L 9.078125 54.6875 
L 18.109375 54.6875 
L 18.109375 46.390625 
Q 20.953125 51.265625 25.265625 53.625 
Q 29.59375 56 35.59375 56 
Q 45.5625 56 51.78125 48.09375 
Q 58.015625 40.1875 58.015625 27.296875 
Q 58.015625 14.40625 51.78125 6.484375 
Q 45.5625 -1.421875 35.59375 -1.421875 
Q 29.59375 -1.421875 25.265625 0.953125 
Q 20.953125 3.328125 18.109375 8.203125 
z
M 48.6875 27.296875 
Q 48.6875 37.203125 44.609375 42.84375 
Q 40.53125 48.484375 33.40625 48.484375 
Q 26.265625 48.484375 22.1875 42.84375 
Q 18.109375 37.203125 18.109375 27.296875 
Q 18.109375 17.390625 22.1875 11.75 
Q 26.265625 6.109375 33.40625 6.109375 
Q 40.53125 6.109375 44.609375 11.75 
Q 48.6875 17.390625 48.6875 27.296875 
z
" id="DejaVuSans-112"/>
      <path d="M 45.40625 46.390625 
L 45.40625 75.984375 
L 54.390625 75.984375 
L 54.390625 0 
L 45.40625 0 
L 45.40625 8.203125 
Q 42.578125 3.328125 38.25 0.953125 
Q 33.9375 -1.421875 27.875 -1.421875 
Q 17.96875 -1.421875 11.734375 6.484375 
Q 5.515625 14.40625 5.515625 27.296875 
Q 5.515625 40.1875 11.734375 48.09375 
Q 17.96875 56 27.875 56 
Q 33.9375 56 38.25 53.625 
Q 42.578125 51.265625 45.40625 46.390625 
z
M 14.796875 27.296875 
Q 14.796875 17.390625 18.875 11.75 
Q 22.953125 6.109375 30.078125 6.109375 
Q 37.203125 6.109375 41.296875 11.75 
Q 45.40625 17.390625 45.40625 27.296875 
Q 45.40625 37.203125 41.296875 42.84375 
Q 37.203125 48.484375 30.078125 48.484375 
Q 22.953125 48.484375 18.875 42.84375 
Q 14.796875 37.203125 14.796875 27.296875 
z
" id="DejaVuSans-100"/>
      <path d="M 64.40625 67.28125 
L 64.40625 56.890625 
Q 59.421875 61.53125 53.78125 63.8125 
Q 48.140625 66.109375 41.796875 66.109375 
Q 29.296875 66.109375 22.65625 58.46875 
Q 16.015625 50.828125 16.015625 36.375 
Q 16.015625 21.96875 22.65625 14.328125 
Q 29.296875 6.6875 41.796875 6.6875 
Q 48.140625 6.6875 53.78125 8.984375 
Q 59.421875 11.28125 64.40625 15.921875 
L 64.40625 5.609375 
Q 59.234375 2.09375 53.4375 0.328125 
Q 47.65625 -1.421875 41.21875 -1.421875 
Q 24.65625 -1.421875 15.125 8.703125 
Q 5.609375 18.84375 5.609375 36.375 
Q 5.609375 53.953125 15.125 64.078125 
Q 24.65625 74.21875 41.21875 74.21875 
Q 47.75 74.21875 53.53125 72.484375 
Q 59.328125 70.75 64.40625 67.28125 
z
" id="DejaVuSans-67"/>
      <path d="M 44.28125 53.078125 
L 44.28125 44.578125 
Q 40.484375 46.53125 36.375 47.5 
Q 32.28125 48.484375 27.875 48.484375 
Q 21.1875 48.484375 17.84375 46.4375 
Q 14.5 44.390625 14.5 40.28125 
Q 14.5 37.15625 16.890625 35.375 
Q 19.28125 33.59375 26.515625 31.984375 
L 29.59375 31.296875 
Q 39.15625 29.25 43.1875 25.515625 
Q 47.21875 21.78125 47.21875 15.09375 
Q 47.21875 7.46875 41.1875 3.015625 
Q 35.15625 -1.421875 24.609375 -1.421875 
Q 20.21875 -1.421875 15.453125 -0.5625 
Q 10.6875 0.296875 5.421875 2 
L 5.421875 11.28125 
Q 10.40625 8.6875 15.234375 7.390625 
Q 20.0625 6.109375 24.8125 6.109375 
Q 31.15625 6.109375 34.5625 8.28125 
Q 37.984375 10.453125 37.984375 14.40625 
Q 37.984375 18.0625 35.515625 20.015625 
Q 33.0625 21.96875 24.703125 23.78125 
L 21.578125 24.515625 
Q 13.234375 26.265625 9.515625 29.90625 
Q 5.8125 33.546875 5.8125 39.890625 
Q 5.8125 47.609375 11.28125 51.796875 
Q 16.75 56 26.8125 56 
Q 31.78125 56 36.171875 55.265625 
Q 40.578125 54.546875 44.28125 53.078125 
z
" id="DejaVuSans-115"/>
     </defs>
     <use xlink:href="#DejaVuSans-73"/>
     <use x="29.492188" xlink:href="#DejaVuSans-116"/>
     <use x="68.701172" xlink:href="#DejaVuSans-101"/>
     <use x="130.224609" xlink:href="#DejaVuSans-114"/>
     <use x="171.337891" xlink:href="#DejaVuSans-97"/>
     <use x="232.617188" xlink:href="#DejaVuSans-116"/>
     <use x="271.826172" xlink:href="#DejaVuSans-105"/>
     <use x="299.609375" xlink:href="#DejaVuSans-111"/>
     <use x="360.791016" xlink:href="#DejaVuSans-110"/>
     <use x="424.169922" xlink:href="#DejaVuSans-32"/>
     <use x="455.957031" xlink:href="#DejaVuSans-51"/>
     <use x="519.580078" xlink:href="#DejaVuSans-32"/>
     <use x="551.367188" xlink:href="#DejaVuSans-85"/>
     <use x="624.560547" xlink:href="#DejaVuSans-112"/>
     <use x="688.037109" xlink:href="#DejaVuSans-100"/>
     <use x="751.513672" xlink:href="#DejaVuSans-97"/>
     <use x="812.792969" xlink:href="#DejaVuSans-116"/>
     <use x="852.001953" xlink:href="#DejaVuSans-101"/>
     <use x="913.525391" xlink:href="#DejaVuSans-32"/>
     <use x="945.3125" xlink:href="#DejaVuSans-67"/>
     <use x="1015.136719" xlink:href="#DejaVuSans-101"/>
     <use x="1076.660156" xlink:href="#DejaVuSans-110"/>
     <use x="1140.039062" xlink:href="#DejaVuSans-116"/>
     <use x="1179.248047" xlink:href="#DejaVuSans-101"/>
     <use x="1240.771484" xlink:href="#DejaVuSans-114"/>
     <use x="1281.884766" xlink:href="#DejaVuSans-115"/>
    </g>
   </g>
  </g>
 </g>
 <defs>
  <clipPath id="pfb2867000d">
   <rect height="326.16" width="334.8" x="28.942188" y="22.318125"/>
  </clipPath>
 </defs>
</svg>
